<svg width="64" height="64" fill="none" xmlns="http://www.w3.org/2000/svg"><path fill-rule="evenodd" clip-rule="evenodd" d="M14.206 5.815a.266.266 0 0 0-.375 0L5.815 13.83a.266.266 0 0 0 0 .375l1.79 1.79 2.108-2.108a.868.868 0 1 1 1.229 1.228l-2.109 2.108 1.979 1.979 3.711-3.712a.869.869 0 1 1 1.228 1.229L12.04 20.43l1.978 1.978 2.108-2.108a.869.869 0 0 1 1.229 1.228l-2.109 2.108 1.979 1.979 3.711-3.712a.869.869 0 1 1 1.228 1.229l-3.711 3.711 1.978 1.978 2.108-2.107a.869.869 0 1 1 1.228 1.229L21.66 30.05l1.978 1.978 3.711-3.71a.869.869 0 0 1 1.228 1.228l-3.711 3.71 1.978 1.978 2.108-2.107a.869.869 0 0 1 1.228 1.228l-2.108 2.107 1.979 1.979 3.71-3.71a.868.868 0 1 1 1.229 1.227l-3.71 3.711 1.977 1.978 2.108-2.107a.869.869 0 1 1 1.228 1.228l-2.107 2.108 1.978 1.978 3.71-3.71a.869.869 0 0 1 1.229 1.227l-3.71 3.711 1.978 1.979 2.107-2.108a.869.869 0 0 1 1.228 1.228L40.9 49.29l1.978 1.979 3.712-3.712a.869.869 0 0 1 1.228 1.228l-3.711 3.712 1.978 1.978 2.108-2.108a.869.869 0 0 1 1.228 1.228l-2.108 2.108 1.978 1.978 8.391-8.39-19.116-19.117-.014-.014-.013-.012a.935.935 0 0 1-.026-.027l-4.757-4.757a.827.827 0 0 1-.053-.053L14.206 5.815Zm28.062 47.3 6.403 6.404.032.03c.169.156.384.232.598.229h9.608c.48 0 .869-.389.869-.868V49.3a.866.866 0 0 0-.26-.63L40.382 29.533l8.227-8.226.01-.01a.866.866 0 0 0 .17-.24l5.099-9.897a.869.869 0 0 0-1.17-1.17l-9.908 5.104a.864.864 0 0 0-.228.164l-8.238 8.237-18.91-18.909a2.003 2.003 0 0 0-2.83 0l-8.017 8.016a2.003 2.003 0 0 0 0 2.832l2.4 2.4.005.005.005.005 3.197 3.197.005.004.003.004 3.198 3.197.005.006.005.005 3.197 3.197.004.004.005.004 3.202 3.202 3.206 3.207.472.472L12.928 44.91l-.008.008-.008.008-2.397 2.397a2.003 2.003 0 0 0 0 2.831l3.207 3.207c.781.781 2.05.781 2.831 0l12.98-12.98 3.084 3.084.01.011.016.015.01.01.008.009.008.007 3.155 3.154a.8.8 0 0 0 .052.053l3.175 3.175.006.005.005.006 3.197 3.197.004.004.005.004ZM24.723 35.571l1.507 1.506 2.075 2.076-9.961 9.96-3.582-3.58 9.961-9.962Zm-11.189 11.19-1.79 1.79a.266.266 0 0 0 0 .375l3.206 3.206a.266.266 0 0 0 .375 0l1.79-1.79-3.58-3.582ZM50.37 14.193l-2.592 5.033-3.127-3.128 5.032-2.592.688.687Zm-3.593 6.488-3.581-3.581-7.624 7.622 3.581 3.582 7.624-7.623Z" fill="#242343"/></svg>