<svg width="64" height="64" fill="none" xmlns="http://www.w3.org/2000/svg"><path fill-rule="evenodd" clip-rule="evenodd" d="M37.273 6.168a1.056 1.056 0 0 0-.175-.012H8.185c-.58 0-1.051.47-1.051 1.05v49.81c0 .58.47 1.05 1.05 1.05H57.2c.58 0 1.05-.47 1.05-1.05V33.15c0-1.727-1.4-3.126-3.125-3.126H47.63V16.676a1.047 1.047 0 0 0-.308-.742l-.002-.003-9.464-9.465a1.047 1.047 0 0 0-.583-.298ZM9.235 55.966V8.256H36.06v8.42c0 .58.47 1.051 1.05 1.051h8.42v12.296h-5.064a3.125 3.125 0 0 0-3.126 3.126v22.817H9.235Zm28.926-40.34V9.743l5.883 5.883H38.16Zm-24.788-1.428a1.05 1.05 0 0 0 0 2.101H28.94a1.05 1.05 0 0 0 0-2.1H13.373Zm0 8.302a1.05 1.05 0 0 0 0 2.1h28.018a1.05 1.05 0 0 0 0-2.1H13.373Zm0 8.301a1.05 1.05 0 0 0 0 2.101H33.09a1.05 1.05 0 1 0 0-2.1H13.373Zm26.069 2.348c0-.567.458-1.025 1.024-1.025h14.658c.566 0 1.025.459 1.025 1.025v5.262H39.442v-5.262Zm-26.069 5.954a1.05 1.05 0 0 0 0 2.1H33.09a1.05 1.05 0 0 0 0-2.1H13.373Zm26.069 16.863V40.512h16.707v15.454H39.442Zm1.868-13.75a1.05 1.05 0 0 0 0 2.101h2.387a1.05 1.05 0 0 0 0-2.101H41.31Zm5.292 0a1.05 1.05 0 0 0 0 2.101h2.387a1.05 1.05 0 0 0 0-2.101h-2.387Zm5.293 0a1.05 1.05 0 0 0 0 2.101h2.386a1.05 1.05 0 0 0 0-2.101h-2.386Zm-10.585 4.67a1.05 1.05 0 0 0 0 2.1h2.387a1.05 1.05 0 0 0 0-2.1H41.31Zm5.292 0a1.05 1.05 0 0 0 0 2.1h2.387a1.05 1.05 0 0 0 0-2.1h-2.387Zm5.293 0a1.05 1.05 0 0 0 0 2.1h2.386a1.05 1.05 0 0 0 0-2.1h-2.386Zm-38.522.518a1.05 1.05 0 0 0 0 2.101H33.09a1.05 1.05 0 1 0 0-2.1H13.373Zm27.937 4.151a1.05 1.05 0 1 0 0 2.101h2.387a1.05 1.05 0 1 0 0-2.1H41.31Zm5.292 0a1.05 1.05 0 1 0 0 2.101h2.387a1.05 1.05 0 1 0 0-2.1h-2.387Zm5.293 0a1.05 1.05 0 1 0 0 2.101h2.386a1.05 1.05 0 1 0 0-2.1h-2.386Z" fill="#242343"/></svg>