<svg width="64" height="64" viewBox="0 0 64 64" fill="none" xmlns="http://www.w3.org/2000/svg">
<path fill-rule="evenodd" clip-rule="evenodd" d="M13.5083 23.373C13.5083 13.2673 21.6748 6.64771 31.9882 6.64771C42.3016 6.64771 50.468 13.2673 50.468 23.373V38.7831C50.468 46.3471 44.8364 52.597 37.5377 53.5676C37.0991 51.5111 35.2719 49.9685 33.0846 49.9685H31.33C28.8155 49.9685 26.7769 52.0072 26.7769 54.5217C26.7769 57.0362 28.8155 59.0749 31.33 59.0749H33.0846C35.3607 59.0749 37.2469 57.4045 37.5841 55.2228C44.3284 54.3973 49.8197 49.5194 51.5479 43.0988H53.3027C57.0082 43.0988 60.0124 40.0946 60.0124 36.3891V34.1225C60.0124 30.417 57.0082 27.4128 53.3027 27.4128H52.1157V23.373C52.1157 12.1566 42.9969 5 31.9882 5C20.9794 5 11.8606 12.1566 11.8606 23.373V27.4116H10.7097C7.0042 27.4116 4 30.4158 4 34.1213V36.3879C4 40.0943 7.0042 43.0985 10.7106 43.0985H13.0491C13.1101 43.1002 13.1722 43.0952 13.2344 43.0827C13.2414 43.0814 13.2483 43.0799 13.2552 43.0783C13.283 43.072 13.3101 43.0644 13.3365 43.0555C13.515 42.9956 13.6616 42.8785 13.7601 42.7298C13.8631 42.5742 13.9135 42.3841 13.8927 42.1887C13.8887 42.1497 13.8819 42.1115 13.8726 42.0743C13.6345 41.0163 13.5083 39.9145 13.5083 38.7831V28.4765C13.5316 28.4003 13.5441 28.3193 13.5441 28.2355C13.5441 28.1516 13.5316 28.0707 13.5083 27.9944V23.373ZM52.1157 29.0606V38.7831C52.1157 39.6914 52.0426 40.5826 51.902 41.4511H53.3027C56.0982 41.4511 58.3647 39.1846 58.3647 36.3891V34.1225C58.3647 31.327 56.0982 29.0606 53.3027 29.0606H52.1157ZM10.7097 29.0593H11.8606V38.7831C11.8606 39.6906 11.9338 40.5819 12.0746 41.4508H10.7106C7.9142 41.4508 5.64771 39.1843 5.64771 36.3879V34.1213C5.64771 31.3258 7.9142 29.0593 10.7097 29.0593ZM35.9883 54.4201C35.9859 54.4588 35.9862 54.4981 35.9893 54.5378L35.99 54.5457C35.9771 56.1392 34.6811 57.4272 33.0846 57.4272H31.33C29.7255 57.4272 28.4246 56.1262 28.4246 54.5217C28.4246 52.9172 29.7255 51.6162 31.33 51.6162H33.0846C34.6551 51.6162 35.9348 52.8626 35.9883 54.4201ZM22.3822 23.7564C22.6746 23.4077 22.629 22.8881 22.2804 22.5957C21.9317 22.3033 21.4121 22.3489 21.1197 22.6975L17.3179 27.2308C17.1934 27.3791 17.1252 27.5665 17.1252 27.7602V38.2893C17.1252 43.1353 19.944 47.3215 24.0278 49.3012C24.4372 49.4996 24.93 49.3286 25.1285 48.9192C25.327 48.5097 25.156 48.0169 24.7465 47.8185C21.2091 46.1037 18.773 42.48 18.773 38.2893V28.0599L22.3822 23.7564ZM21.6785 16.3135C22.0637 16.0713 22.5723 16.1873 22.8145 16.5726C23.9133 18.3208 25.871 19.8695 28.2882 21.209C30.6921 22.5411 33.4751 23.6256 36.1339 24.4801C38.7891 25.3335 41.2988 25.9509 43.146 26.3549C44.0689 26.5567 44.8247 26.705 45.3487 26.8026C45.6106 26.8514 45.8144 26.8875 45.9521 26.9113C46.0209 26.9232 46.0731 26.932 46.1078 26.9378L46.1465 26.9442L46.1558 26.9457L46.1578 26.946C46.5572 27.0102 46.8511 27.3549 46.8511 27.7594V38.2886C46.8511 42.4631 44.7585 46.15 41.5684 48.3551C41.1941 48.6139 40.681 48.5202 40.4223 48.1459C40.1635 47.7716 40.2572 47.2584 40.6315 46.9997C43.3954 45.0893 45.2034 41.8995 45.2034 38.2886V28.4514L45.0469 28.4224C44.5083 28.3221 43.7355 28.1705 42.7939 27.9645C40.9119 27.5529 38.3488 26.9227 35.6297 26.0488C32.9142 25.176 30.0212 24.0532 27.4895 22.6502C24.9711 21.2545 22.7336 19.5402 21.4194 17.4494C21.1773 17.0642 21.2933 16.5556 21.6785 16.3135Z" fill="#242343"/>
<path d="M37.5377 53.5676L37.0486 53.6719C37.1031 53.9272 37.3448 54.0977 37.6036 54.0633L37.5377 53.5676ZM37.5841 55.2228L37.5234 54.7265C37.3012 54.7537 37.1242 54.9252 37.09 55.1464L37.5841 55.2228ZM51.5479 43.0988V42.5988C51.3218 42.5988 51.1238 42.7505 51.065 42.9689L51.5479 43.0988ZM52.1157 27.4128H51.6157C51.6157 27.689 51.8396 27.9128 52.1157 27.9128V27.4128ZM11.8606 27.4116V27.9116C12.1367 27.9116 12.3606 27.6878 12.3606 27.4116H11.8606ZM13.0491 43.0985L13.0634 42.5987C13.0587 42.5985 13.0539 42.5985 13.0491 42.5985V43.0985ZM13.2344 43.0827L13.1373 42.5923L13.1364 42.5924L13.2344 43.0827ZM13.2552 43.0783L13.3653 43.566L13.3657 43.5659L13.2552 43.0783ZM13.3365 43.0555L13.1773 42.5815L13.1773 42.5815L13.3365 43.0555ZM13.7601 42.7298L14.177 43.0059L13.7601 42.7298ZM13.8927 42.1887L13.3954 42.2402L13.3955 42.2416L13.8927 42.1887ZM13.8726 42.0743L13.3847 42.1842L13.3875 42.1955L13.8726 42.0743ZM13.5083 28.4765L13.0301 28.3304C13.0157 28.3778 13.0083 28.427 13.0083 28.4765H13.5083ZM13.5083 27.9944H13.0083C13.0083 28.0439 13.0157 28.0932 13.0301 28.1405L13.5083 27.9944ZM52.1157 29.0606V28.5606C51.8396 28.5606 51.6157 28.7844 51.6157 29.0606H52.1157ZM51.902 41.4511L51.4084 41.3712C51.385 41.5159 51.4262 41.6636 51.5212 41.7752C51.6162 41.8868 51.7554 41.9511 51.902 41.9511V41.4511ZM11.8606 29.0593H12.3606C12.3606 28.7832 12.1367 28.5593 11.8606 28.5593V29.0593ZM12.0746 41.4508V41.9508C12.2212 41.9508 12.3604 41.8864 12.4554 41.7748C12.5504 41.6632 12.5916 41.5155 12.5682 41.3708L12.0746 41.4508ZM35.9893 54.5378L35.4909 54.5773L35.4911 54.5796L35.9893 54.5378ZM35.9883 54.4201L36.4873 54.4515C36.4884 54.4353 36.4886 54.4191 36.488 54.4029L35.9883 54.4201ZM35.99 54.5457L36.49 54.5498C36.4901 54.5345 36.4895 54.5192 36.4882 54.5039L35.99 54.5457ZM22.2804 22.5957L21.9591 22.9788V22.9788L22.2804 22.5957ZM22.3822 23.7564L22.7653 24.0777L22.3822 23.7564ZM21.1197 22.6975L21.5028 23.0188L21.1197 22.6975ZM17.3179 27.2308L16.9348 26.9095L17.3179 27.2308ZM24.0278 49.3012L24.2459 48.8512H24.2459L24.0278 49.3012ZM25.1285 48.9192L24.6786 48.7011L24.6786 48.7011L25.1285 48.9192ZM24.7465 47.8185L24.9646 47.3685L24.7465 47.8185ZM18.773 28.0599L18.3899 27.7386C18.3143 27.8286 18.273 27.9424 18.273 28.0599H18.773ZM22.8145 16.5726L23.2378 16.3065L22.8145 16.5726ZM21.6785 16.3135L21.4124 15.8901V15.8901L21.6785 16.3135ZM28.2882 21.209L28.0458 21.6463L28.2882 21.209ZM36.1339 24.4801L36.2869 24.0041L36.1339 24.4801ZM43.146 26.3549L43.0391 26.8433L43.146 26.3549ZM45.3487 26.8026L45.2571 27.2941L45.3487 26.8026ZM45.9521 26.9113L45.8669 27.404H45.8669L45.9521 26.9113ZM46.1078 26.9378L46.0256 27.4309L46.0262 27.4311L46.1078 26.9378ZM46.1465 26.9442L46.065 27.4375L46.0661 27.4376L46.1465 26.9442ZM46.1558 26.9457L46.0753 27.4391L46.0755 27.4392L46.1558 26.9457ZM46.1578 26.946L46.0776 27.4395L46.0784 27.4396L46.1578 26.946ZM41.5684 48.3551L41.2841 47.9438H41.2841L41.5684 48.3551ZM40.4223 48.1459L40.8336 47.8616L40.4223 48.1459ZM40.6315 46.9997L40.9158 47.411L40.6315 46.9997ZM45.2034 28.4514H45.7034C45.7034 28.2103 45.5314 28.0035 45.2943 27.9597L45.2034 28.4514ZM45.0469 28.4224L44.9554 28.914L44.9561 28.9141L45.0469 28.4224ZM42.7939 27.9645L42.9007 27.4761L42.7939 27.9645ZM35.6297 26.0488L35.7827 25.5728L35.6297 26.0488ZM27.4895 22.6502L27.7319 22.2128L27.4895 22.6502ZM21.4194 17.4494L20.9961 17.7155V17.7155L21.4194 17.4494ZM31.9882 6.14771C21.4628 6.14771 13.0083 12.9311 13.0083 23.373H14.0083C14.0083 13.6035 21.8867 7.14771 31.9882 7.14771V6.14771ZM50.968 23.373C50.968 12.9311 42.5135 6.14771 31.9882 6.14771V7.14771C42.0896 7.14771 49.968 13.6035 49.968 23.373H50.968ZM50.968 38.7831V23.373H49.968V38.7831H50.968ZM37.6036 54.0633C45.1475 53.06 50.968 46.6011 50.968 38.7831H49.968C49.968 46.0931 44.5253 52.1339 37.4717 53.072L37.6036 54.0633ZM33.0846 50.4685C35.0311 50.4685 36.6583 51.8413 37.0486 53.6719L38.0267 53.4634C37.5399 51.1808 35.5127 49.4685 33.0846 49.4685V50.4685ZM31.33 50.4685H33.0846V49.4685H31.33V50.4685ZM27.2769 54.5217C27.2769 52.2833 29.0917 50.4685 31.33 50.4685V49.4685C28.5394 49.4685 26.2769 51.731 26.2769 54.5217H27.2769ZM31.33 58.5749C29.0917 58.5749 27.2769 56.7601 27.2769 54.5217H26.2769C26.2769 57.3123 28.5394 59.5749 31.33 59.5749V58.5749ZM33.0846 58.5749H31.33V59.5749H33.0846V58.5749ZM37.09 55.1464C36.7899 57.0881 35.1103 58.5749 33.0846 58.5749V59.5749C35.6111 59.5749 37.7039 57.7209 38.0783 55.2992L37.09 55.1464ZM51.065 42.9689C49.3891 49.1954 44.0628 53.9261 37.5234 54.7265L37.6449 55.7191C44.594 54.8685 50.2503 49.8434 52.0307 43.2288L51.065 42.9689ZM53.3027 42.5988H51.5479V43.5988H53.3027V42.5988ZM59.5124 36.3891C59.5124 39.8185 56.7321 42.5988 53.3027 42.5988V43.5988C57.2843 43.5988 60.5124 40.3708 60.5124 36.3891H59.5124ZM59.5124 34.1225V36.3891H60.5124V34.1225H59.5124ZM53.3027 27.9128C56.7321 27.9128 59.5124 30.6932 59.5124 34.1225H60.5124C60.5124 30.1409 57.2843 26.9128 53.3027 26.9128V27.9128ZM52.1157 27.9128H53.3027V26.9128H52.1157V27.9128ZM51.6157 23.373V27.4128H52.6157V23.373H51.6157ZM31.9882 5.5C42.7868 5.5 51.6157 12.4944 51.6157 23.373H52.6157C52.6157 11.8188 43.2071 4.5 31.9882 4.5V5.5ZM12.3606 23.373C12.3606 12.4944 21.1895 5.5 31.9882 5.5V4.5C20.7692 4.5 11.3606 11.8188 11.3606 23.373H12.3606ZM12.3606 27.4116V23.373H11.3606V27.4116H12.3606ZM10.7097 27.9116H11.8606V26.9116H10.7097V27.9116ZM4.5 34.1213C4.5 30.692 7.28034 27.9116 10.7097 27.9116V26.9116C6.72805 26.9116 3.5 30.1397 3.5 34.1213H4.5ZM4.5 36.3879V34.1213H3.5V36.3879H4.5ZM10.7106 42.5985C7.28034 42.5985 4.5 39.8181 4.5 36.3879H3.5C3.5 40.3704 6.72806 43.5985 10.7106 43.5985V42.5985ZM13.0491 42.5985H10.7106V43.5985H13.0491V42.5985ZM13.1364 42.5924C13.1114 42.5974 13.087 42.5994 13.0634 42.5987L13.0348 43.5983C13.1331 43.6011 13.2329 43.5929 13.3324 43.573L13.1364 42.5924ZM13.1452 42.5906C13.1411 42.5915 13.1387 42.592 13.1373 42.5923L13.3315 43.5732C13.344 43.5707 13.3555 43.5682 13.3653 43.566L13.1452 42.5906ZM13.1773 42.5815C13.1669 42.585 13.1561 42.5881 13.1448 42.5906L13.3657 43.5659C13.4099 43.5559 13.4532 43.5438 13.4956 43.5295L13.1773 42.5815ZM13.3432 42.4537C13.3041 42.5128 13.2467 42.5582 13.1773 42.5815L13.4956 43.5295C13.7833 43.4329 14.0192 43.2441 14.177 43.0059L13.3432 42.4537ZM13.3955 42.2416C13.4036 42.3173 13.3843 42.3917 13.3432 42.4537L14.177 43.0059C14.342 42.7567 14.4234 42.4509 14.3899 42.1359L13.3955 42.2416ZM13.3875 42.1955C13.3911 42.2099 13.3938 42.2249 13.3954 42.2402L14.3901 42.1372C14.3836 42.0746 14.3727 42.0131 14.3577 41.9532L13.3875 42.1955ZM13.0083 38.7831C13.0083 39.9518 13.1386 41.0904 13.3848 42.1841L14.3604 41.9645C14.1303 40.9423 14.0083 39.8772 14.0083 38.7831H13.0083ZM13.0083 28.4765V38.7831H14.0083V28.4765H13.0083ZM13.0441 28.2355C13.0441 28.2693 13.0391 28.301 13.0301 28.3304L13.9865 28.6226C14.0241 28.4995 14.0441 28.3694 14.0441 28.2355H13.0441ZM13.0301 28.1405C13.0391 28.1699 13.0441 28.2017 13.0441 28.2355H14.0441C14.0441 28.1016 14.0241 27.9714 13.9865 27.8484L13.0301 28.1405ZM13.0083 23.373V27.9944H14.0083V23.373H13.0083ZM51.6157 29.0606V38.7831H52.6157V29.0606H51.6157ZM51.6157 38.7831C51.6157 39.6645 51.5448 40.529 51.4084 41.3712L52.3955 41.531C52.5405 40.6362 52.6157 39.7183 52.6157 38.7831H51.6157ZM51.902 41.9511H53.3027V40.9511H51.902V41.9511ZM53.3027 41.9511C56.3743 41.9511 58.8647 39.4608 58.8647 36.3891H57.8647C57.8647 38.9085 55.822 40.9511 53.3027 40.9511V41.9511ZM58.8647 36.3891V34.1225H57.8647V36.3891H58.8647ZM58.8647 34.1225C58.8647 31.0509 56.3743 28.5606 53.3027 28.5606V29.5606C55.822 29.5606 57.8647 31.6032 57.8647 34.1225H58.8647ZM53.3027 28.5606H52.1157V29.5606H53.3027V28.5606ZM11.8606 28.5593H10.7097V29.5593H11.8606V28.5593ZM12.3606 38.7831V29.0593H11.3606V38.7831H12.3606ZM12.5682 41.3708C12.4317 40.5283 12.3606 39.6637 12.3606 38.7831H11.3606C11.3606 39.7176 11.436 40.6356 11.581 41.5307L12.5682 41.3708ZM10.7106 41.9508H12.0746V40.9508H10.7106V41.9508ZM5.14771 36.3879C5.14771 39.4604 7.63806 41.9508 10.7106 41.9508V40.9508C8.19035 40.9508 6.14771 38.9081 6.14771 36.3879H5.14771ZM5.14771 34.1213V36.3879H6.14771V34.1213H5.14771ZM10.7097 28.5593C7.63806 28.5593 5.14771 31.0497 5.14771 34.1213H6.14771C6.14771 31.602 8.19035 29.5593 10.7097 29.5593V28.5593ZM36.4878 54.4984C36.4865 54.4823 36.4864 54.4666 36.4873 54.4515L35.4893 54.3887C35.4854 54.4509 35.4859 54.5139 35.4909 54.5773L36.4878 54.4984ZM36.4882 54.5039L36.4876 54.4961L35.4911 54.5796L35.4917 54.5875L36.4882 54.5039ZM33.0846 57.9272C34.9559 57.9272 36.4748 56.4175 36.49 54.5498L35.49 54.5417C35.4793 55.8608 34.4063 56.9272 33.0846 56.9272V57.9272ZM31.33 57.9272H33.0846V56.9272H31.33V57.9272ZM27.9246 54.5217C27.9246 56.4023 29.4494 57.9272 31.33 57.9272V56.9272C30.0017 56.9272 28.9246 55.8501 28.9246 54.5217H27.9246ZM31.33 51.1162C29.4494 51.1162 27.9246 52.641 27.9246 54.5217H28.9246C28.9246 53.1933 30.0017 52.1162 31.33 52.1162V51.1162ZM33.0846 51.1162H31.33V52.1162H33.0846V51.1162ZM36.488 54.4029C36.4253 52.5771 34.9255 51.1162 33.0846 51.1162V52.1162C34.3847 52.1162 35.4443 53.1482 35.4886 54.4373L36.488 54.4029ZM21.9591 22.9788C22.0961 23.0937 22.114 23.298 21.9991 23.4351L22.7653 24.0777C23.2351 23.5174 23.1619 22.6824 22.6017 22.2126L21.9591 22.9788ZM21.5028 23.0188C21.6177 22.8818 21.822 22.8639 21.9591 22.9788L22.6017 22.2126C22.0414 21.7428 21.2064 21.816 20.7366 22.3763L21.5028 23.0188ZM17.701 27.5521L21.5028 23.0188L20.7366 22.3763L16.9348 26.9095L17.701 27.5521ZM17.6252 27.7602C17.6252 27.6841 17.6521 27.6104 17.701 27.5521L16.9348 26.9095C16.7348 27.1479 16.6252 27.449 16.6252 27.7602H17.6252ZM17.6252 38.2893V27.7602H16.6252V38.2893H17.6252ZM24.2459 48.8512C20.3279 46.952 17.6252 42.9364 17.6252 38.2893H16.6252C16.6252 43.3342 19.5602 47.6911 23.8097 49.7511L24.2459 48.8512ZM24.6786 48.7011C24.6006 48.862 24.4068 48.9292 24.2459 48.8512L23.8097 49.7511C24.4676 50.07 25.2595 49.7952 25.5784 49.1373L24.6786 48.7011ZM24.5284 48.2684C24.6894 48.3464 24.7566 48.5401 24.6786 48.7011L25.5784 49.1373C25.8974 48.4794 25.6226 47.6875 24.9646 47.3685L24.5284 48.2684ZM18.273 38.2893C18.273 42.6788 20.8252 46.4732 24.5284 48.2684L24.9646 47.3685C21.5931 45.7342 19.273 42.2813 19.273 38.2893H18.273ZM18.273 28.0599V38.2893H19.273V28.0599H18.273ZM21.9991 23.4351L18.3899 27.7386L19.1561 28.3812L22.7653 24.0777L21.9991 23.4351ZM23.2378 16.3065C22.8487 15.6875 22.0315 15.5011 21.4124 15.8901L21.9446 16.7368C22.096 16.6416 22.2959 16.6872 22.3911 16.8386L23.2378 16.3065ZM28.5306 20.7716C26.1441 19.4491 24.2713 17.9507 23.2378 16.3065L22.3911 16.8386C23.5553 18.6908 25.598 20.2898 28.0458 21.6463L28.5306 20.7716ZM36.2869 24.0041C33.6454 23.1551 30.8957 22.0823 28.5306 20.7716L28.0458 21.6463C30.4885 23 33.3049 24.096 35.9809 24.9561L36.2869 24.0041ZM43.2528 25.8664C41.4162 25.4647 38.9227 24.8513 36.2869 24.0041L35.9809 24.9561C38.6555 25.8158 41.1814 26.437 43.0391 26.8433L43.2528 25.8664ZM45.4402 26.311C44.9207 26.2143 44.17 26.067 43.2528 25.8664L43.0391 26.8433C43.9677 27.0464 44.7287 27.1957 45.2571 27.2941L45.4402 26.311ZM46.0372 26.4186C45.9016 26.3951 45.6999 26.3594 45.4402 26.311L45.2571 27.2941C45.5213 27.3433 45.7273 27.3798 45.8669 27.404L46.0372 26.4186ZM46.19 26.4446C46.1563 26.4389 46.105 26.4303 46.0372 26.4186L45.8669 27.404C45.9367 27.416 45.99 27.425 46.0256 27.4309L46.19 26.4446ZM46.2281 26.4509L46.1894 26.4445L46.0262 27.4311L46.065 27.4375L46.2281 26.4509ZM46.2362 26.4522L46.227 26.4507L46.0661 27.4376L46.0753 27.4391L46.2362 26.4522ZM46.2381 26.4525L46.236 26.4521L46.0755 27.4392L46.0776 27.4395L46.2381 26.4525ZM47.3511 27.7594C47.3511 27.1092 46.8787 26.5555 46.2372 26.4523L46.0784 27.4396C46.2356 27.4649 46.3511 27.6007 46.3511 27.7594H47.3511ZM47.3511 38.2886V27.7594H46.3511V38.2886H47.3511ZM41.8527 48.7664C45.1721 46.472 47.3511 42.6342 47.3511 38.2886H46.3511C46.3511 42.292 44.3449 45.8281 41.2841 47.9438L41.8527 48.7664ZM40.011 48.4302C40.4267 49.0316 41.2513 49.1822 41.8527 48.7664L41.2841 47.9438C41.137 48.0455 40.9353 48.0087 40.8336 47.8616L40.011 48.4302ZM40.3472 46.5884C39.7458 47.0041 39.5952 47.8287 40.011 48.4302L40.8336 47.8616C40.7319 47.7144 40.7687 47.5127 40.9158 47.411L40.3472 46.5884ZM44.7034 38.2886C44.7034 41.7285 42.9817 44.7674 40.3472 46.5884L40.9158 47.411C43.8091 45.4111 45.7034 42.0705 45.7034 38.2886H44.7034ZM44.7034 28.4514V38.2886H45.7034V28.4514H44.7034ZM44.9561 28.9141L45.1125 28.943L45.2943 27.9597L45.1378 27.9308L44.9561 28.9141ZM42.687 28.453C43.6344 28.6602 44.4123 28.8128 44.9554 28.914L45.1385 27.9309C44.6043 27.8314 43.8367 27.6808 42.9007 27.4761L42.687 28.453ZM35.4767 26.5248C38.2152 27.405 40.7945 28.0391 42.687 28.453L42.9007 27.4761C41.0293 27.0668 38.4824 26.4405 35.7827 25.5728L35.4767 26.5248ZM27.2472 23.0875C29.8177 24.512 32.7439 25.6465 35.4767 26.5248L35.7827 25.5728C33.0844 24.7055 30.2248 23.5943 27.7319 22.2128L27.2472 23.0875ZM20.9961 17.7155C22.3756 19.9102 24.698 21.6748 27.2472 23.0875L27.7319 22.2128C25.2442 20.8342 23.0916 19.1702 21.8427 17.1833L20.9961 17.7155ZM21.4124 15.8901C20.7934 16.2792 20.607 17.0964 20.9961 17.7155L21.8427 17.1833C21.7476 17.0319 21.7932 16.832 21.9446 16.7368L21.4124 15.8901Z" fill="#242343"/>
</svg>
