<svg width="64" height="64" fill="none" xmlns="http://www.w3.org/2000/svg"><path fill-rule="evenodd" clip-rule="evenodd" d="M13.508 23.373c0-10.106 8.167-16.725 18.48-16.725 10.314 0 18.48 6.62 18.48 16.725v15.41c0 7.564-5.632 13.814-12.93 14.785a4.555 4.555 0 0 0-4.453-3.6H31.33a4.553 4.553 0 0 0 0 9.107h1.755a4.554 4.554 0 0 0 4.5-3.852c6.743-.826 12.235-5.704 13.963-12.124h1.755a6.71 6.71 0 0 0 6.71-6.71v-2.267a6.71 6.71 0 0 0-6.71-6.71h-1.187v-4.039C52.116 12.157 42.996 5 31.988 5 20.98 5 11.861 12.157 11.861 23.373v4.039H10.71A6.71 6.71 0 0 0 4 34.122v2.266a6.71 6.71 0 0 0 6.71 6.71h2.34a.823.823 0 0 0 .823-1.024 14.979 14.979 0 0 1-.365-3.29V28.476a.823.823 0 0 0 0-.483v-4.621Zm38.608 5.688v9.722c0 .908-.073 1.8-.214 2.668h1.4a5.062 5.062 0 0 0 5.063-5.062v-2.267a5.062 5.062 0 0 0-5.062-5.061h-1.187Zm-41.406-.002h1.15v9.724c0 .908.074 1.799.215 2.668H10.71a5.063 5.063 0 0 1-5.063-5.063V34.12a5.062 5.062 0 0 1 5.062-5.062ZM35.988 54.42a.842.842 0 0 0 .001.118l.001.008a2.906 2.906 0 0 1-2.905 2.881H31.33a2.906 2.906 0 0 1 0-5.81h1.755c1.57 0 2.85 1.246 2.903 2.803ZM22.382 23.756a.824.824 0 0 0-1.262-1.058l-3.802 4.533a.823.823 0 0 0-.193.53v10.528c0 4.846 2.819 9.032 6.903 11.012a.824.824 0 0 0 .719-1.483 10.584 10.584 0 0 1-5.974-9.529V28.06l3.61-4.303Zm-.704-7.442a.824.824 0 0 1 1.136.259c1.1 1.748 3.057 3.296 5.474 4.636 2.404 1.332 5.187 2.417 7.846 3.271a77.27 77.27 0 0 0 9.974 2.458l.039.006.009.002h.002c.4.064.693.409.693.813v10.53c0 4.174-2.093 7.861-5.283 10.066A.824.824 0 1 1 40.632 47a10.57 10.57 0 0 0 4.571-8.711V28.45l-.156-.029a78.92 78.92 0 0 1-9.417-2.374c-2.716-.872-5.609-1.995-8.14-3.398-2.519-1.395-4.756-3.11-6.07-5.2a.824.824 0 0 1 .258-1.136Z" fill="#242343"/><path d="m37.538 53.568-.49.104a.5.5 0 0 0 .556.391l-.066-.495Zm.046 1.655-.06-.496a.5.5 0 0 0-.434.42l.494.076Zm13.964-12.124v-.5a.5.5 0 0 0-.483.37l.483.13Zm.568-15.686h-.5a.5.5 0 0 0 .5.5v-.5Zm-40.255-.001v.5a.5.5 0 0 0 .5-.5h-.5Zm1.188 15.687.014-.5h-.014v.5Zm.185-.016-.097-.49.097.49Zm.021-.005.11.488-.11-.488Zm.081-.023-.159-.474.16.474Zm.424-.325.417.276-.417-.276Zm.133-.541-.498.051v.002l.498-.053Zm-.02-.115-.488.11.002.012.486-.122Zm-.365-13.597-.478-.147a.503.503 0 0 0-.022.147h.5Zm0-.483h-.5c0 .05.008.1.022.146l.478-.146Zm38.608 1.067v-.5a.5.5 0 0 0-.5.5h.5Zm-.214 12.39-.494-.08a.5.5 0 0 0 .494.58v-.5ZM11.861 29.06h.5a.5.5 0 0 0-.5-.5v.5Zm.214 12.392v.5a.5.5 0 0 0 .493-.58l-.493.08Zm23.914 13.087-.498.04v.002l.498-.042Zm0-.118.498.032a.464.464 0 0 0 .001-.05l-.5.018Zm.001.126.5.004c0-.015 0-.03-.002-.046l-.498.042Zm-13.71-31.95-.32.383.32-.383Zm.102 1.16.383.322-.383-.322Zm-1.262-1.058.383.32-.383-.32Zm-3.802 4.533-.383-.322.383.322Zm6.71 22.07.218-.45-.218.45Zm1.1-.382-.45-.218.45.218Zm-.381-1.1.218-.45-.218.45Zm-5.974-19.76-.383-.32a.5.5 0 0 0-.117.32h.5Zm4.041-11.486.424-.267-.424.267Zm-1.136-.26-.266-.423.267.424Zm6.61 4.896-.242.437.242-.437Zm7.846 3.271.153-.476-.153.476Zm7.012 1.875-.107.488.107-.488Zm2.203.448-.092.491.092-.491Zm.603.108-.085.493.085-.493Zm.156.027-.082.493.082-.493Zm.039.006-.082.494h.001l.08-.494Zm.009.002-.08.493.08-.493Zm.002 0-.08.493.08-.493Zm-4.59 21.41-.284-.412.284.411Zm-1.146-.21.412-.284-.412.284Zm.21-1.146.284.411-.284-.411Zm4.571-18.549h.5a.5.5 0 0 0-.409-.491l-.09.491Zm-.156-.029-.092.492h.001l.09-.492Zm-2.253-.457.107-.489-.107.489Zm-7.164-1.916.153-.476-.153.476Zm-8.14-3.399.242-.437-.242.437Zm-6.07-5.2-.424.265.423-.266ZM31.987 6.147c-10.525 0-18.98 6.783-18.98 17.225h1c0-9.77 7.879-16.225 17.98-16.225v-1Zm18.98 17.225c0-10.442-8.455-17.225-18.98-17.225v1c10.102 0 17.98 6.456 17.98 16.225h1Zm0 15.41v-15.41h-1v15.41h1Zm-13.364 15.28c7.544-1.003 13.364-7.462 13.364-15.28h-1c0 7.31-5.443 13.35-12.496 14.289l.132.991Zm-4.52-3.595a4.055 4.055 0 0 1 3.965 3.204l.978-.209a5.055 5.055 0 0 0-4.942-3.995v1Zm-1.754 0h1.755v-1H31.33v1Zm-4.053 4.054a4.053 4.053 0 0 1 4.053-4.053v-1a5.053 5.053 0 0 0-5.053 5.053h1Zm4.053 4.053a4.053 4.053 0 0 1-4.053-4.053h-1a5.053 5.053 0 0 0 5.053 5.053v-1Zm1.755 0H31.33v1h1.755v-1Zm4.005-3.429a4.054 4.054 0 0 1-4.005 3.429v1a5.055 5.055 0 0 0 4.993-4.276l-.988-.153ZM51.065 42.97c-1.676 6.226-7.002 10.957-13.542 11.758l.122.992c6.949-.85 12.605-5.876 14.386-12.49l-.966-.26Zm2.238-.37h-1.755v1h1.755v-1Zm6.21-6.21a6.21 6.21 0 0 1-6.21 6.21v1a7.21 7.21 0 0 0 7.21-7.21h-1Zm0-2.267v2.267h1v-2.267h-1Zm-6.21-6.21a6.21 6.21 0 0 1 6.21 6.21h1a7.21 7.21 0 0 0-7.21-7.21v1Zm-1.187 0h1.187v-1h-1.187v1Zm-.5-4.539v4.04h1v-4.04h-1ZM31.988 5.5c10.799 0 19.628 6.994 19.628 17.873h1c0-11.554-9.409-18.873-20.628-18.873v1ZM12.361 23.373C12.36 12.494 21.189 5.5 31.988 5.5v-1c-11.219 0-20.627 7.319-20.627 18.873h1Zm0 4.039v-4.039h-1v4.039h1Zm-1.651.5h1.15v-1h-1.15v1Zm-6.21 6.21a6.21 6.21 0 0 1 6.21-6.21v-1a7.21 7.21 0 0 0-7.21 7.21h1Zm0 2.266V34.12h-1v2.267h1Zm6.21 6.21a6.21 6.21 0 0 1-6.21-6.21h-1a7.21 7.21 0 0 0 7.21 7.21v-1Zm2.34 0h-2.34v1h2.34v-1Zm.086-.006a.323.323 0 0 1-.073.007l-.028 1c.098.002.198-.006.297-.026l-.196-.98Zm.01-.001-.009.001.194.981.034-.007-.22-.975Zm.031-.01a.315.315 0 0 1-.032.01l.22.975c.045-.01.088-.022.13-.037l-.318-.948Zm.166-.127a.32.32 0 0 1-.166.127l.319.948c.287-.096.523-.285.681-.523l-.834-.552Zm.053-.212a.321.321 0 0 1-.053.212l.834.552c.165-.25.246-.555.213-.87l-.995.106Zm-.009-.046c.004.014.007.029.008.044l.995-.103a1.318 1.318 0 0 0-.032-.184l-.97.242Zm-.379-3.413c0 1.169.13 2.307.377 3.401l.975-.22a14.476 14.476 0 0 1-.352-3.18h-1Zm0-10.306v10.306h1V28.477h-1Zm.036-.242a.323.323 0 0 1-.014.095l.957.293c.037-.123.057-.254.057-.388h-1Zm-.014-.095c.01.03.014.062.014.095h1c0-.133-.02-.264-.058-.387l-.956.293Zm-.022-4.767v4.621h1v-4.621h-1Zm38.608 5.688v9.722h1v-9.722h-1Zm0 9.722c0 .881-.071 1.746-.208 2.588l.987.16c.145-.895.22-1.813.22-2.748h-1Zm.286 3.168h1.4v-1h-1.4v1Zm1.4 0a5.562 5.562 0 0 0 5.563-5.562h-1a4.562 4.562 0 0 1-4.562 4.562v1Zm5.563-5.562v-2.267h-1v2.267h1Zm0-2.267a5.562 5.562 0 0 0-5.562-5.561v1a4.562 4.562 0 0 1 4.562 4.562h1Zm-5.562-5.561h-1.187v1h1.187v-1Zm-41.442-.002H10.71v1h1.15v-1Zm.5 10.224V29.06h-1v9.724h1Zm.207 2.588a16.174 16.174 0 0 1-.207-2.588h-1c0 .935.075 1.853.22 2.748l.987-.16Zm-1.857.58h1.364v-1H10.71v1Zm-5.563-5.563a5.563 5.563 0 0 0 5.563 5.563v-1a4.563 4.563 0 0 1-4.563-4.563h-1Zm0-2.267v2.267h1V34.12h-1Zm5.562-5.562a5.562 5.562 0 0 0-5.562 5.562h1a4.562 4.562 0 0 1 4.562-4.562v-1ZM36.488 54.5a.335.335 0 0 1 0-.047l-.999-.063c-.004.062-.003.125.002.188l.997-.079Zm0 .005v-.008l-.997.084v.008l.997-.084Zm-3.403 3.423c1.87 0 3.39-1.51 3.405-3.377l-1-.008a2.406 2.406 0 0 1-2.405 2.385v1Zm-1.755 0h1.755v-1H31.33v1Zm-3.405-3.405a3.406 3.406 0 0 0 3.405 3.405v-1a2.406 2.406 0 0 1-2.405-2.405h-1Zm3.405-3.406a3.406 3.406 0 0 0-3.405 3.406h1a2.406 2.406 0 0 1 2.405-2.406v-1Zm1.755 0H31.33v1h1.755v-1Zm3.403 3.287a3.406 3.406 0 0 0-3.403-3.287v1c1.3 0 2.36 1.032 2.404 2.321l.999-.034ZM21.959 22.979c.137.115.155.319.04.456l.766.643c.47-.56.397-1.396-.163-1.865l-.643.766Zm-.456.04a.324.324 0 0 1 .456-.04l.643-.766a1.324 1.324 0 0 0-1.865.163l.766.643ZM17.7 27.552l3.802-4.533-.766-.643-3.802 4.534.766.642Zm-.076.208c0-.076.027-.15.076-.208l-.766-.642c-.2.238-.31.539-.31.85h1Zm0 10.53V27.76h-1v10.53h1Zm6.62 10.561a11.732 11.732 0 0 1-6.62-10.562h-1c0 5.045 2.935 9.402 7.185 11.462l.436-.9Zm.434-.15a.324.324 0 0 1-.433.15l-.436.9c.658.319 1.45.044 1.768-.614l-.9-.436Zm-.15-.433a.324.324 0 0 1 .15.433l.9.436a1.324 1.324 0 0 0-.614-1.769l-.437.9Zm-6.256-9.979c0 4.39 2.552 8.184 6.255 9.98l.437-.9a10.084 10.084 0 0 1-5.692-9.08h-1Zm0-10.23v10.23h1V28.06h-1Zm3.726-4.624-3.61 4.304.767.642 3.61-4.303-.767-.643Zm1.239-7.128a1.324 1.324 0 0 0-1.826-.417l.533.847a.324.324 0 0 1 .446.102l.847-.532Zm5.293 4.465c-2.387-1.323-4.26-2.821-5.293-4.465l-.847.532c1.164 1.852 3.207 3.45 5.655 4.807l.485-.874Zm7.756 3.232c-2.642-.849-5.391-1.922-7.756-3.232l-.485.874c2.442 1.354 5.259 2.45 7.935 3.31l.306-.952Zm6.966 1.862a76.763 76.763 0 0 1-6.966-1.862l-.306.952c2.675.86 5.2 1.481 7.058 1.887l.214-.977Zm2.187.445c-.52-.097-1.27-.244-2.187-.445l-.214.977c.929.203 1.69.353 2.218.451l.183-.983Zm.597.108-.597-.108-.183.983c.264.05.47.086.61.11l.17-.985Zm.153.026-.153-.026-.17.985.159.027.164-.986Zm.038.006-.039-.006-.163.986.039.006.163-.986Zm.008.001-.009-.001-.16.987.008.001.161-.987Zm.002 0h-.002l-.16.987h.002l.16-.986Zm1.113 1.307c0-.65-.472-1.204-1.114-1.307l-.159.988a.324.324 0 0 1 .273.32h1Zm0 10.53v-10.53h-1v10.53h1Zm-5.498 10.477A12.717 12.717 0 0 0 47.35 38.29h-1c0 4.003-2.006 7.54-5.067 9.655l.569.822Zm-1.842-.336c.416.602 1.24.752 1.842.336l-.569-.822a.324.324 0 0 1-.45-.082l-.823.568Zm.336-1.842a1.324 1.324 0 0 0-.336 1.842l.823-.568a.324.324 0 0 1 .082-.451l-.569-.823Zm4.356-8.3a10.07 10.07 0 0 1-4.356 8.3l.569.823a11.07 11.07 0 0 0 4.787-9.122h-1Zm0-9.837v9.838h1V28.45h-1Zm.253.463.156.029.182-.983-.156-.03-.182.984Zm-2.269-.461c.947.207 1.725.36 2.268.461l.184-.983c-.535-.1-1.302-.25-2.238-.455l-.214.977Zm-7.21-1.928a79.402 79.402 0 0 0 7.21 1.928l.214-.977a78.417 78.417 0 0 1-7.118-1.903l-.306.952Zm-8.23-3.438c2.57 1.425 5.497 2.56 8.23 3.438l.306-.952c-2.699-.867-5.558-1.979-8.051-3.36l-.485.874Zm-6.25-5.372c1.379 2.195 3.701 3.96 6.25 5.372l.485-.874c-2.488-1.379-4.64-3.043-5.89-5.03l-.846.532Zm.415-1.825a1.324 1.324 0 0 0-.416 1.825l.847-.532a.324.324 0 0 1 .102-.446l-.533-.847Z" fill="#242343"/></svg>