<svg width="48" height="48" fill="none" xmlns="http://www.w3.org/2000/svg"><circle cx="24" cy="24" r="24" fill="#E8EDF1"/><circle cx="24" cy="24" r="24" fill="url(#a)"/><path d="M23.694 20.1c-2.009 0-3.648 1.615-3.648 3.592s1.64 3.591 3.648 3.591 3.647-1.614 3.647-3.59c0-1.978-1.64-3.592-3.648-3.592Zm10.938 3.592c0-1.487.014-2.96-.071-4.445-.085-1.724-.484-3.255-1.765-4.516-1.283-1.263-2.834-1.654-4.585-1.737-1.51-.084-3.007-.07-4.515-.07-1.51 0-3.007-.014-4.514.07-1.751.083-3.305.477-4.586 1.737-1.283 1.264-1.68 2.792-1.764 4.516-.085 1.487-.071 2.96-.071 4.445 0 1.485-.014 2.96.07 4.445.085 1.725.485 3.255 1.765 4.516 1.284 1.263 2.835 1.654 4.586 1.737 1.51.084 3.007.07 4.514.07 1.51 0 3.007.014 4.515-.07 1.75-.083 3.305-.476 4.585-1.737 1.283-1.264 1.68-2.791 1.765-4.516.087-1.484.071-2.958.071-4.445Zm-10.938 5.526c-3.106 0-5.612-2.468-5.612-5.526s2.506-5.526 5.611-5.526c3.106 0 5.612 2.468 5.612 5.526s-2.506 5.526-5.611 5.526Zm5.84-9.987a1.3 1.3 0 0 1-1.31-1.29 1.3 1.3 0 0 1 1.31-1.291c.726 0 1.311.576 1.311 1.29a1.271 1.271 0 0 1-.383.913 1.31 1.31 0 0 1-.927.378Z" fill="#fff"/><defs><linearGradient id="a" x1="7.033" y1="40.967" x2="40.967" y2="7.033" gradientUnits="userSpaceOnUse"><stop stop-color="#FAAD4F"/><stop offset=".35" stop-color="#DD2A7B"/><stop offset=".62" stop-color="#9537B0"/><stop offset="1" stop-color="#515BD4"/></linearGradient></defs></svg>