<svg width="150" height="53" fill="none" xmlns="http://www.w3.org/2000/svg"><path d="M115.295 28.405a9.879 9.879 0 0 0 2.774 3.135c1.723 1.246 3.659 1.903 5.791 1.907 5.279.01 10.558 0 15.835.006.692.002 1.383-.066 2.062-.202 2.41-.489 4.376-1.7 5.876-3.647 1.519-1.968 2.203-4.236 2.341-6.686.04-.826.004-1.654-.11-2.472a12.05 12.05 0 0 0-1.341-4.207 9.57 9.57 0 0 0-2.889-3.297 9.742 9.742 0 0 0-5.679-1.834c-2.694-.022-5.391-.006-8.085-.006h-7.614c-.469 0-.938.028-1.404.065a9.528 9.528 0 0 0-3.49.992c-1.883.937-3.286 2.371-4.263 4.22-.896 1.7-1.275 3.535-1.367 5.437-.031.792.016 1.585.14 2.368.2 1.485.683 2.918 1.423 4.221Zm8.129-6.705c.053-1.244.067-2.495.324-3.723.133-.648.304-1.283.619-1.868.551-1.036 1.418-1.653 2.572-1.829a11.635 11.635 0 0 1 1.7-.13c2.156-.014 4.315-.01 6.472 0a6.905 6.905 0 0 1 1.692.203c.502.115.974.337 1.384.65.57.45.933 1.042 1.175 1.715.198.593.334 1.204.405 1.824.211 1.542.228 3.092.182 4.64-.04 1.35-.174 2.692-.607 3.984-.275.81-.662 1.558-1.309 2.151a3.672 3.672 0 0 1-2.062.955c-.432.05-.866.076-1.301.075-1.013.01-2.034 0-3.053 0v-.008c-1.261 0-2.526.014-3.79 0a3.763 3.763 0 0 1-3.264-1.947c-.481-.836-.728-1.747-.884-2.687a15.515 15.515 0 0 1-.219-2.527c.001-.499-.059-.989-.036-1.478ZM46.99 33.449h23.992a6.223 6.223 0 0 0 2.479-.491c1.341-.576 2.283-1.541 2.783-2.92.251-.718.36-1.478.318-2.238a5.097 5.097 0 0 0-.758-2.533c-.694-1.114-1.697-1.87-2.862-2.4-1.432-.653-2.897-1.234-4.356-1.841-1.35-.564-2.704-1.115-4.052-1.68l-5.97-2.485c-.64-.267-1.28-.53-1.912-.81a1.835 1.835 0 0 1-.514-.363c-.422-.405-.26-1.288.399-1.457.227-.054.46-.08.695-.078 5.558-.004 11.117-.004 16.676 0H75.453c.446-.013.684-.232.696-.684.015-.558.006-1.114 0-1.674a1.028 1.028 0 0 0-.05-.263.562.562 0 0 0-.507-.419 2.624 2.624 0 0 0-.335-.007H52.204c-.95 0-1.872.112-2.748.49-1.232.532-2.151 1.39-2.666 2.643a5.74 5.74 0 0 0-.4 2.916c.069.61.242 1.204.514 1.755.623 1.245 1.653 2.065 2.87 2.662.792.388 1.614.709 2.432 1.053a291008.83 291008.83 0 0 0 12.152 5.065c.639.268 1.277.537 1.91.82.17.082.327.19.466.317.295.259.336.586.222.948-.113.361-.4.522-.755.564-.19.015-.38.02-.569.013H47.11a2.842 2.842 0 0 0-.5.038.578.578 0 0 0-.489.488c-.024.12-.038.241-.04.363v1.307c-.004.718.181.901.91.901ZM79.412 25.922c.597 2.056 1.653 3.823 3.307 5.208 1.787 1.495 3.85 2.288 6.18 2.309 3.612.031 7.225.008 10.84.008h10.971c.135 0 .27 0 .405-.005.32-.026.537-.217.544-.53.017-.658.012-1.317 0-1.976a.522.522 0 0 0-.433-.53 2.5 2.5 0 0 0-.563-.06c-5.132 0-10.265-.002-15.398-.006a9.17 9.17 0 0 1-1.302-.08 3.728 3.728 0 0 1-2.634-1.62c-.434-.625-.682-1.328-.874-2.053-.356-1.348-.405-2.736-.458-4.111-.02-.49.04-.981.04-1.471.006-.826.08-1.65.222-2.462.144-.84.373-1.652.79-2.405a3.596 3.596 0 0 1 2.317-1.792c.62-.15 1.256-.221 1.893-.209h15.368c.123 0 .247.006.369-.005.376-.032.596-.257.602-.63.008-.591.008-1.184 0-1.776 0-.374-.227-.6-.599-.633-.089-.008-.18 0-.269 0H89.289c-1.027-.006-2.05.13-3.04.405a9.457 9.457 0 0 0-3.94 2.207 10.151 10.151 0 0 0-2.696 4.22 13.056 13.056 0 0 0-.67 5.269c.061.923.219 1.837.47 2.728Z" fill="#242343"/><path d="M145.425 36.441c-.765.203-1.526.422-2.293.62l-2.3.593c-.767.203-1.536.384-2.307.568l-2.31.555-2.319.516c-.773.172-1.544.35-2.321.507a238 238 0 0 1-18.718 3.15 235.63 235.63 0 0 1-37.834 1.735c-6.309-.247-12.6-.725-18.87-1.434a238.675 238.675 0 0 1-18.674-2.968A234.93 234.93 0 0 1 5.33 31.45l1.17-1.098c.42-.452.789-.852 1.164-1.25.702-.748 1.407-1.496 2.114-2.243 1.127-1.195 2.254-2.39 3.383-3.581.99-1.047 1.985-2.088 2.976-3.135.446-.47.874-.957 1.325-1.418.31-.32.647-.615 1.053-.994.053.092.112.18.178.264.42.464.843.926 1.268 1.384l2.714 2.92c.838.898 1.67 1.8 2.509 2.699 1.083 1.16 2.169 2.315 3.252 3.474.303.326.608.653.911.981 1.056 1.14 2.11 2.278 3.163 3.418a1.752 1.752 0 0 0 1.366.59c3.444-.006 6.889-.006 10.333 0 .09.004.179 0 .267-.012.34-.058.494-.34.342-.645a1.867 1.867 0 0 0-.311-.433 176.146 176.146 0 0 0-1.834-1.955 2216.084 2216.084 0 0 0-3.688-3.892c-.761-.802-1.52-1.607-2.28-2.408l-3.574-3.772-2.33-2.457a2568.476 2568.476 0 0 0-3.735-3.938c-.692-.728-1.378-1.464-2.072-2.19-.399-.42-.858-.699-1.476-.66-.479.03-.962.018-1.442 0a1.436 1.436 0 0 0-.888.247c-.183.126-.352.27-.506.43-.822.852-1.635 1.713-2.454 2.569a1016.644 1016.644 0 0 1-3.175 3.306l-2.804 2.929a1515.51 1515.51 0 0 1-3.084 3.218l-2.896 3.026c-.973 1.013-1.946 2.029-2.92 3.049l-.619.641-.426.442-.014.014-.035.037-.194.202-1.115 1.15c-.074.072-.14.153-.194.241l-.733.779-.018.02c.05.017.101.036.152.052 12 4.148 24.313 7.332 36.82 9.523a244.217 244.217 0 0 0 18.944 2.547c6.344.571 12.7.9 19.067.987 12.719.138 25.428-.75 38.005-2.654a237.61 237.61 0 0 0 18.689-3.608c.775-.174 1.542-.37 2.313-.56l2.308-.573 2.3-.608c.765-.203 1.532-.405 2.295-.625l2.286-.644c.763-.22 1.52-.453 2.28-.676 1.52-.445 3.027-.938 4.541-1.408-1.526.427-3.043.884-4.575 1.29Z" fill="#242343"/></svg>