<svg width="236" height="81" fill="none" xmlns="http://www.w3.org/2000/svg"><path d="M181.397 43.408a15.573 15.573 0 0 0 4.366 4.932c2.709 1.96 5.755 2.995 9.111 3.001 8.305.016 16.611 0 24.914.01a16.262 16.262 0 0 0 3.243-.32c3.792-.767 6.886-2.674 9.245-5.737 2.39-3.095 3.466-6.664 3.683-10.52a20.9 20.9 0 0 0-.172-3.889 18.96 18.96 0 0 0-2.11-6.618 15.053 15.053 0 0 0-4.546-5.188 15.326 15.326 0 0 0-8.935-2.885c-4.239-.035-8.481-.01-12.72-.01h-11.979c-.738 0-1.476.045-2.209.103a14.985 14.985 0 0 0-5.491 1.56c-2.963 1.474-5.171 3.731-6.707 6.64-1.411 2.675-2.007 5.561-2.151 8.555a19.112 19.112 0 0 0 .22 3.725 18.464 18.464 0 0 0 2.238 6.641Zm12.791-10.55c.083-1.957.105-3.925.509-5.857.21-1.019.478-2.018.973-2.94.868-1.628 2.232-2.599 4.047-2.876.886-.134 1.78-.202 2.675-.204 3.393-.023 6.79-.016 10.183 0 .897-.004 1.791.103 2.662.318.79.182 1.533.53 2.177 1.022.898.71 1.468 1.64 1.849 2.7.312.932.525 1.893.638 2.87.331 2.425.358 4.864.287 7.3-.064 2.122-.275 4.234-.957 6.268-.432 1.275-1.041 2.451-2.059 3.384a5.776 5.776 0 0 1-3.244 1.503c-.679.079-1.362.118-2.046.118-1.594.016-3.201 0-4.804 0v-.013c-1.984 0-3.974.022-5.963 0a6.075 6.075 0 0 1-2.913-.797 5.91 5.91 0 0 1-2.222-2.266c-.757-1.315-1.146-2.748-1.392-4.227a24.425 24.425 0 0 1-.344-3.977c.002-.784-.093-1.556-.056-2.326ZM73.932 51.343H111.678a9.79 9.79 0 0 0 3.9-.773c2.111-.905 3.593-2.424 4.379-4.593a9.16 9.16 0 0 0 .5-3.521 8.018 8.018 0 0 0-1.192-3.985c-1.092-1.753-2.67-2.944-4.503-3.777-2.253-1.027-4.558-1.942-6.853-2.896-2.123-.887-4.254-1.754-6.376-2.643l-9.393-3.91c-1.005-.42-2.014-.834-3.007-1.275a2.891 2.891 0 0 1-.81-.57c-.663-.638-.41-2.026.628-2.293a4.493 4.493 0 0 1 1.093-.122c8.746-.007 17.491-.007 26.237 0h2.431c.703-.021 1.077-.365 1.095-1.076.024-.878.01-1.753 0-2.635a1.613 1.613 0 0 0-.078-.413.887.887 0 0 0-.797-.66 4.152 4.152 0 0 0-.528-.01H82.134c-1.493 0-2.945.176-4.323.77-1.938.838-3.385 2.188-4.195 4.16a9.032 9.032 0 0 0-.628 4.586c.107.96.38 1.895.807 2.761.982 1.959 2.601 3.25 4.517 4.189 1.245.61 2.539 1.115 3.825 1.657 3.566 1.495 7.134 2.983 10.703 4.463l8.416 3.507c1.006.42 2.01.843 3.004 1.29.268.129.516.297.735.498.464.406.528.921.349 1.49-.178.57-.628.823-1.187.888a7.632 7.632 0 0 1-.896.02H74.12a4.458 4.458 0 0 0-.786.061.91.91 0 0 0-.77.767c-.039.188-.06.38-.062.572v2.056c-.008 1.129.284 1.417 1.43 1.417ZM124.942 39.501c.939 3.236 2.6 6.015 5.202 8.194 2.812 2.353 6.057 3.6 9.723 3.633 5.684.049 11.368.012 17.055.012h17.261c.212 0 .424 0 .638-.008.504-.041.845-.34.856-.833a73.268 73.268 0 0 0 0-3.11.83.83 0 0 0-.682-.832 3.933 3.933 0 0 0-.885-.096c-8.076 0-16.151-.003-24.227-.01a14.398 14.398 0 0 1-2.048-.123 5.864 5.864 0 0 1-4.144-2.55c-.684-.984-1.073-2.09-1.376-3.231-.559-2.12-.637-4.304-.72-6.468-.03-.77.062-1.543.064-2.315.009-1.298.126-2.594.349-3.873.226-1.321.586-2.6 1.243-3.784a5.658 5.658 0 0 1 3.645-2.82 11.677 11.677 0 0 1 2.977-.328h24.18c.193 0 .389.01.58-.008.591-.05.939-.404.947-.99.012-.931.012-1.863 0-2.795 0-.588-.357-.944-.942-.996-.141-.013-.282 0-.423 0h-33.734a17.505 17.505 0 0 0-4.782.637 14.887 14.887 0 0 0-6.199 3.473 15.97 15.97 0 0 0-4.242 6.64 20.552 20.552 0 0 0-1.056 8.289c.098 1.452.346 2.89.74 4.292Z" fill="#fff"/><path d="M228.802 56.052c-1.203.318-2.4.663-3.607.975l-3.62.932c-1.206.32-2.416.605-3.629.895l-3.634.871-3.648.813c-1.217.27-2.429.55-3.652.797a374.575 374.575 0 0 1-29.45 4.957 370.74 370.74 0 0 1-59.525 2.73 405.888 405.888 0 0 1-29.69-2.256 375.454 375.454 0 0 1-29.38-4.67A369.604 369.604 0 0 1 8.385 48.197l1.84-1.728c.66-.71 1.241-1.34 1.831-1.965 1.105-1.178 2.214-2.355 3.327-3.53a3356.45 3356.45 0 0 1 5.322-5.635c1.557-1.646 3.124-3.285 4.682-4.931.702-.742 1.376-1.507 2.085-2.232.488-.503 1.017-.967 1.656-1.563.083.144.177.283.28.414.662.731 1.327 1.457 1.996 2.177 1.421 1.531 2.844 3.063 4.27 4.594 1.319 1.414 2.629 2.834 3.947 4.247 1.704 1.827 3.412 3.642 5.116 5.466l1.435 1.544c1.66 1.792 3.32 3.584 4.976 5.377a2.756 2.756 0 0 0 2.148.929c5.42-.01 10.839-.01 16.258 0 .14.006.281 0 .42-.02.535-.09.777-.533.538-1.015a2.936 2.936 0 0 0-.49-.68 276.356 276.356 0 0 0-2.884-3.076 3522.34 3522.34 0 0 0-5.804-6.124c-1.197-1.26-2.39-2.528-3.588-3.789l-5.621-5.934-3.666-3.865c-1.955-2.066-3.914-4.13-5.877-6.195-1.088-1.146-2.168-2.305-3.26-3.448-.627-.658-1.35-1.098-2.322-1.038-.754.048-1.514.03-2.27 0a2.26 2.26 0 0 0-1.395.39 5.243 5.243 0 0 0-.797.677c-1.293 1.34-2.573 2.693-3.86 4.04a1604.326 1604.326 0 0 1-4.996 5.203 5773.057 5773.057 0 0 0-4.412 4.608c-1.614 1.69-3.231 3.377-4.852 5.063l-4.557 4.76c-1.53 1.594-3.061 3.193-4.593 4.797l-.974 1.01-.671.694-.022.023-.055.057-.306.319c-.581.602-1.165 1.203-1.753 1.809-.116.114-.22.241-.306.379L.03 51.232l-.029.03a375.809 375.809 0 0 0 58.169 15.065 384.138 384.138 0 0 0 29.805 4.007 394.45 394.45 0 0 0 29.999 1.554 372.629 372.629 0 0 0 59.794-4.175 373.694 373.694 0 0 0 29.404-5.678c1.22-.272 2.426-.582 3.639-.881l3.633-.9 3.618-.957c1.203-.319 2.41-.638 3.61-.984l3.597-1.013c1.201-.346 2.391-.713 3.588-1.063 2.391-.7 4.763-1.476 7.144-2.216-2.4.673-4.788 1.392-7.198 2.03Z" fill="#fff"/></svg>