<svg width="146" height="42" fill="none" xmlns="http://www.w3.org/2000/svg"><path d="M42.448 28.45V14.628h4.605v9.992h9.961v3.834l-14.566-.004ZM75.33 14.628v7.785c0 1.627-.322 2.92-.964 3.882-.642.962-1.561 1.643-2.758 2.044-1.196.4-2.691.6-4.485.6-1.794 0-3.29-.2-4.485-.6-1.196-.4-2.116-1.078-2.759-2.034-.642-.955-.964-2.253-.964-3.892v-7.785h4.606v7.65c0 .993.31 1.709.928 2.148.62.44 1.512.66 2.677.66 1.155 0 2.045-.22 2.67-.66.625-.439.936-1.155.934-2.149v-7.65h4.6ZM98.019 28.45h-4.606v-9.411h-.108l-3.644 9.41h-3.473l-3.695-9.527h-.126v9.528h-4.355V14.628h7.069l2.803 7.765h.124l2.75-7.765h7.265L98.02 28.45ZM100.695 28.45V14.628h4.606v13.826l-4.606-.004ZM123.768 16.006c1.553 1.213 2.33 3.072 2.33 5.578 0 2.505-.777 4.364-2.33 5.576-1.553 1.212-3.857 1.818-6.914 1.818-3.047 0-5.347-.606-6.9-1.818-1.552-1.212-2.329-3.07-2.332-5.576 0-2.505.777-4.364 2.33-5.578 1.552-1.213 3.852-1.82 6.899-1.818 3.059-.001 5.364.605 6.917 1.818Zm-3.775 8.28c.701-.628 1.052-1.528 1.053-2.703 0-1.174-.351-2.075-1.053-2.701-.702-.626-1.749-.94-3.142-.94-1.393 0-2.437.314-3.133.94-.696.626-1.045 1.527-1.045 2.701 0 1.175.349 2.076 1.045 2.702.697.626 1.741.94 3.133.94s2.44-.314 3.142-.94ZM138.317 17.653c-.506-.242-1.235-.363-2.187-.363-.976 0-1.672.1-2.089.3-.416.2-.625.493-.625.88a.712.712 0 0 0 .087.392.74.74 0 0 0 .287.287c.249.142.677.245 1.285.31l5.194.464c1.572.142 2.753.549 3.544 1.22.791.672 1.187 1.685 1.187 3.04 0 1.279-.318 2.266-.955 2.963-.637.697-1.571 1.178-2.803 1.443-1.233.265-2.86.397-4.882.397-1.941 0-3.513-.142-4.714-.426-1.201-.284-2.126-.794-2.776-1.53-.648-.735-.996-1.774-1.043-3.118h5.361c.131.736.461 1.243.991 1.52.529.278 1.318.417 2.366.417 1.07 0 1.841-.107 2.311-.32.471-.213.705-.546.705-1 0-.374-.137-.647-.41-.818-.274-.17-.684-.28-1.232-.329l-4.999-.523c-1.583-.167-2.773-.56-3.569-1.181-.797-.621-1.196-1.609-1.196-2.964 0-1.151.318-2.058.955-2.72.636-.663 1.547-1.131 2.731-1.405 1.183-.27 2.668-.406 4.453-.406 1.774 0 3.249.138 4.427.416 1.178.277 2.098.758 2.759 1.443.661.684 1.009 1.62 1.043 2.808h-5.301a1.54 1.54 0 0 0-.296-.71 1.586 1.586 0 0 0-.609-.487Z" fill="#fff"/><mask id="a" maskUnits="userSpaceOnUse" x="-.802" y="5.992" width="37" height="32" fill="#000"><path fill="#fff" d="M-.802 5.992h37v32h-37z"/><path fill-rule="evenodd" clip-rule="evenodd" d="M19.833 32.99a13.92 13.92 0 0 1-3.457-.002c-.27 1.48-1.047 2.574-2.155 2.946-.922.311-1.804.032-1.9 0h-.003c-2.076-.695-2.667-3.689-2.82-5.882a13.235 13.235 0 0 1-2.772-3.1c-.06.25-.106.476-.149.683-.175.853-.283 1.38-.923 1.768-.954.58-2.155.289-2.219.272-1.23-.316-1.769-1.37-1.902-1.636-1.308-2.565 1.624-5.7 1.902-5.992a8.925 8.925 0 0 1 1.29-1.109 12.89 12.89 0 0 1-.03-.894c0-7.208 6.006-13.052 13.416-13.052s13.416 5.844 13.416 13.052c0 .306-.011.61-.032.91.417.298.848.656 1.265 1.093.292.292 3.225 3.427 1.915 5.992-.133.265-.672 1.318-1.902 1.636-.063.017-1.265.308-2.219-.272-.636-.388-.744-.913-.92-1.762-.041-.206-.088-.43-.146-.676a13.236 13.236 0 0 1-2.779 3.098c-.154 2.193-.746 5.177-2.819 5.871h-.002c-.097.032-.978.311-1.9 0-1.108-.372-1.886-1.466-2.155-2.945Z"/></mask><path fill-rule="evenodd" clip-rule="evenodd" d="M19.833 32.99a13.92 13.92 0 0 1-3.457-.002c-.27 1.48-1.047 2.574-2.155 2.946-.922.311-1.804.032-1.9 0h-.003c-2.076-.695-2.667-3.689-2.82-5.882a13.235 13.235 0 0 1-2.772-3.1c-.06.25-.106.476-.149.683-.175.853-.283 1.38-.923 1.768-.954.58-2.155.289-2.219.272-1.23-.316-1.769-1.37-1.902-1.636-1.308-2.565 1.624-5.7 1.902-5.992a8.925 8.925 0 0 1 1.29-1.109 12.89 12.89 0 0 1-.03-.894c0-7.208 6.006-13.052 13.416-13.052s13.416 5.844 13.416 13.052c0 .306-.011.61-.032.91.417.298.848.656 1.265 1.093.292.292 3.225 3.427 1.915 5.992-.133.265-.672 1.318-1.902 1.636-.063.017-1.265.308-2.219-.272-.636-.388-.744-.913-.92-1.762-.041-.206-.088-.43-.146-.676a13.236 13.236 0 0 1-2.779 3.098c-.154 2.193-.746 5.177-2.819 5.871h-.002c-.097.032-.978.311-1.9 0-1.108-.372-1.886-1.466-2.155-2.945Z" fill="#242343"/><path d="m19.833 32.99.984-.18-.17-.93-.938.117.124.992Zm-3.457-.002.124-.992-.939-.118-.17.931.985.179Zm-2.155 2.946-.319-.948h-.001l.32.948Zm-1.9 0 .302-.952-.303.953Zm-.003 0-.317.948.008.003.007.002.302-.953Zm-2.82-5.882.998-.07-.03-.432-.336-.273-.632.775Zm-2.772-3.1.841-.54-1.27-1.977-.544 2.286.973.232Zm-.149.683-.979-.2.98.2Zm-.923 1.768-.519-.855.52.855Zm-2.219.272.25-.968-.25.968ZM1.533 28.04l.894-.448-.003-.006-.891.454Zm1.902-5.992-.722-.692-.001.001.723.69Zm1.29-1.109.578.817.46-.325-.04-.561-.997.07Zm26.77.017-.998-.071-.04.559.457.325.58-.814Zm1.265 1.092-.722.691.007.008.008.008.707-.707Zm1.915 5.992-.89-.455-.004.007.894.448Zm-1.902 1.636.25.969-.25-.969Zm-2.219-.272-.52.854.52-.854Zm-.92-1.762.98-.202-.98.202Zm-.146-.676.972-.232-.543-2.282-1.27 1.972.84.542Zm-2.779 3.098-.63-.776-.337.274-.03.432.997.07Zm-2.819 5.871.302.953.008-.002.008-.003-.318-.948Zm-.002 0-.302-.953.302.954Zm-1.9 0 .32-.947h-.002l-.318.947Zm-3.877-1.838c.625 0 1.241-.039 1.846-.114l-.248-1.985c-.523.065-1.056.099-1.598.099v2Zm-1.86-.116c.61.077 1.23.116 1.86.116v-2a12.91 12.91 0 0 1-1.61-.1l-.25 1.984Zm-.86-1.171c-.228 1.26-.842 1.96-1.489 2.177l.637 1.896c1.57-.527 2.512-2.017 2.82-3.715l-1.967-.358Zm-1.49 2.178c-.6.202-1.214.015-1.278-.005l-.605 1.906c.13.041 1.278.414 2.523-.006l-.64-1.895Zm-1.278-.006h-.002l-.605 1.906.002.001.604-1.907Zm.013.005c-.626-.21-1.135-.8-1.516-1.79-.374-.975-.55-2.158-.624-3.214l-1.995.14c.079 1.138.275 2.548.753 3.791.472 1.23 1.296 2.484 2.747 2.97l.635-1.897Zm-6.751-7.493a14.233 14.233 0 0 0 2.981 3.334l1.264-1.55a12.234 12.234 0 0 1-2.563-2.865l-1.682 1.081Zm-.132-.772c-.063.266-.113.507-.155.713l1.959.403c.043-.209.087-.421.142-.653l-1.946-.463Zm-.155.713c-.095.46-.146.684-.22.849a.527.527 0 0 1-.243.265l1.039 1.71c1.061-.645 1.22-1.627 1.383-2.421l-1.959-.403Zm-.463 1.114c-.26.158-.591.216-.919.215-.32-.002-.55-.06-.531-.056l-.5 1.937c.083.021.485.116 1.02.119.528.002 1.274-.084 1.969-.506l-1.04-1.709Zm-1.45.159c-.769-.198-1.136-.872-1.258-1.116l-1.788.896c.144.289.856 1.722 2.547 2.157l.498-1.937Zm-1.261-1.122c-.426-.835-.21-1.87.349-2.927a9.35 9.35 0 0 1 1.386-1.92l-1.447-1.382a11.342 11.342 0 0 0-1.707 2.366C.356 24.948-.24 26.763.642 28.493l1.782-.908Zm1.733-4.846a7.93 7.93 0 0 1 1.146-.985l-1.155-1.632c-.47.333-.96.737-1.435 1.233l1.444 1.384Zm-.462-2.695c0 .324.01.645.033.964l1.995-.139a11.894 11.894 0 0 1-.028-.825h-2ZM18.11 5.992c-7.936 0-14.416 6.266-14.416 14.052h2c0-6.63 5.532-12.052 12.416-12.052v-2Zm14.416 14.052c0-7.786-6.48-14.052-14.416-14.052v2c6.883 0 12.416 5.422 12.416 12.052h2Zm-.035.981c.023-.324.035-.651.035-.98h-2c0 .281-.01.561-.03.839l1.995.141Zm-1.578.743c.373.267.755.585 1.124.97l1.445-1.383a9.909 9.909 0 0 0-1.407-1.215l-1.162 1.628Zm1.139.986c.108.108.84.885 1.382 1.905.56 1.056.776 2.09.35 2.925l1.78.91c.884-1.73.288-3.546-.364-4.773a11.013 11.013 0 0 0-1.733-2.381l-1.415 1.414Zm1.728 4.837c-.121.242-.489.917-1.258 1.116l.5 1.936c1.69-.437 2.402-1.869 2.546-2.155l-1.788-.897Zm-1.257 1.116c.02-.005-.212.054-.532.056-.327.001-.659-.057-.918-.215l-1.04 1.71c.695.421 1.441.508 1.969.505a4.455 4.455 0 0 0 1.02-.12l-.499-1.936Zm-1.45-.158a.525.525 0 0 1-.24-.264c-.074-.165-.125-.388-.22-.846l-1.959.404c.163.79.322 1.77 1.379 2.413l1.04-1.707Zm-.46-1.11a22.807 22.807 0 0 0-.154-.706l-1.945.463c.054.23.098.44.14.647l1.96-.404Zm-3.274 3.4a14.236 14.236 0 0 0 2.988-3.333l-1.681-1.083a12.233 12.233 0 0 1-2.569 2.864l1.262 1.552Zm-1.628-.846c-.074 1.055-.251 2.236-.626 3.208-.38.987-.889 1.576-1.513 1.785l.635 1.896c1.448-.485 2.272-1.735 2.744-2.962.479-1.241.675-2.649.755-3.787l-1.995-.14Zm-2.124 4.988h-.002l.604 1.907h.002l-.604-1.907Zm-.003 0c-.064.02-.678.208-1.277.006l-.64 1.895c1.244.42 2.393.047 2.523.006l-.606-1.906Zm-1.279.005c-.646-.217-1.26-.916-1.489-2.176l-1.968.358c.31 1.698 1.252 3.187 2.82 3.714l.637-1.896Z" fill="#fff" mask="url(#a)"/><path d="M18.11 26.907c4.936 0 8.937-3.073 8.937-6.863 0-3.79-4.001-6.863-8.936-6.863s-8.936 3.072-8.936 6.863c0 3.79 4 6.863 8.936 6.863Z" fill="#fff"/><path d="M14.283 21.783c1.068 0 1.933-1.126 1.933-2.516 0-1.39-.865-2.516-1.933-2.516s-1.933 1.127-1.933 2.516c0 1.39.865 2.516 1.933 2.516ZM21.612 21.783c1.068 0 1.933-1.126 1.933-2.516 0-1.39-.865-2.516-1.933-2.516s-1.933 1.127-1.933 2.516c0 1.39.865 2.516 1.933 2.516Z" fill="#242343"/></svg>