<svg width="70" height="70" fill="none" xmlns="http://www.w3.org/2000/svg"><circle cx="35" cy="35" r="35" fill="#323750"/><path d="M44.886 18H24.244A2.244 2.244 0 0 0 22 20.244v29.512A2.244 2.244 0 0 0 24.244 52h20.642a2.244 2.244 0 0 0 2.244-2.244V20.244A2.244 2.244 0 0 0 44.886 18ZM25.563 43.397v-3.192c0-.256.207-.462.462-.462h3.193c.255 0 .461.206.461.462v3.192a.462.462 0 0 1-.461.462h-3.193a.462.462 0 0 1-.462-.462Zm0-6.43v-3.193c0-.255.207-.462.462-.462h3.193c.255 0 .461.207.461.462v3.193a.462.462 0 0 1-.461.462h-3.193a.462.462 0 0 1-.462-.462Zm14.833 12.15H28.734a1.478 1.478 0 0 1 0-2.956h11.662a1.478 1.478 0 1 1 0 2.956Zm-7.427-9.374h3.193c.255 0 .461.206.461.461v3.193a.462.462 0 0 1-.461.462h-3.193a.462.462 0 0 1-.462-.462v-3.193c0-.255.207-.461.462-.461Zm-.462-2.776v-3.193c0-.255.207-.462.462-.462h3.193c.255 0 .461.207.461.462v3.193a.462.462 0 0 1-.461.462h-3.193a.462.462 0 0 1-.462-.462Zm10.599 6.892h-3.193a.462.462 0 0 1-.462-.462v-3.192c0-.256.207-.462.462-.462h3.193c.255 0 .462.206.462.462v3.192a.462.462 0 0 1-.462.462Zm0-6.43h-3.193a.462.462 0 0 1-.462-.462v-3.193c0-.255.207-.462.462-.462h3.193c.255 0 .462.207.462.462v3.193a.462.462 0 0 1-.462.462Zm.624-8.369c0 .872-.706 1.58-1.579 1.58H26.98c-.872 0-1.579-.708-1.579-1.58v-6.45a1.58 1.58 0 0 1 1.58-1.58H42.15c.872 0 1.58.707 1.58 1.58v6.45Z" fill="#fff"/></svg>