<svg width="70" height="70" fill="none" xmlns="http://www.w3.org/2000/svg"><circle cx="35" cy="35" r="35" fill="#323750"/><path d="m32.277 39.878 11.007-11.005a1.459 1.459 0 0 1 2.06 2.066l-13.067 8.94Zm0 0-4.555-4.555a1.46 1.46 0 0 0-2.066 2.066l4.734 4.732a2.667 2.667 0 0 0 3.771 0l11.182-11.182-13.066 8.94ZM21.25 27.042a5.799 5.799 0 0 1 5.792-5.792h16.916a5.799 5.799 0 0 1 5.792 5.792v16.916a5.799 5.799 0 0 1-5.792 5.792H27.042a5.799 5.799 0 0 1-5.792-5.792V27.042Z" fill="#fff" stroke="#323750" stroke-width=".5"/></svg>