<svg width="70" height="70" fill="none" xmlns="http://www.w3.org/2000/svg"><circle cx="35" cy="35" r="35" fill="#323750"/><path d="M24.08 30.743a16.785 16.785 0 0 1 7.51-1.6 16.783 16.783 0 0 1 7.508 1.6c1.055-.687 1.652-1.493 1.652-2.279 0-1.968-3.681-4.071-9.16-4.071-5.48 0-9.162 2.103-9.162 4.071 0 .786.597 1.592 1.653 2.279Zm30.241 7.9h-6.107v1.392c1.346-.028 2.715 1.307 2.715 3.697a4.33 4.33 0 0 1-1.137 3.046c-.42.422-.983.67-1.578.695v1.348h6.107a.679.679 0 0 0 .679-.678V39.32a.679.679 0 0 0-.679-.678Zm-.678 6.107a.678.678 0 1 1-1.357 0v-2.036a.678.678 0 1 1 1.357 0v2.036Z" fill="#fff"/><path d="M31.59 37.286c8.044 0 14.589-3.653 14.589-8.143S39.634 21 31.589 21C23.545 21 17 24.653 17 29.143s6.545 8.143 14.59 8.143Zm0-14.25c5.897 0 10.517 2.384 10.517 5.428 0 1.39-.97 2.638-2.578 3.589a.668.668 0 0 1-.16.09 16.218 16.218 0 0 1-7.78 1.75 16.126 16.126 0 0 1-7.853-1.79.654.654 0 0 1-.102-.059c-1.598-.949-2.563-2.195-2.563-3.58 0-3.044 4.62-5.428 10.518-5.428Z" fill="#fff"/><path d="M48.839 45.813c.498-.576.76-1.32.732-2.08 0-1.451-.704-2.362-1.357-2.376a1.345 1.345 0 0 1-1.357-1.324v-1.39H31.59c-6.506 0-12.112-2.335-14.589-5.672v7.708c0 1.738 1.018 3.355 2.714 4.686v-2.65a.679.679 0 1 1 1.357 0v3.573c.654.378 1.335.708 2.036.988v-1.169a.679.679 0 0 1 1.357 0v1.66a22 22 0 0 0 2.036.524v-2.862a.679.679 0 0 1 1.357 0v3.105c.9.134 1.805.218 2.714.253v-1.323a.678.678 0 1 1 1.358 0v1.351h2.714v-2.708a.678.678 0 1 1 1.357 0v2.709h2.714v-1.352a.679.679 0 1 1 1.357 0v1.353h2.715v-2.71a.679.679 0 0 1 1.357 0v2.714h2.714v-1.416a1.259 1.259 0 0 1 .375-.9c.267-.248.617-.387.982-.389.241-.01.467-.12.625-.303Zm-2.66-8.527V32.97a13.582 13.582 0 0 1-6.386 4.315h6.386Z" fill="#fff"/></svg>