<svg width="200" height="22" fill="none" xmlns="http://www.w3.org/2000/svg"><path d="M124.568.508c.406 0 .745.272.813.644l.879 4.034h-13.231a.838.838 0 0 0-.846.847v2.814h12.825v4.1h-12.825v2.814c0 .474.372.847.846.847h13.231l-.879 4.034c-.068.373-.407.644-.813.644H104.67a3.411 3.411 0 0 1-3.418-3.424V3.933A3.411 3.411 0 0 1 104.67.508h19.898ZM65.923.508c.406 0 .744.272.812.644l.88 4.034H54.383a.838.838 0 0 0-.846.847v2.814h12.826v4.1H53.537v2.814c0 .474.372.847.846.847h13.232l-.88 4.034c-.068.373-.406.644-.812.644H46.024a3.411 3.411 0 0 1-3.418-3.424V3.933A3.411 3.411 0 0 1 46.024.508h19.899ZM181.252 5.05l-3.385 7.965h6.972l-3.587-7.965ZM178.95.508h10.829c.373 0 .643.238.779.543l9.441 20.37h-11.37l-1.929-4.27h-10.592l-1.828 4.27h-4.873l8.697-20.37c.17-.305.474-.543.846-.543ZM39.019.508H28.088v20.88h10.93V.508ZM24.67 1.119l-.61 4.304a48.966 48.966 0 0 0-8.358-.712c-4.771 0-5.888.441-5.888 2 0 1.05.846 1.56 2.267 1.695l6.565.576c3.824.339 6.938 2.102 6.938 6.101 0 3.83-3.046 5.728-4.907 6.169-1.59.373-4.23.678-8.291.678-4.298 0-8.731-.407-12.048-1.119l.61-4.304c2.538.44 5.922.711 8.934.711 4.467 0 6.26-.237 6.26-2.169 0-1.152-1.015-1.593-2.369-1.694l-7.14-.645C2.843 12.371 0 10.203 0 6.745 0 1.796 4.162 0 13.029 0c4.298 0 8.29.407 11.641 1.119ZM98.004 8.914v11.592c-3.52.78-8.46 1.424-13.57 1.424-13.029 0-14.992-4.983-14.992-10.982C69.442 6.168 71.304 0 84.434 0c4.298 0 8.73.407 12.047 1.119l-.609 4.304a50.094 50.094 0 0 0-8.426-.712s-7.48-.61-7.48 6.339c0 6.27 3.656 6.61 5.382 6.61.812 0 1.793-.137 2.605-.238v-5.084h-2.605V8.914h12.656ZM167.749.508h-10.931v20.88h10.931V.508ZM153.198.508v19.558c0 .745-.643 1.322-1.354 1.322h-11.472l-6.836-14.304v14.303h-4.602V1.898c0-.746.609-1.356 1.353-1.356h11.506l6.802 14.236V.542c0-.034 4.603-.034 4.603-.034Z" fill="#3278BE"/></svg>