<svg width="200" height="200" fill="none" xmlns="http://www.w3.org/2000/svg"><g clip-path="url(#a)" fill-rule="evenodd" clip-rule="evenodd"><path d="M0 0h200v200H0V0Z" fill="#F6F7FA"/><path d="M26.948 135.143c-.393 8.734 10.457 5.938 12.35.489l14.766-42.511c-6.826 2.234-12.45 7.405-15.961 13.365-2.378 4.039-3.44 10.769 2.389 13.856-.535 2.533-2.618 4.92-5.99 4.993-6.669.142-9.55-7.312-7.453-17.422 3.019-14.563 22.416-25.617 35.575-24.515 12.138 1.016 19.789 10.912 18.717 21.895-.922 9.455-7.8 20.322-15.049 21.978 5.742 6.029 6.2 16.501 12.9 16.484.899 3.532-1.743 8.232-5.8 8.333-11.163.278-13.294-23.204-20.297-24.679-1.407 4.018-2.82 8.033-4.243 12.045-2.585 7.299-9.566 11.667-16.721 11.945-8.107.314-14.767-5.65-14.197-12.621.442-5.378 9.225-8.323 9.014-3.635ZM65.09 93.001c-3.381 9.686-6.743 19.379-10.126 29.064 5.145.793 13.427-7.32 15.866-14.384 2.035-5.889-.645-12.248-5.74-14.68Zm59.496 57.038c-6.038-.242-10.052-4.805-6.993-13.985l1.999-5.994h-7.991c-1.771 13.361-10.571 20.067-19.73 20.105-8.475.034-14.575-10.372-12.113-19.106 2.738-9.709 12.88-17.605 22.227-17.108 5.8.309 9.968 2.935 11.488 7.493h8.99l7.869-23.601h10.237l-7.917 23.601h6.294l-2.872 8.617h-6.313l-2.305 6.868c-.94 2.806 3.774 2.97 5.869.873 3.476-3.476 5.662-5.745 9.366-11.611 3.575-5.664 9.845-11.947 18.356-12.362 9.838-.485 10.495 4.178 12.301 6.294 3.238 3.789 8.708-.276 10.426-.677-.842 1.573-1.203 5.543-2.651 7.593-1.771 2.509-6.393 3.672-8.588 3.396-.761 4.123-5.297 19.143-19.106 19.606-6.457.216-9.844-4.127-11.864-7.867-5.274 5.762-11.369 8.093-16.979 7.865ZM96.99 123.568c-4.036-.085-8.622 4.902-9.49 10.739-.467 3.133 1.833 8.189 4.994 7.992 6.095-.379 10.008-4.691 10.739-12.238-4.453.123-6.452-1.624-6.243-6.493Zm60.937-.625c-4.035-.085-8.621 4.903-9.49 10.739-.466 3.133 1.835 8.19 4.995 7.99 6.094-.378 10.008-4.689 10.739-12.236-4.454.124-6.453-1.625-6.244-6.493ZM2.94 159.137h194.118v-42.352l-87.018-75.92H88.545L2.94 116.486v42.65Zm11.753-49.066 75.25-67.367 76.921 67.367H14.694Zm168.002-63.622h4.791c.719 0 1.333.135 1.839.403.507.267.886.62 1.144 1.054.255.435.381.897.381 1.387 0 .735-.264 1.366-.791 1.892-.525.53-1.257.79-2.195.79-.157 0-.285-.006-.378-.02l2.938 4.6h-1.481l-2.938-4.412h-2.016v4.413h-1.293l-.001-10.107Zm4.418 4.586c.723 0 1.283-.172 1.68-.515.397-.34.598-.75.598-1.225 0-.464-.187-.869-.56-1.215-.372-.351-.884-.523-1.53-.523h-3.313v3.477h3.125Zm-10.108.728v-.329c0-1.624.397-3.114 1.188-4.465a8.72 8.72 0 0 1 3.217-3.2 8.678 8.678 0 0 1 4.409-1.17c1.149 0 2.271.226 3.372.677a9.764 9.764 0 0 1 2.967 1.908 9.121 9.121 0 0 1 2.085 2.888 8.312 8.312 0 0 1 .768 3.528c-.038 1.625-.359 3.02-.963 4.186-.601 1.169-1.361 2.103-2.277 2.803a9.474 9.474 0 0 1-2.881 1.53c-1.008.321-1.96.479-2.86.479-.172 0-.296-.005-.373-.02-1.039-.04-2.064-.3-3.078-.782a9.947 9.947 0 0 1-2.768-1.974 10.043 10.043 0 0 1-1.99-2.81 8.367 8.367 0 0 1-.816-3.25Zm1.293-.005c0 .937.204 1.859.616 2.767a8.581 8.581 0 0 0 1.693 2.462 8.732 8.732 0 0 0 2.434 1.762 7.112 7.112 0 0 0 2.778.74h.284c.938 0 1.86-.206 2.768-.617a8.243 8.243 0 0 0 2.468-1.732 8.415 8.415 0 0 0 1.745-2.55c.42-.943.636-1.963.634-2.994a7.303 7.303 0 0 0-1.076-3.843 8.023 8.023 0 0 0-2.861-2.823c-1.189-.696-2.45-1.043-3.776-1.043-.74 0-1.552.152-2.44.455a8.461 8.461 0 0 0-2.53 1.41c-.799.635-1.457 1.458-1.967 2.469-.515 1.01-.77 2.19-.77 3.537Z" fill="#CC2229"/></g><defs><clipPath id="a"><path fill="#fff" d="M0 0h200v200H0z"/></clipPath></defs></svg>