<svg width="200" height="47" fill="none" xmlns="http://www.w3.org/2000/svg"><g clip-path="url(#a)"><path d="M32.195 16.827H18.997l-2.333 5.688h13.131l2.4-5.688Z" fill="#F68712"/><path d="M35.294.508h6.899V25.12h14.964l-2.366 5.722H35.26V.508h.033Zm21.963 16.996V.508h6.899v16.725c0 5.755 2.466 8.16 6.665 8.16 4.2 0 6.666-2.37 6.666-8.16V.508h6.832v16.996c0 8.938-5.032 13.88-13.53 13.88-8.5 0-13.532-4.942-13.532-13.88Zm48.959-5.993c0-3.352-2.133-5.281-6.366-5.281h-5.599v10.529h5.632c4.2 0 6.333-1.93 6.333-5.248Zm6.998 0c0 6.771-4.999 10.97-12.964 10.97h-5.999v8.362h-6.899V.508h12.898c7.999 0 12.964 4.198 12.964 11.003Zm55.091 4.165c0-5.756-3.999-9.717-9.331-9.717-5.333 0-9.332 3.96-9.332 9.716 0 5.756 3.999 9.717 9.332 9.717 5.332 0 9.331-3.927 9.331-9.716Zm-25.695 0C142.61 6.67 149.508 0 158.94 0c9.432 0 16.331 6.636 16.331 15.675 0 9.04-6.966 15.676-16.331 15.676-9.432.034-16.33-6.636-16.33-15.675Zm41.826-9.514V16.86h8.365l-2.599 5.688h-5.766v8.329h-6.899V.507H200l-2.466 5.621h-13.098v.034Zm-49.059 17.673h-7.698l5.965 7.042h7.699l-5.966-7.042Zm-1.566-12.324c0-3.352-2.133-5.281-6.366-5.281h-5.632v10.529h5.632c4.233 0 6.366-1.93 6.366-5.248Zm6.999 0c0 6.771-4.999 10.97-12.965 10.97h-6.032v8.362h-6.899V.508h12.931c7.966 0 12.965 4.198 12.965 11.003ZM20.563 16.827h6.8l-7.2-16.32h-6.865L0 30.844h7.065l9.599-23.462 3.9 9.446Zm12.931 14.016h-7.232l-2.866-7.008h7.032l3.066 7.008Zm42.893 12.358-1.6-3.724-1.6 3.724h3.2Zm.367.88h-3.966l-.833 1.896h-1.1l3.366-7.584h1.066l3.4 7.584h-1.1l-.833-1.896Zm3.7-5.688h1.066v6.636h4.032v.948h-5.099v-7.584Zm6.798 4.3v-4.3h1.067v4.266c0 1.693.766 2.438 2.1 2.438 1.332 0 2.099-.745 2.099-2.438v-4.266h1.033v4.3c0 2.2-1.166 3.352-3.166 3.352s-3.133-1.151-3.133-3.352Zm16.031 3.284v-5.519l-2.7 4.605h-.5l-2.7-4.57v5.484h-1.032v-7.584h.866l3.1 5.316 3.066-5.316h.866v7.584h-.966Zm3.899-7.584h1.067v7.584h-1.067v-7.584Zm10.365 0v7.584h-.866l-4.466-5.654v5.654h-1.067v-7.584h.867l4.466 5.654v-5.654h1.066Zm2.9 0h1.066v7.584h-1.066v-7.584Zm3.866 4.3v-4.3h1.066v4.266c0 1.693.767 2.438 2.1 2.438 1.333 0 2.099-.745 2.099-2.438v-4.266h1.034v4.3c0 2.2-1.167 3.352-3.167 3.352-1.933 0-3.132-1.151-3.132-3.352Zm16.064 3.284v-5.519l-2.7 4.605h-.5l-2.699-4.57v5.484h-1.034v-7.584h.867l3.099 5.316 3.067-5.316h.866v7.584h-.966Zm6.732-.88.4-.847a3.829 3.829 0 0 0 2.466.88c1.3 0 1.833-.507 1.833-1.184 0-1.862-4.499-.678-4.499-3.488 0-1.15.9-2.166 2.866-2.166a4.343 4.343 0 0 1 2.4.677l-.367.88a3.927 3.927 0 0 0-2.033-.61c-1.266 0-1.8.542-1.8 1.186 0 1.862 4.5.677 4.5 3.487 0 1.15-.9 2.166-2.9 2.166-1.166-.033-2.266-.406-2.866-.981Zm10.631-1.76v2.606h-1.066v-2.64l-2.966-4.944h1.133l2.399 3.995 2.4-3.995h1.067l-2.967 4.977Zm3.833 1.76.4-.847a3.833 3.833 0 0 0 2.466.88c1.3 0 1.833-.507 1.833-1.184 0-1.862-4.499-.678-4.499-3.488 0-1.15.9-2.166 2.866-2.166a4.341 4.341 0 0 1 2.4.677l-.367.88a3.924 3.924 0 0 0-2.033-.61c-1.266 0-1.799.542-1.799 1.186 0 1.862 4.499.677 4.499 3.487 0 1.15-.9 2.166-2.9 2.166-1.133-.033-2.266-.406-2.866-.981Zm9.332-5.756h-2.566v-.948h6.165v.948h-2.566v6.636h-1.033V39.34Zm10.831 5.688v.948h-5.399v-7.584h5.233v.948h-4.2v2.336h3.733v.914h-3.733v2.438h4.366Zm9.265.948v-5.519l-2.699 4.605h-.5l-2.7-4.57v5.484h-1.033v-7.584h.867l3.099 5.316 3.066-5.316h.867v7.584h-.967Zm3.233-.88.4-.847a3.833 3.833 0 0 0 2.466.88c1.3 0 1.834-.507 1.834-1.184 0-1.862-4.5-.678-4.5-3.488 0-1.15.9-2.166 2.866-2.166a4.341 4.341 0 0 1 2.4.677l-.367.88a3.921 3.921 0 0 0-2.033-.61c-1.266 0-1.799.542-1.799 1.186 0 1.862 4.499.677 4.499 3.487 0 1.15-.9 2.166-2.9 2.166-1.166-.033-2.266-.406-2.866-.981Z" fill="#1E1F43"/></g><defs><clipPath id="a"><path fill="#fff" d="M0 0h200v46.078H0z"/></clipPath></defs></svg>