<svg width="200" height="105" fill="none" xmlns="http://www.w3.org/2000/svg"><path fill-rule="evenodd" clip-rule="evenodd" d="M114.115 96.594c-1.197 0-1.669.455-1.669 1.627v.24h-.794v.876h.794v3.964h1.325v-3.964h.95v-.876h-.981v-.396c0-.4.131-.501.605-.501.15 0 .274.006.449.031v-.97a10.31 10.31 0 0 0-.679-.031Zm3.445 0c-1.197 0-1.649.455-1.649 1.627v.24h-.794v.876h.794v3.964h1.294v-3.964h.949v-.876h-.949v-.396c0-.4.106-.501.605-.501.124 0 .243.006.417.031v-.97a8.876 8.876 0 0 0-.667-.031Zm-45.421.031v6.676h1.44v-2.17l.856-.845 2.014 3.015h1.847l-2.87-4.037 2.62-2.639h-1.847l-2.067 2.17c-.1.125-.154.144-.553.667V96.625h-1.44Zm49.814 0v6.676h1.472v-2.744h2.818v-1.168h-2.818v-1.543h3.215v-1.22h-4.687Zm-26.666.365v1.471h-.824v.876h.825v2.243c0 .822.023 1.044.198 1.293.2.349.566.48 1.315.48.25 0 .458-.003.783-.052v-.991c-.175.024-.283.021-.407.021-.5 0-.575-.101-.575-.699v-2.295h.982v-.876h-.981v-1.47h-1.316Zm8.308 0v1.471h-.824v.876h.824v2.243c0 .822.018 1.044.167 1.293.225.349.598.48 1.346.48.225 0 .448-.003.773-.052v-.991c-.175.024-.272.021-.397.021-.499 0-.574-.101-.574-.699v-2.295h.971v-.876h-.971v-1.47h-1.315Zm40.109 0v1.471h-.825v.876h.825v2.243c0 .822.016 1.044.167 1.293.224.349.597.48 1.346.48.224 0 .459-.003.783-.052v-.991c-.175.024-.283.021-.407.021-.499 0-.574-.101-.574-.699v-2.295H146v-.876h-.981v-1.47h-1.315Zm27.532 0v1.471h-.825v.876h.825v2.243c0 .822.027 1.044.177 1.293.225.349.599.48 1.347.48.224 0 .448-.003.772-.052v-.991c-.175.024-.272.021-.397.021-.498 0-.574-.101-.574-.699v-2.295h.971v-.876h-.971v-1.47h-1.325ZM87.23 98.346c-.698 0-1.173.22-1.597.793v-.678H84.36v4.84h1.326v-2.514c0-.424.04-.656.114-.855.175-.325.53-.522.93-.522.623 0 .845.298.845 1.095v2.796h1.294v-3.036c0-.648-.04-.973-.24-1.272-.25-.399-.775-.647-1.399-.647Zm4.634 0c-1.372 0-2.118.517-2.118 1.44 0 .473.224.875.574 1.074.299.174.5.228 1.398.428.923.199 1.096.316 1.096.615 0 .399-.324.626-.898.626-.648 0-.952-.251-1.001-.824h-1.263c.05 1.147.818 1.721 2.264 1.721 1.372 0 2.223-.62 2.223-1.617 0-.823-.471-1.228-1.868-1.502-1.047-.224-1.2-.291-1.2-.615 0-.3.267-.48.741-.48.574 0 .833.173.908.647h1.242c-.074-1.022-.776-1.513-2.098-1.513Zm8.287 0c-1.347 0-2.098.517-2.098 1.44 0 .473.225.875.574 1.074.3.174.5.228 1.399.428.923.199 1.096.316 1.096.615 0 .399-.349.626-.898.626-.649 0-.948-.251-1.023-.824h-1.22c.05 1.147.796 1.721 2.243 1.721 1.372 0 2.223-.62 2.223-1.617 0-.823-.482-1.228-1.879-1.502-1.072-.224-1.19-.291-1.19-.615 0-.3.268-.48.742-.48.573 0 .823.173.897.647h1.253c-.075-1.022-.797-1.513-2.119-1.513Zm8.673 0c-1.497 0-2.494 1.014-2.494 2.535 0 1.52.997 2.545 2.494 2.545 1.521 0 2.494-1.025 2.494-2.545 0-1.57-.973-2.535-2.494-2.535Zm20.654 0c-1.396 0-2.411 1.064-2.411 2.535 0 1.52.967 2.545 2.464 2.545 1.122 0 2-.626 2.275-1.648h-1.274c-.199.499-.503.699-1.001.699-.698 0-1.092-.45-1.117-1.273h3.465v-.167c0-1.645-.954-2.69-2.401-2.69Zm6.168 0c-.698 0-1.197.22-1.596.793v-.678h-1.274v4.84h1.315v-2.514c0-.424.051-.656.126-.855.174-.325.529-.522.929-.522.623 0 .824.298.824 1.095v2.796h1.315v-3.036c0-.648-.075-.973-.25-1.272-.275-.399-.765-.647-1.389-.647Zm4.634 0c-1.372 0-2.139.517-2.139 1.44 0 .473.246.875.595 1.074.299.174.5.228 1.398.428.923.199 1.096.316 1.096.615 0 .399-.324.626-.897.626-.649 0-.952-.251-1.002-.824h-1.274c.05 1.147.829 1.721 2.276 1.721 1.371 0 2.223-.62 2.223-1.617 0-.823-.482-1.228-1.879-1.502-1.048-.224-1.19-.291-1.19-.615 0-.3.267-.48.741-.48.574 0 .823.173.898.647h1.252c-.1-1.022-.801-1.513-2.098-1.513Zm8.611 0c-1.422 0-2.442 1.064-2.442 2.535 0 1.52.966 2.545 2.463 2.545 1.122 0 2-.626 2.275-1.648h-1.273c-.2.499-.503.699-1.002.699-.699 0-1.092-.45-1.117-1.273h3.465v-.167c0-1.645-.947-2.69-2.369-2.69Zm8.975 0c-1.346 0-2.118.517-2.118 1.44 0 .473.22.875.595 1.074.274.174.475.228 1.398.428.898.199 1.075.316 1.075.615 0 .399-.328.626-.877.626-.648 0-.972-.251-1.022-.824h-1.274c.075 1.147.854 1.721 2.276 1.721 1.371 0 2.243-.62 2.243-1.617 0-.823-.502-1.228-1.899-1.502-1.048-.224-1.19-.291-1.19-.615 0-.3.268-.48.741-.48.574 0 .848.173.898.647h1.252c-.074-1.022-.776-1.513-2.098-1.513Zm9.926 0c-1.347 0-2.119.517-2.119 1.44 0 .473.231.875.605 1.074.3.174.491.228 1.389.428.922.199 1.106.316 1.106.615 0 .399-.349.626-.898.626-.648 0-.948-.251-1.023-.824h-1.273c.075 1.147.844 1.721 2.265 1.721 1.397 0 2.244-.62 2.244-1.617 0-.823-.472-1.228-1.868-1.502-1.073-.224-1.201-.291-1.201-.615 0-.3.278-.48.752-.48.574 0 .823.173.897.647h1.242c-.098-1.022-.796-1.513-2.118-1.513Zm8.61 0c-1.397 0-2.421 1.064-2.421 2.535 0 1.52.977 2.545 2.473 2.545 1.123 0 1.99-.626 2.265-1.648h-1.273c-.199.499-.493.699-.992.699-.698 0-1.102-.45-1.127-1.273h3.465v-.167c0-1.645-.943-2.69-2.39-2.69Zm6.106 0c-.698 0-1.146.224-1.545.772v-.657h-1.273v4.84h1.325v-2.618c0-.873.322-1.273.971-1.273.523 0 .73.28.73.928v2.963h1.315v-2.618c0-.424.029-.598.105-.772.124-.3.45-.5.824-.5.574 0 .793.278.793 1v2.89h1.326v-3.265c0-1.097-.601-1.69-1.649-1.69-.673 0-1.167.245-1.566.793-.274-.548-.733-.793-1.356-.793Zm7.932 0c-1.423 0-2.443 1.064-2.443 2.535 0 1.52.977 2.545 2.474 2.545 1.122 0 1.991-.626 2.265-1.648h-1.274c-.199.499-.492.699-.991.699-.699 0-1.103-.45-1.127-1.273h3.465v-.167c0-1.645-.948-2.69-2.369-2.69Zm-35.465.021c-.698 0-1.195.322-1.544.97v-.876h-1.274v4.84h1.316v-2.013c0-.549.052-.857.177-1.106.224-.4.628-.647 1.127-.647.15 0 .277.024.501.073v-1.22c-.124-.025-.227-.02-.303-.02Zm-76.355.094v3.066c0 1.272.522 1.899 1.67 1.899.698 0 1.197-.276 1.597-.824v.699h1.252v-4.84h-1.294v2.399c0 .474-.057.718-.157.918a.97.97 0 0 1-.897.553c-.4 0-.673-.15-.772-.449-.075-.174-.074-.277-.074-.751v-2.67H78.62Zm81.814 0 1.722 4.537a.975.975 0 0 1 .052.303c0 .423-.223.594-.772.594h-.522v1.106h.897c.524 0 .846-.108 1.169-.407.225-.249.379-.516.679-1.314l1.764-4.819h-1.368l-.751 2.295c-.1.299-.173.576-.324 1.199-.149-.573-.223-.842-.323-1.116l-.793-2.378h-1.43Zm-30.956.824c.599 0 .955.376 1.054 1.074h-2.118c.074-.648.466-1.074 1.064-1.074Zm19.381 0c.599 0 .979.376 1.055 1.074h-2.119c.074-.648.491-1.074 1.064-1.074Zm27.543 0c.599 0 .944.376 1.044 1.074h-2.119c.076-.648.476-1.074 1.075-1.074Zm14.017 0c.598 0 .968.376 1.043 1.074h-2.118c.074-.648.476-1.074 1.075-1.074Zm-81.595.031c.748 0 1.179.567 1.179 1.565 0 .972-.456 1.543-1.179 1.543-.724 0-1.169-.571-1.169-1.543s.445-1.565 1.169-1.565Zm9.529.897v1.189h2.546v-1.189h-2.546Z" fill="#231F20"/><path fill-rule="evenodd" clip-rule="evenodd" d="M30.851 50.159v31.228h7.963V50.159h-7.963Zm72.838 0v31.228h7.985V50.159h-7.985Zm92.689 1.366c-2.02 0-3.663 1.622-3.663 3.64 0 2.02 1.643 3.64 3.663 3.64a3.628 3.628 0 0 0 3.622-3.64 3.629 3.629 0 0 0-3.622-3.64Zm0 .605a3.01 3.01 0 0 1 3.017 3.035c0 1.671-1.345 3.046-3.017 3.046-1.696 0-3.068-1.375-3.068-3.046 0-1.694 1.348-3.035 3.068-3.035Zm-1.617 1.022v4.005h.918v-1.616h.752c.399 0 .524.102.574.5l.052.47c.05.399.071.497.146.646h.971c-.125-.224-.124-.196-.199-.72l-.052-.448c-.074-.548-.171-.674-.595-.824.549-.249.72-.496.72-.97 0-.673-.52-1.043-1.492-1.043h-1.795Zm-9.633.292-7.734 2.973v3.41h-6.502v4.037h6.502V74.91c0 2.966.624 4.56 2.171 5.632 1.322.897 3.668 1.502 5.938 1.502 1.971 0 3.37-.134 7.087-.657V77.62c-1.247.2-2.64.303-3.413.303-2.769 0-4.049-1.116-4.049-3.609v-10.45h7.41v-4.037h-7.41v-6.384Zm10.551.376h.699c.5 0 .7.147.7.521 0 .35-.247.522-.72.522h-.679V53.82ZM13.996 59.233c-8.356 0-12.346 2.039-12.67 6.675h7.733c.3-2.468 1.77-3.41 5.312-3.41 3.742 0 5.438 1.314 5.438 4.255v.856c-5.114.1-7.539.2-9.435.375C3.714 68.732 0 71.366 0 75.379c0 3.939 4.163 6.613 10.249 6.613 4.44 0 7.215-1.023 10.009-3.64.05 1.172.2 1.813.574 3.035h7.4c-.524-1.496-.648-2.663-.648-6.227v-8.407c0-5.11-4.41-7.52-13.588-7.52Zm75.353 0c-4.165 0-6.79.972-9.184 3.515-.05-1.271-.042-1.65-.167-2.92h-7.984c.05.972.177 2.992.177 3.765V89.49h7.974V79.144c2.594 2.02 5.193 2.848 8.61 2.848 7.733 0 12.973-4.767 12.973-11.797 0-6.656-4.866-10.962-12.399-10.962Zm38.366 0c-8.356 0-12.35 2.039-12.65 6.675h7.703c.324-2.468 1.777-3.41 5.343-3.41 3.717 0 5.438 1.314 5.438 4.255v.856c-5.138.1-7.539.2-9.435.375-6.66.748-10.395 3.382-10.395 7.395 0 3.939 4.194 6.613 10.28 6.613 4.415 0 7.205-1.023 9.999-3.64.05 1.172.179 1.813.553 3.035h7.431c-.524-1.496-.647-2.663-.647-6.227v-8.407c0-5.11-4.441-7.52-13.62-7.52Zm30.204 0c-7.932 0-13.495 2.665-13.495 6.404 0 1.969 1.394 3.664 3.789 4.736 1.646.697 2.868.996 7.358 1.793 6.335 1.072 7.41 1.572 7.41 3.317s-2.292 2.92-5.709 2.92c-3.592 0-5.188-1.155-5.438-3.723h-7.859v.803c0 4.138 4.689 6.56 12.671 6.56 8.68 0 14.068-2.717 14.068-7.03 0-2.118-1.151-3.696-3.496-4.818-1.646-.822-2.837-1.143-7.901-2.065-6.41-1.122-7.159-1.444-7.159-3.014 0-1.296 2.02-2.243 4.863-2.243 3.368 0 4.685.797 4.885 2.816h7.587c-.249-4.512-3.742-6.456-11.574-6.456Zm-116.537.595v13.037c0 5.808 3.791 9.127 10.426 9.127 4.89 0 8.06-1.348 9.706-4.214.05 1.322.242 2.437.616 3.609h7.984c-.449-1.222-.626-2.394-.626-4.214V59.828h-7.974v11.337c0 2.194-.2 3.518-.699 4.266-.948 1.595-3.25 2.618-5.72 2.618-3.716 0-5.76-1.716-5.76-5.006V59.828h-7.953Zm45.337 3.337c.143 0 .291-.004.439 0 4.165.125 6.429 2.67 6.429 7.208 0 4.786-2.72 7.676-7.16 7.676-4.116 0-6.586-2.667-6.586-7.03 0-5.022 2.44-7.82 6.878-7.854Zm-67.661 7.781h.751c0 2.144-.051 2.844-.376 3.89-.623 1.995-3.218 3.317-6.585 3.317-3.043 0-4.812-1.175-4.812-3.243 0-2.842 2.539-3.912 9.498-3.912.449 0 .75-.002 1.524-.052Zm113.719 0h.772c0 2.144-.076 2.844-.376 3.89-.648 1.995-3.243 3.317-6.585 3.317-3.043 0-4.812-1.175-4.812-3.243 0-2.842 2.518-3.912 9.477-3.912.449 0 .776-.002 1.524-.052Z" fill="#ED1C24"/><path fill-rule="evenodd" clip-rule="evenodd" d="M99.723 0c-.823.025-1.818.078-2.766.177-.174-.199-.38.148-.605-.052-.898.25-2.116.198-3.09.522-1.296.124-2.394.402-3.642.75-.024-.049-.076-.054-.052-.104l-.125.157c-.674.224-1.34.449-2.014.574-.125.174-.358-.083-.407.166-.275.05-.567.305-.867.23-.224.125-.528.074-.678.323-.449-.199-.496.33-.845.23-.175.274-.571-.051-.72.198h.125c.024.05-.01.073-.084.073-.124.125-.24.293-.365.094-.075 0-.134.075-.209.125a.245.245 0 0 0-.146-.125c-.074.075-.275.132-.25.281-.15.075-.124-.131-.199-.156-.15.05-.096.228-.146.302l-.073-.073c-.374.449-.905.27-1.305.595l.032.104c-.2.15-.58.1-.605.449-.3-.05-.321.048-.595.073l.052.052c-.05.074-.03.148-.105.198-.124.025-.194.002-.219-.073l.167-.125c-.075-.075-.196.02-.271.02.075.075-.003.153-.052.178-.05 0-.1.019-.126-.031.075.374-.47.003-.594.302.124.275-.3.2-.45.25-.174.275-.678.202-.678.501-.174-.05-.249.227-.448.178-.125.15-.374.245-.324.469-.15-.1-.216.052-.365.052 0 .1.019.17.094.22-.175.024-.325.278-.574.229-.1.399-.574-.05-.45.448-.149.424-.65.05-.75.449l.156.073c-.125.1-.251.127-.376.177 0 .05-.022.1.052.125l-.198.094c-.25-.3-.23.304-.48.23.449.174-.2.15-.125.375-.05 0-.07-.08-.094-.104-.275-.3-.18.273-.48.323-.225-.025-.298.352-.522.302 0 .175.205.022.23.146-.1.125-.406.174-.606.198l.105.105c-.075.075-.13-.052-.23-.052-.524.174-.793-.399-1.242-.449v-.02c-.224-.026-.306-.176-.48-.251-.125-.125-.17.092-.22.167-.349.025-.123-.243-.198-.417l-.125.052c-.224-.35-.552-.326-.876-.5-.05-.3-.427-.156-.502-.355-.548-.026-.718-.618-1.242-.543-.15.2-.3.322-.375.522.075.15-.145.37.104.469-.05.025-.075.104-.125.104v.094c1.397.823 2.987 1.155 4.383 2.003l-.052.125.157.073c-.1.15-.224 0-.324 0-.224.174.122.067.146.167-.2.1-.274.276-.448.375l-.053-.146c-.174.125-.025.251-.125.376-.224-.075-.226.12-.376.146 0 .025-.018.073.032.073l-.272.281c-.05.05-.206.001-.156.126 0 .074-.096.093-.146.093-.2.35-.521-.168-.846-.093a74.196 74.196 0 0 1-2.097-.98c-.2-.05-.454-.344-.679-.095l-.073-.198c-.324-.1-.642-.502-.991-.302.1.1-.029.248.146.323.124.2.476.122.5.396.4.2.691.43 1.065.605.25.374-.218.469-.417.793-.125.3-.578.502-.553.876-.1-.2-.172.073-.272.073.2.3-.501.348-.177.647-.1 0-.242-.052-.292.073.05.05.066.106.041.156-.025.2-.175-.005-.25.094-.1.025.101.178-.073.178-.15.249-.401.474-.501.824-.325-.05-.097.344-.397.344-.05.1.004.227.053.302-.026.125-.155.048-.23.073-.25.075-.04.372-.24.396.1.275-.307.279-.282.553-.25.15-.076.549-.376.574.075.224-.293.401-.094.626-.2.075-.323.399-.323.573-.324.075-.278.525-.428.7-.3.124-.02.467-.22.667.126.199-.307.425.043.5.124-.249.183-.72.532-.844-.125-.275.22-.456.146-.73.324-.075.297-.573.522-.772-.075-.175.204-.295.23-.47.099-.2.294-.328.344-.553.449-.548.697-1.166 1.22-1.69.076-.448.554-.602.68-1 .773-.898 1.491-1.844 2.39-2.566l.48.27c.374-.173.316.498.615.199.35.2-.116.303-.042.553-.124.074-.077-.1-.177-.125-.025.05-.102.071-.052.146 0 .1.096.106.146.156 0 .075.008.121-.042.146-.075-.125-.255-.196-.355-.271v.292c-.075.1-.146.15-.271.125-.025.15.275.03.25.23-.1.174-.198-.075-.323 0-.2-.05-.326.121-.376.27.025.125.096.024.146.074-.1.1-.324.353-.449.428l.126.072c.15.35-.274.029-.324.303l.073.094-.052.083c-.35-.349-.245.32-.47.345-.124.124-.349.502 0 .552l-.104.094c-.05.125-.144.002-.22-.073-.149-.05-.227.15-.302.25.075.15-.294.327-.344.501.075.025.169.144.094.22-.2-.026-.241.154-.366.229.125.399-.349.57-.574.844.05.1-.081.272-.156.272l.031.125c-.349.075-.052.623-.5.573-.05.15.152.122.177.272-.1.174-.258.202-.407.302-.075.175-.176.526-.376.626-.1.2-.246.474-.146.699-.424-.15-.218.471-.543.521.025.125.218.03.292.105.1.074-.044.12-.094.146-.15.074-.104-.076-.23-.126-.049.05-.02.1-.02.126h.052c-.1.124-.254.173-.104.323-.25.224.045.447-.104.647-.05-.025-.143-.05-.167-.126l.093-.094c-.35-.05-.045.391-.344.49l.073.084c-.25.2-.153.464-.303.689-.15.124-.151.284-.376.333-.074.075.007.117.032.167-.025.274-.155.5-.23.7l-.167-.022v.125c.025 0 .1-.029.125.021 0 .075-.008.152-.083.178.25.274-.346.349-.146.573-.025.05-.072.073-.146.073l.041.397c-.025-.025-.073-.024-.073-.073h-.167v.052h.021c.424.349-.23.268-.23.542.05 0 .107-.023.157.052-.1.225-.097.329-.271.553.125.05.144.199.094.323-.05 0-.097-.027-.146-.052-.375.125.101.374-.073.574-.225.025-.454-.028-.554-.177-.074.074-.294.074-.344 0-.075.024-.055.106-.104.156-.125-.05-.347.1-.397-.125-.075-.075-.3-.004-.376.02-.15-.299-.4.104-.574-.145l-.073.146c-.2-.225-.522-.047-.647-.271-.1.074-.157.22-.282.146-.15.324-.12-.202-.344-.053v.157c-.1 0-.18.018-.23-.031l.032-.126c-.075 0-.18-.018-.23.032-.075-.1-.367.043-.417-.032.025.175-.203.082-.303.157-.175-.274-.45-.206-.7-.157 0 .025.03.1-.02.126-.1-.075-.355 0-.355-.199-.1.225-.25.004-.376-.02l-.093.146c-.075.074-.158-.102-.282-.053-.025.025-.067.076-.042.126l-.282.03c-.075.05.031.097.031.147l2.495.052c.848.075 1.674.123 2.547.073.623.075.94.023 1.638.073.324.25-.37.329-.02.553-.35.224.126.324.052.573-.225.175-.555-.026-.804.073-.324.075-.675.094-.95-.03-1.82.149-3.936.03-5.782.229-.075.1-.325.22-.125.344-.175.174.027.382.052.532.2-.05.441.14.616-.084.15.15.349-.072.449.052.598-.15 1.173-.025 1.847-.125l.104-.041 1.294-.032c.524-.1 1.251.072 1.775-.177.324.349.824-.074 1.148.25-.175.05-.222.174-.272.324.25.15-.083.378.042.553-.2.224 0 .495-.25.72-.075.124.03.202.104.302l-.125.073c.124.249-.203.424-.178.698h.105c-.1.35-.226.824-.25 1.273l-.126.094c.05.423-.096.853-.02 1.252-.25.747-.052 1.665-.251 2.388.075.15-.129.403.02.553.2.274-.172.697.053.897l-.105.073c0 .075-.018.18.032.23-.05.149.218.4-.032.5.075.15-.093.323.157.323.075.175-.157.09-.157.24l.105.084c-.1.249.15.47 0 .72.174.348-.276.893.073 1.042-.075.1-.071.255-.02.355-.25.374.32.544.145.918-.224.25.225.53.125.73-1.546.424-3.139.69-4.56 1.189-.5.15-.973.272-1.472.396-.549.274-1.23.18-1.753.48-.15.05-.318.146-.418.146l-.428.073c-.1.175-.324.132-.448.157-.55.299-1.195.29-1.743.615-.774.2-1.477.556-2.276.73-.274.2-.518.118-.793.292-.623.05-1.121.38-1.67.605-.25.05-.701.145-.751.47.124.05.253.078.302-.021.3.199.467-.178.741-.178.2-.124.53 0 .679-.25.35.124.325-.346.7-.271.373.2.771-.25 1.22-.25.05-.05.05-.122 0-.147a.708.708 0 0 0-.428.167c-.1-.349.473-.14.647-.365l-.041.22c.299.05.568-.172.793-.272.25.125.474-.053.7-.177.423-.125.842-.177 1.241-.5.648-.1 1.28-.302 1.879-.502.349.05.017-.265.292-.365.075.025.159-.008.209.042l-.053.177c.353 0 .72-.112.992-.23-.076-.005-.199-.116-.292-.04.1-.275.44-.173.49-.397l.303.271c.125-.15.201.1.376 0v-.073c-.15 0-.322.025-.397-.125.075-.075.221-.005.271-.104.175-.175.504-.019.679.03l-.125-.156.292-.146c.224.05-.05.153 0 .303h.073c.025-.125.279-.178.104-.303.025-.05.096-.048.146-.073.125.175.48.077.679.053.025-.175-.18-.026-.23-.126-.025-.174.224-.006.324-.156l.103.177c.15.125.296-.048.47-.073l-.02-.031c-.075-.075-.075-.267 0-.292l.104.052c.05.274.32.121.47.146v-.031c-.05 0-.076-.07-.126-.094l.303-.02c.075-.05-.028-.108-.052-.157l.052-.053c.1 0 .221.18.271.23l.125-.146c.25.025.427-.35.627-.125.05-.05.042-.202.167-.178.075.05-.05.076 0 .126l.553-.25c.124.024.297.05.396-.074.2.025.303.143.428.292l-.104.052c-.075.075.009.153.083.178-.124.15.067.296.042.396-.15.125.052.126.052.25-.1.05-.027.255-.177.23-.1-.025-.192-.03-.292-.104-.175.174.118.23.094.354-.15-.025-.222-.225-.397-.125-.35.075-.598-.177-.898-.052-.124 0-.2.144-.125.219-.05.05-.075.104-.125.104-.025-.025-.077-.054-.052-.104-.2-.025-.35.082-.449.156.025.05.123.05.073.126-.025.05-.069.02-.094.02-.125-.025-.304-.104-.23-.229-.249.05-.295.452-.594.302-.2.325-.4-.25-.574.073-.15-.1-.328.074-.428.199-.097-.049-.168.055-.24.083.027.046.09.077.041.125-.224-.1-.276.397-.5.073 0 .05-.068.173-.168.198 0 .075.148.124.074.199-.125-.075-.276-.174-.251-.324-.125.175-.3-.103-.449.021-.05.524-.475.028-.7.303.026.324.321.2.47.25-.149.2-.493.028-.667.302-.25.025-.072-.2-.147-.25h.021c.05.05.153.044.178-.031.124-.025.07-.149.02-.198-.2-.075-.443-.004-.668.146-.1 0-.182-.15-.281 0 0 .05.023.079.073.104l-.167.146c.05.025.075.104.125.104 0 .1.125.222 0 .271-.05-.2-.226-.12-.376-.146v-.03c.05-.05.099-.12.198-.095.125-.274-.275-.124-.25-.323v.052c-.125.025-.274.173-.449.073-.075.3-.397.049-.521.198.05 0 .069.003.093.052 0 .05.03.097-.02.146-.075.025-.097-.079-.146-.104-.2-.075-.207.11-.282.209.075.224.227-.156.302.094 0 .025-.02.052-.02.052-.225-.025-.1.196-.126.271-.15.075-.198-.173-.323-.073l.073.125h-.073c-.374.1-.199-.276-.324-.375.125.074.324.127.45.052.024-.125-.1-.253-.2-.303 0 .15-.227.23-.302.105-.025.025-.02.044-.02.093 0 0 .016.032.041.032h-.094c-.174.075-.457-.153-.532.146l.125.125h-.365c-.125.224-.279.33-.553.355-.025-.075.02-.134.02-.209h-.166c-.225.125-.508.226-.658.375-.075-.024-.046-.143-.146-.093-.125.1-.328.099-.303.323l-.146-.125c-.075.05-.094.123-.094.198l-.156-.104c-.225.025.005.198-.094.323-.225.1-.099-.19-.199-.24l-.177.146c-.499-.025-.798.427-1.346.303-.153 0-.102.21-.22.229l.063.01c-.075.075-.393.1-.543.126.01.009.013.023.021.03-.075.05-.17.172-.22.147l-.051-.177c-.125 0 .02.152-.105.177-.299-.174-.447.325-.647.125-.174.474.123 1.101.073 1.575-.374.3.333.275.084.574.2.224.073.796.522.772.1-.125.244-.104.219-.303.1-.224.257.053.407-.02v-.23c.524.025.822-.444 1.346-.344.998-.524 2.015-.856 3.037-1.304.05-.15.203-.171.303-.146.873-.4 1.696-.522 2.494-.97.35-.175.772 0 1.096-.324.25.025.423-.252.647-.177.749-.274 1.552-.525 2.276-.824.399 0 .843-.402 1.242-.302.299-.275.85-.25 1.2-.449.25-.324.744-.074 1.043-.323.25.124.48-.273.679-.073.15.025.052.175.052.25.25.1-.107.624.292.699-.2.374.15.671.125 1.095.375.374-.025.927.45 1.252-.3.324.156.595.156.844.399.424.223 1.072.647 1.471-.1.15.169.178.094.303l.177.146c-.05.249.302.303.178.553h.041c.05 0 .128.092.053.166.1.125.28.253.48.178.399.075-.109.128-.084.302.05.274.476.15.501.449.25-.125-.119-.302-.094-.501-.15-.175 0-.495-.25-.595.025-.324-.228-.547-.303-.771-.2-.026 0-.302-.198-.376 0-.673-.447-1.246-.522-1.919-.175-.25-.18-.523-.355-.772.075-.598-.373-1.004-.323-1.627-.25-.474.082-.966-.167-1.44.224-.1.445-.283.72-.208.424-.274.968-.393 1.492-.542.324-.025.68-.272 1.054-.272.374-.423.891-.153 1.315-.427.25-.175.573-.049.773-.198.25-.2.622.148.772-.25l.052.145c.075 0 .082-.117.157-.166.3.174.54-.1.814-.126.2.025.43-.18.605-.156.274-.05.548-.093.772-.292.4.025.626-.127.95-.177.4.024.77-.157 1.17-.157v.157h.072c.075-.05.15-.105.125-.23.075-.25.304-.067.428-.167.424-.05.92-.252 1.294-.177.574-.35 1.124-.374 1.848-.449 1.397-.374 2.642-.646 4.039-.97.374.05.673-.05 1.023 0v-.052c.748-.2 1.576-.205 2.275-.48.1 0 .273.102.323-.072.948-.15 1.964-.27 2.912-.345.075-.224.303-.006.428-.156.3.025.699-.015 1.023-.115.1.623.177 1.42.052 2.117 0 .125-.028.3.146.25v-2.252l.126-.115c.623-.15 1.471-.203 2.045-.302 1.197-.3 2.35-.202 3.496-.501.25.15.54-.077.814-.052.1.05.183.054.282-.021.798-.05 1.517-.128 2.265-.303.224.15.43-.047.605-.073.948.1 1.664-.125 2.537-.25l.052.052c.074.1.105.203.031.303.125.723 0 1.61.125 2.284a12.916 12.916 0 0 0 0 2.399c.075.075.15.023.199-.052l.073-4.955c.997-.1 2.164-.175 3.162-.25.499-.124.878.024 1.378-.125 1.82-.125 3.787-.123 5.458-.198.1-.05.231-.159.355-.084.05.524.05 1.125 0 1.648.05.025.071.105.146.105.125-.574 0-1.18.125-1.753l1.67-.073c.325.15.646-.048.971-.073.174 0 .305.248.48.073.124.175.32-.048.47-.073.374 0 .727.275 1.002 0 .224.175.596-.074.845.126.598-.2 1.025.074 1.649 0 .175 0 .367-.254.417.02l.126-.146.052.073c.1.05.225.052.25-.073.2.3.429-.05.679.199.274-.35.591.126.866-.074.274.3.327-.3.626.074.25-.275.599.022.898-.053v-.041c.174-.075.273.12.449.146l.073-.146c.249.299.477-.254.751.02.1.773-.003 1.573.073 2.42l.104.271c.125-.772.042-1.714.042-2.586.175-.075.352-.055.501-.105.076-.124.18-.001.23.074.199-.075.299.126.449-.074.1.3.299-.07.448.105 0 0-.026.02-.052.02v.053c.125 0 .201-.007.376-.032.2.1.443-.149.543 0 .149.026.28.108.354-.041.175.274.446-.131.721-.032.199.075.447.298.647.074.074-.025.128.03.104.104l.219-.125.084.146c.224 0 .374-.096.574-.146l.041.125c0-.025.006-.08.032-.105.074.026.148-.018.198.032l-.125.125c.224-.05.447.024.647-.125l.104.198c.125 0 .122-.123.146-.198.699 0 1.598.125 2.171.125.076 0 .153.071.178.146.074 0 .116-.073.167-.073.299-.05.677-.126 1.002.073.523-.2 1.069.073 1.617.073.599.15 1.324-.072 1.848.177.249-.2.449.146.699.021.076.224.199-.025.323 0 1.397.274 3.119.175 4.54.574 1.148.05 2.251.276 3.424.375 1.147.1 2.261.401 3.433.501.35.1.73.028 1.055.177.274-.075.773.266.897-.083l.094.208c.074-.025.2.073.251-.052.1.025.327.024.302.199.3.1-.054-.228.219-.178.075 0 .084.1.084.125.124-.025.248.003.323.178.125-.025.243-.026.418-.126l.031.178c.076-.1.317.047.292-.178h-.02c-.076-.05-.094-.123-.094-.198h-.011c-.349-.1-.617-.154-.991-.23-.124.026-.199-.265-.324-.04a2.023 2.023 0 0 0-.574-.282v-.053c-.1-.349-.353-.123-.553-.198v.125c-.1.025-.175.104-.25-.02.05-.05.101-.055.125-.105-.149-.2-.391-.021-.616-.146-.124.025-.007.155-.031.23h-.073c-.05 0-.073-.055-.073-.105l-.178.073c-.124 0-.104-.123-.104-.198-.274-.2-.715.045-.939-.23-.1.225-.352-.022-.501.053.074.374-.327-.045-.501.104-.076-.224-.279-.203-.428-.302.05.174-.143.177-.292.177-.175.075-.297-.1-.397-.25 0 .1-.182.229-.282.104l.157-.23c-.2 0-.533.023-.783-.052-.124.025-.324.152-.449.052-.274.2-.289-.32-.563-.146-.3-.124-.582.02-.856-.03l-.021-.168-.177.146c-.075-.174-.224-.154-.324-.104-.199-.15-.297.15-.522.125-.299.075-.007-.221-.031-.271h-.094c-.126.25-.376-.023-.501.052l-.073-.125c-.024.274-.27.002-.344.052-.175-.174-.3.074-.449-.125-.2.075-.531-.025-.731 0-.149.125-.422.027-.522-.073-.199-.05-.424-.057-.574-.157-.224.3-.42.127-.595-.072-.124.074-.351-.104-.501.02-.274.1-.549-.241-.824-.166l-.021.27c-.274-.398-.628-.1-1.002-.25-.199.3-.35-.12-.574.105 0-.025-.076-.055-.052-.105-.124.05-.349-.126-.449.073-.05-.024-.044-.075-.094-.125-.149-.1-.374-.172-.448.052-.05-.299-.399.077-.574-.073v-.104c-.225.025-.504-.018-.679.157-.1-.175-.372-.203-.522-.178l-.052-.052c-.199.274-.349-.197-.574.052-.199-.1-.468-.177-.668-.052-.174 0-.378-.127-.553-.052-.15-.2-.368.176-.417-.073-.3.374-.832-.347-1.107.052-.024-.025-.094-.05-.094-.125-.1.025-.326.026-.375-.073-.15.025-.352-.004-.501.146-.1-.05.023-.124-.053-.198-.1-.025-.167.073-.292.073-.249-.125-.622.099-.772-.125-.149.025-.383-.069-.532.03-.225-.024-.348.028-.522-.072.05.025-.068.167-.167.167-.175-.374-.479.08-.679-.22l-.073.22c-.249.025-.13-.271-.354-.271-.151.124-.45 0-.574.25l-.094-.25-.126.177c-.074.025-.121-.023-.146-.073-.2-.125-.449-.083-.574.041.15-.124.022-.321-.104-.396-.125.524-.751.03-1.075.23-.299-.225-.392.193-.741-.032-.175.125-.626-.22-.626.105.024.124.171-.08.146.093-.05.1-.151.105-.251.105-.199-.748-1.018-.222-1.492-.397-.05.25-.153-.1-.303 0-.299.175-.667-.08-.991-.03-.3.273-.603-.144-.877.03-.024-.024-.077-.075-.052-.125-.125.25-.45-.057-.574.167l-.094-.167-.324.167v-.041l-.302-.032v-.094c-.151 0-.222.168-.272.292-.149 0-.328 0-.428-.125-.249.1-.45-.017-.699-.167-.124.4-.498-.131-.647.292-.124 0-.276.002-.376-.073-.1 0-.252.105-.177.23.1.1.227-.102.303.073-.125.05-.402.05-.501 0 .199-.35-.27-.154-.345-.428.026-.05.068-.02.094-.02l-.25-.126c-.05.1-.095.177-.22.052-.074.175-.296-.032-.396.167-.025-.124-.128-.191-.303-.167-.05.125.121.172.146.272-.074.024-.123.077-.198.052-.124-.025-.171-.18-.146-.23l-.428.052c-.1-.124-.077-.25-.052-.375 1.921-.15 4.068.028 6.064-.146 1.122.174 2.395.019 3.517.094 2.793.174 5.491.026 8.234.25 3.318.15 6.558.424 9.926.574v-.146c-1.447-.1-2.891-.247-4.363-.272-1.895-.323-3.893-.223-5.813-.323-.399-.1-.82 0-1.169-.125-1.098.025-2.353-.133-3.476-.083l-.365-.094.24-.125a41.46 41.46 0 0 1 0-4.986c-.074-.35-.147-.869.052-1.168.773.25 1.6.099 2.349.323.399-.2.648.117 1.023.042 0 .1.148.005.198.104l.052-.104c.124 0 .246.005.271.104.225-.15.672.12.647-.23l-1.544-.145c-.224-.225-.471.005-.72-.094-.275-.05-.551-.032-.825-.157-.324.225-.621-.2-.845 0-.25-.1-.475-.025-.699-.125.025-2.318-.059-4.705.041-6.998.274.074.582.002.856.052.15.024.171-.205.146-.23-.15.075-.347-.102-.522-.052-.374.05-.62-.2-.595-.574-.15.175-.255.252-.354.501-1.248-.224-2.692-.172-3.914-.521-.1.1-.176.227-.125.302.175.1.426.042.626.042 1.047.2 2.215.232 3.287.407.125.199-.143.215-.094.364.275.15-.132.426.167.501-.423.2.13.5-.219.699.274.15.125.525.125.824h-.052l-.052.375c.1.2-.098.52.052.72-.25.324.195.677-.104 1.001l.303.094c.075.225-.222.074-.272.199.075.1.275.225.125.375-.374.274.068.6-.156.95.175.198-.066.549-.042.823-.149.947.168 1.844-.031 2.816.1.1.301-.024.375.125l-.073.053c-.424-.1-.128.3-.302.5.199.075.031.22.031.344.175.225-.131.502-.031.751.024.125.255.018.229.167l-.198.032c.024.15-.158.271.042.396-.225.174.056.453-.094.553.1.299-.08.393-.032.667.126.2.227.049.376.198.025.05.009.132-.042.157-2.768-.1-5.867-.1-8.735 0-.524-.025-1.095-.077-1.743-.052-.374-.075-.726.1-1.075 0v-6.957l.125-.303c2.944.324 5.707.382 8.6.855.1.05.376-.282.376.042l.125-.125c.225.025.478-.015.553.209.1.124.068.373-.031.448.349.25-.443.723.156.897-.149.075-.006.295-.156.344.05.374.031.774.031 1.148-.274.299.123.545-.052.845.024.274-.1.526 0 .75-.25.2.268.4-.031.574-.075.15 0 .395.125.47.349-.075.132.328.282.427.723-.224.351-1.093.375-1.617-.074-.249.141-.522-.083-.771.299-.225-.049-.527.125-.751-.074-.225.032-.404.032-.678.05-.15-.206-.3-.032-.449-.199-.373.175-.748 0-1.147-.249-.399.208-.77-.042-1.168.175-1.072.019-2.147.094-3.244-.05-.075-.121-.092-.146-.167.275-.598-.051-1.304.199-1.877-.126-.25-.051-.594 0-.793.05-.224-.206-.28-.355-.23 0-.074.059-.117.083-.166a.227.227 0 0 0-.156-.073c-.125 0-.126.119-.126.219-.224.274-.321.6-.271.949.224.15.024.367 0 .542.175.2.123.481.073.73.1.15-.048.343.052.543-.224.299.227.476.052.75-.274.275.176.8-.198.95l.125.146c-.324.15.146.455-.104.605.224.648-.546.247-.72.521-.25-.274-.722-.175-1.096-.25-.25.2-.358-.127-.532.073-.2-.35-.291.177-.491.052v-.156c-.1.074-.184.202-.334.177v-.198h-1.096c-.05.074-.02.202-.146.177-.099-.075.052-.123.052-.198-.224.075-.574-.276-.699.073l-.104-.157-.073.21c-.05-.026-.098-.083-.073-.157-.349.024-.772-.152-1.096-.052 0 .074.15.154 0 .229 0-.2-.429-.078-.23-.303h-.918c-.1 0-.151-.247-.251-.073-.025.05.027.076.052.126-.174.124-.128-.153-.302-.178-.126-.024-.297.027-.397.052-.324-.274-.35.277-.699.178 0 .349.493.044.668.219-.324.1-.667-.097-.866.302-.175.025-.381-.002-.48-.177-.15-.075-.143.098-.167.198.324.374-.151.753.073 1.127.074.448.022 1.044-.053 1.418.275.399-.153.805.021 1.179-.074.473.004.744.053 1.168-.125.773-.029 1.697-.105 2.545-.149 0-.318-.005-.417-.104-.025-.15-.098-.376.052-.501-.026-.349.017-.871.167-1.22-.225-.175-.051-.348-.125-.522.174-.224-.074-.55.125-.699-.274-.15.228-.542-.146-.667.25-.05.096-.356.146-.48-.2-.474.049-1.12-.125-1.669-.05-.224.056-.57-.094-.845l.219-.448c0-.075-.096-.076-.146-.125.1-.275-.202-.404-.178-.678-.424-.225-.716-.12-1.189-.22l.145-.156a10.953 10.953 0 0 1-.897-.094v.22c-.175.024-.327-.196-.501-.022v-.146c-.075 0-.079.097-.105.146-.05-.025-.148.023-.198-.052l.157-.146c-.175-.125-.25.293-.449.094.024-.025.094-.076.094-.125l-.219.156-.032-.177c-.074.025-.173-.023-.198.052a.577.577 0 0 0-.397.052c0-.05.077-.075.052-.125-.174-.05-.051.246-.25.146-.1 0-.15-.102-.125-.177-.349-.05-.647.056-.971.031-.15-.224-.401.021-.501.021.024-.025.021-.044.021-.094-.15-.05-.322.015-.522.115-.1.025-.25-.117-.25-.167h.073c-.15-.15-.145.169-.345.094-.05-.349-.277.078-.427-.146-.35.025-.795.122-1.044-.052-.225.249-.395-.197-.595.052-.374-.224-.6.028-.95-.146v.042c-.199-.05-.451.132-.626-.042 0 .05.028.096-.021.146-.1-.025-.232.022-.282-.052-.05-2.344.053-4.74-.072-7.082.124-.499-.377-.325-.627-.574.075-.05.23.004.23-.146-.125-.05-.226-.175-.376-.125-.074.05-.073.196-.198.146-.025.15-.275.4 0 .5-.2.2.145.304-.105.428l.157.052c-.399.175.068.55-.156.824.05.05.176.165.052.24.174.2-.173.43.052.605-.2.324.05.646 0 .97-.025.15-.125.251 0 .375l-.073.073c.2.3-.006.698.094 1.023-.25.1 0 .294 0 .47l-.094.03.073.22c-.075.249.05.476 0 .75-.125.025-.125.222 0 .271-.1.3.126.602-.073.877.2.15 0 .372.073.521 0 .2-.077.45-.052.574 0 .648.124 1.447 0 2.17.05.298.08.743.104 1.042h-.031l-.021.929c.074.598-.05 1.191 0 1.815.05.299-.25.626 0 .876-.2.349-.077.671-.053 1.095-.15.05-.401.127-.626.052-.1-.025-.175.195-.25.02-.05-2.791-.075-5.88 0-8.448-.075-.2.008-.545-.042-.72v-8.177c.05-.324.222.098.397-.052.15.05.399.049.448.198h.073c.2-.224.172.273.397.073.274.025.627.057.877.157 1.297.324 2.495.391 3.767.74.025-.15.199-.048.324-.073.349.2.895.2 1.294.324.1-.05.272.051.397-.073.199.2.508.105.782.23v-.199c.15 0 .015.14.115.24.349.05.73.031 1.054.031l-.125-.125.052-.052c.325.125.822-.122 1.096.177 0 .3-.203-.051-.303.073-.174-.224-.374.027-.574-.073 0 .075.055.152.105.178l.073-.084 1.148.209c.449.224.951-.126 1.325.198.499-.1.923.175 1.347.125.299-.125.646.222.845-.052l-.428-.073.073-.052c.175.025.422-.081.522.094l-.073.083c.075 0 .23.141.355.042l-.052-.146c.05 0 .075.027.125.052.175-.1.42.048.595.073-.126.138-.343-.021-.491.052.15.2.402.075.627.125l-.126-.177h.272c.224.1.343.1.542.25l.178-.198c.133 0 .127.068.104.136.093-.154.354-.009.439-.136-3.043-.449-6.51-.874-9.602-1.273-.05-.074-.174.098-.199-.052l-.501-.073-.02.146c-.2.075-.073-.148-.199-.198-.174.05-.545-.222-.594.052-.025-.274-.301-.048-.376-.198-1.073-.1-2.318-.524-3.465-.573.05.174-.184.1-.209.25-.149-.15.026-.176.052-.25l-.543-.126v.053c-.025.074-.106.041-.156.041-.05-.05 0-.096 0-.146a2.315 2.315 0 0 0-1.169-.177v-.125h-.052v.031c-.025.05-.07.119-.146.094-.15-.025-.004-.096-.053-.146l-.146.052c-.274-.224-.757-.171-1.106-.271-.2-.05-.564-.207-.814-.157-.873-.349-1.92-.45-2.943-.698-.225-.175-.532-.25-.856-.25-.499-.175-.968-.247-1.492-.397-.2-.075-.454-.094-.679-.22-.424.05-.745-.303-1.169-.229-.499-.1-.968-.398-1.492-.448-.474-.175-.972-.174-1.347-.449-.249-.05-.526-.1-.75-.25-.724-.224-1.52-.325-2.193-.699-.898-.2-1.673-.49-2.546-.74-1.222-.499-2.542-.947-3.789-1.47-.972-.225-1.849-.682-2.797-.981-.299-.25-.72-.245-1.044-.47-.424.05-.703-.398-1.127-.448.15-.025.203-.15.303-.25l.073.146.02-.021c.1-.075.154-.321.303-.146.025-.05.15-.078.126-.178-.125 0-.303-.049-.303.125-.075 0-.177-.03-.177-.104.074-.274.53.05.48-.323.074.05.044.154.094.23l.104-.074c.1-.1.275-.226.125-.375.324.05.394-.349.668-.324.225-.348.576-.133.95-.083.25.25.627.23.877.48.324.05.723.2 1.022.448.225 0 .425.028.574.178.6.174 1.142.4 1.691.698.45.075.804.424 1.253.449.174.25.468.097.667.271.5.224 1.055.368 1.629.543 1.022.473 2.164.702 3.162 1.126.15.175.456 0 .605.25 2.22.723 4.441 1.521 6.711 2.045l.073.093c1.347.374 2.761.73 4.133 1.054 2.919.798 6.168 1.42 9.112 2.044 1.346.324 2.865.598 4.237.772.25.174-.024.47.25.595.249-.125-.098-.32.053-.47.773.125 1.716.249 2.515.323l.104.073c2.27.374 4.487.598 6.732.898 4.415.573 8.901.924 13.516 1.074.374.174.828.098 1.252.073.15.124.449-.079.574.02.074-.074.321-.12.146-.27-.274.124-.643.074-.793-.126l-.104.157c-.125 0-.228-.132-.303-.157-.1.1-.272-.048-.397-.073-.249.35-.442-.353-.741.021-.199-.349-.408.1-.657 0v-.094c-.2.175-.544.07-.793.094-.126-.25-.496.056-.721-.094l.094-.146-.094-.052-.052.198c-.074.075-.198.027-.198-.073-.399.1-.651.017-1.075.042-.324-.1-.978.084-1.378-.24-.174.125-.423-.128-.448.146-.175-.2-.444.054-.668-.146 0-.075.023-.13.073-.23-.125.125-.251 0-.376 0-.025.175-.019.106.031.23-.349.075-.774-.208-1.148-.083-.1.024-.102-.097-.052-.146l-.47.104c-.798-.075-1.6-.053-2.348-.302l.125-.105-.052-.041c-.124-.05-.18.098-.229.198-.574 0-1.071-.05-1.545-.198-.399.124-.868-.003-1.242-.178-.748.075-1.349-.252-2.098-.177-.074-.1-.269-.028-.219-.177-.2.274-.483-.098-.658.052a175.34 175.34 0 0 1-5.834-.897c-.05-.2-.268.03-.417-.094-.099-.1.073-.103.073-.177l-.157-.178c.125-.15-.048-.345.053-.47-.075-.548.173-1.149-.126-1.647l-.094.104c-.05.2-.128.322.021.522-.149.374.054.694-.021 1.043-.1.274.044.551-.156.75-.1-.149-.725.029-.825-.27-.174.174-.466-.005-.741.02-.199-.299-.506.05-.73-.125-.973-.274-2.094-.352-3.017-.75-.024-.15.276-.07.126-.22-.2.05-.224.097-.199.271-.124.025-.202-.048-.302-.073-.1-.124-.521.076-.397-.198-.623.05-1.343-.105-1.941-.23-.3-.224-.826-.017-1.2-.291-.15-.175-.426.015-.501-.209l-.146.084c-.225-.15-.573-.11-.773-.21-.05-.049.052-.064.052-.114-.025-.05.043-.225-.083-.25l-.073.292c-.374-.05-.744-.118-1.044-.292-.349.075-.799-.074-1.148-.198-.998-.175-1.974-.477-2.922-.751-.175-.075-.523.07-.647-.23l.25-.25c-.25.15-.174-.296-.448-.146l.02.23c.05.024.176-.177.25-.053-.124.05-.073.247-.198.271-.224-.1-.717-.028-.668-.302l-.5-.094c-.15-.125-.473-.003-.522-.177.074-.05.171-.027.271-.052 0-.025.004-.073-.02-.073-.15-.05-.408-.15-.408.125-.074 0-.148-.02-.198-.094.05-.1.08-.328.23-.303 0-.05.017-.146-.032-.146v.094c-.124-.05-.299.08-.323-.094.024-.025.026-.052.052-.052-.025-.025-.095-.154-.22-.104.075.15-.15.15-.125.25.05.125.293-.026.293.198-.05.05-.097.126-.147.126-.1-.225-.303-.351-.553-.376-.05-.25-.395-.126-.47-.375.1-.15.05.13.199.03.074 0 .15-.024.125-.124h-.104c-.2 0-.617-.106-.866.094-.1-.25-.479-.297-.553-.522l-.053.031c-.024.1-.098.222.053.271l-.074.074c-.124-.05-.273 0-.323-.199l.104-.104h-.104v.031c-.125-.074-.328 0-.428-.25l-.167.146c-.05-.224-.376-.124-.376-.323l-.355.198c-.15-.05 0-.144 0-.22 0-.099-.12-.029-.146-.104-.05.3-.395-.002-.595.074.05-.15.076-.216.126-.366-.15-.025-.03.221-.23.147-.1 0-.094-.103-.094-.178-.15-.024-.125.128-.25.178a.957.957 0 0 0-.303-.25c-.075-.1.15-.145 0-.22-.1.05-.275-.06-.25.115-.225-.075-.569.178-.669-.146-.074-.274.295.024.22-.25-.1-.025-.151-.098-.25-.073-.05.024-.072.075-.022.125-.05.124-.157.125-.282.125 0 .1.05.176 0 .25-.1-.024-.215.02-.24-.104-.074-.025-.103-.217.021-.292-.05-.05-.101-.15-.25-.125-.225-.499-.876-.377-1.2-.751-.05.224-.22.1-.345.125-.175-.05-.097-.196-.02-.271-.175-.1-.477-.077-.627.073-.15.1-.303-.05-.428-.126l.052-.072c.05 0 .076.048.126.072.024-.074.171-.154.27-.104-.05-.174-.277-.067-.427-.041-.05-.125-.117-.026-.167 0-.124-.075.017-.207-.157-.282-.1 0-.165-.15-.24 0l.24.125c.05.025.054.157-.02.157-.15-.2-.247.045-.397-.105 0-.399-.597-.053-.522-.427-.349.025-.327.525-.626.375-.025-.05.095-.175.22-.125.174-.175-.072-.272-.147-.396l.02-.021c-.124.05-.117-.306-.291-.157l.094.157-.021.02c-.1-.05-.271-.1-.271-.25v.052c-.05.075-.099.098-.199.073-.124-.224-.48-.276-.605-.5l-.146.156c-.075-.125-.197-.307-.397-.281-.05-.026.021-.097.021-.146-.2.024-.398-.047-.647-.146-.075-.075.004-.25-.146-.25-.374.248-.674-.15-1.023-.199l.02-.156h-.354c-.1-.075.003-.117.052-.167l-.292-.126c-.35.175-.275-.302-.574-.302.1-.274.62-.352.72-.75.274.149.203-.245.428-.345l.02.052c.026.05-.045.069-.02.094.124.05.04-.103.115-.177.024.024.08-.019.104.03.2-.099.253-.202.428-.302l-.198.021c-.075-.523.416.06.615-.24.15-.124.248-.282.073-.406.026-.075.103-.042.178-.042.35.299.473-.282.772-.282.3-.274.524-.544.898-.594.299-.424.875-.255 1.075-.803l.052.083c.224-.05.3-.381.574-.282.174-.174.451-.275.626-.375-.174-.324.297-.093.397-.292.324-.025.546-.305.845-.355.3-.25.695-.326 1.044-.5.3-.3.805-.267 1.054-.616.374.05.772-.207 1.096-.407.224.15.347-.092.522-.166.224.1.276-.281.5-.157.225-.274.826-.12 1.076-.47l-.032-.02-.02.02c-.075.05-.124.055-.199-.02.175-.2.323-.05.522 0 .15.075.173-.13.198-.23.075.025.18-.026.23.073.024-.1.273-.171.073-.27.05-.05.096-.022.146-.022v.167c.075-.025.13-.073.23-.073 0-.299.373.13.323-.219.1-.05.121.048.146.073l.073-.073c0-.2.283-.198.407-.198-.024-.424-.575.041-.824-.083-.174-.025-.257.274-.407.125-.3 0-.567.182-.866.281-1.048.075-1.946.769-2.944.918-1.92.948-3.942 1.67-5.688 2.942-1.846.797-3.465 2.422-5.187 3.619-.224-.3-.654-.025-.803-.449.2 0 .055-.256.23-.281.274.05.142-.371.417-.271.1-.1.175-.147.25-.272.225.1.224-.181.45-.156.074-.125.304-.19.229-.365.15-.075.27-.3.47-.125.074-.05.075-.176.125-.25.074-.15.23-.307.354-.282.025-.25.32-.224.47-.324l.271-.292c.35-.024.376-.604.825-.48l-.073-.093c.05-.1.176-.028.25-.052.075 0 .198-.151.073-.25.375-.05.606-.52 1.055-.47.1-.25.49-.252.615-.5.05.049.082.095.032.145.224 0 .197-.294.396-.219.175-.299.525-.15.7-.448.324.05.118-.35.417-.376.05.025.056.076.031.125l.147.042c.2-.075.1-.223.125-.323l.303.104c.1-.2.322-.18.521-.23.125 0 .153-.22.303-.145.274-.275.69-.248.94-.522l-.147-.104c.025-.075.123-.175.198-.125l.073.208c.25.2.231-.306.48-.156.275-.125.572-.201.846-.376.024-.074-.004-.144-.104-.219.05-.05.127-.08.177-.104v.198c.175 0 .399.054.449-.146.349.125.5-.327.824-.177.325-.15.678-.242 1.002-.292.175-.324.694-.125.793-.449.225.274.526-.158.825-.083.723-.324 1.422-.275 2.17-.574.3-.025.72-.02.92-.219.373-.025.777-.098 1.126-.073l-.02-.198c.024-.1.123-.054.198-.104.124.075.052.15.052.25.25.05.469-.075.668-.125.125.05.297.129.397-.021l-.126-.104.157-.126c.05.05.271.105.146.23l.397-.052c-.025-.25-.347-.15-.397-.25.4-.25.649.248 1.023.198.15-.075.448-.029.323-.303.125-.075.35-.075.45 0 .05.025.05.132 0 .157-.026-.05-.097-.032-.147-.032v.052c.2-.074.45.13.574-.02l-.25-.073c.074-.3.293.02.417-.105 0 .075-.073.103-.073.178l.23-.199c.024.025.123.076.073.126h-.073c.25.05.5.149.699-.126.374.3.697-.025 1.096 0-.1-.174-.376-.026-.376-.25.15-.05.379-.05.553 0 .05.15-.057.221-.156.271.124.175.299.052.449.052.274-.024.63.078.855.053.524.1 1.015-.109 1.514-.084l.031.084c.1-.05.345.074.47 0-.15-.374.276-.325.375-.574.125.25-.277.341-.177.615l.574.052c.2-.074-.017-.202.157-.302L102.99.97c.025-.174-.328-.174-.104-.323.05-.025.107.027.156.052.05.349.467-.054.616.146.225-.025.582.029.856-.021-.1.25-.054.35-.104.574.124-.175.303.045.427-.105.15-.1.025-.223 0-.323.025-.05.047-.15.147-.125.199.174.37-.1.594 0 .101.449.33-.122.554.177l-.272.25c.275.1.421.15.72.126.025-.1.075-.172 0-.272l.501.021c-.05.05-.078.173.021.198.125.025.18-.077.23-.177.074.025.169-.016.219.084l-.125.146c.249.05.606-.1.731.125-.075 0-.281-.073-.355.052l.448.198c-.124.2-.448-.147-.574.052.225.075.551.198.825.198.074-.124-.073-.077-.073-.177.024-.05.096-.098.146-.073-.099.25.198.076.198.25 0-.065.12-.225.199-.198l-.126-.125c-.124.025-.219-.083-.344.042-.05-.025-.052-.071-.052-.146a.232.232 0 0 1 .177-.073c.25.075.371 0 .595 0 .05.05-.196.098-.021.198.2.1.103-.152.178-.177.05-.025.069.027.094.052-.099.174-.028.424-.178.573.125.025.157-.03.282-.104v.209h.073v-.125c.2-.1 0-.477.324-.303-.075.2.378.201.104.376-.05-.025-.075-.098-.125-.073-.05 0-.084.048-.084.073.25.05.58.22.929.27.3-.124-.174-.294.125-.469.175-.05.176.151.251.25.15.026.169-.08.219-.156l.271.157-.093.042c-.125.249.271.005.271.229.074-.1.031-.25.156-.25 0 .025.042.023.042.073.2 0 .401.08.501.23-.074.099-.252.016-.177.166-.1-.025-.224-.141-.324-.042.075.05.249.167.324.167h.177v.031c.025 0 .079-.006.105-.03 0-.125-.132-.02-.157-.095.099-.074.3-.08.25-.23.101.026.282.054.282.178.275-.2.473.224.647.323-.025.075-.177.178-.052.178.15-.05.101-.271.251-.271.124-.025.125.146.125.146.175-.225.27.069.47.093l-.074.178c.125-.025.3-.296.449-.146-.05.075-.119.177-.219.177.1 0 .168.169.292.094-.074-.474.604.022.804-.303l.021.032.073-.23c-.25-.124-.323.232-.522.157l.073-.198c-.25.124-.322-.2-.522-.25.074.05-.049.116-.073.166-.249.1-.071-.298-.271-.323-.225-.075-.352.032-.501.156l-.053-.125.147-.104c-.05 0-.044-.077-.094-.052-.125.1-.204.101-.303-.073.074 0 .075-.072.125-.146-.05-.075-.123-.053-.198-.053-.274.325-.177-.424-.501-.125-.324-.249-.97-.37-1.419-.469-.574-.15-1.226-.399-1.775-.449-1.048-.274-2.066-.401-3.089-.625-.424-.125-.874-.076-1.273-.25-.349.074-.699-.071-1.023-.022-.124.025-.32-.226-.47-.052-1.471-.15-2.92-.077-4.341-.177Zm16.01 3.244-.094.094c.05.05.071.156.146.156a.388.388 0 0 1 .251-.177c-.1.2.127.37.302.344 0-.2.349.051.324-.198-.449.075-.48-.593-.929-.22Zm-31.154 12.39.032.022v-.021h-.032Zm.032.022.073.125.125-.125c-.074.05-.148.05-.198 0ZM44.074 51.922c.05-.025.048-.07.073-.094h-.104c-.017.051.01.073.031.094ZM101.894.595h.449l-.105.25h-.271c.175-.125-.099-.176-.073-.25Zm-1.075.125-.021.23c.175-.075.352-.149.626-.074l.345-.031c-.25.124-.723-.042-.898.282l-.302-.157.25-.25Zm-1.305.01c.09.01.187.048.261.073-.074.05-.28-.053-.23.146h.178c-.024.05.049.07.073.094-.15.175-.293-.048-.417-.073.024-.05.02-.096.02-.146-.024-.05-.075-.02-.125-.02a.288.288 0 0 1 .24-.074Zm.564.021.417.073c-.1.15-.344-.072-.344.177l-.073-.25ZM97.03.824c.02 0 .04.002.053.02.024.05-.027.056-.053.105l-.073-.052c-.055-.019.014-.075.073-.073Zm.856.177c.019-.006.042-.004.042.021v.021h-.073c0-.025.013-.035.031-.042Zm5.751 0c-.105.002-.212.059-.324.021.025.1.2.178.324.178.05-.025.129-.128.104-.178a.207.207 0 0 0-.104-.02Zm2.599 0h.146l-.178.25.032-.25Zm-2.046.021c-.149 0-.255.249-.23.324l.126.052c.25-.025.028-.251.104-.376Zm1.075 0c-.074.025-.23-.02-.23.105.075.15.176-.077.251.073.076.124-.104.148-.104.198l.052.052c.224-.05.473.075.772.125l-.094-.177c-.175-.15-.326.074-.501 0 .025-.175.28-.03.23-.23-.1.075-.326.004-.376-.146Zm-9.664.105a.19.19 0 0 1 .135.02c.05.175-.203.151-.302.25-.038-.074.043-.238.167-.27Zm7.692.104c-.054.003-.105.031-.105.094.075-.025.176.072.251-.052a.253.253 0 0 0-.146-.042Zm3.496.146c-.097.014-.192.11-.23.167.05.124.147.152.272.177.075-.075 0-.148-.073-.198l.125-.125a.138.138 0 0 0-.094-.021Zm-14.392.052c.036 0 .074.012.114.02-.25.076-.45.22-.699.22.175-.044.331-.242.585-.24Zm1.335.02h.126l.031.022-.157-.021Zm12.399.022-.073.104c.05.025.079-.027.105-.052l-.032-.052Zm.825 0c.1.1.03.352.229.302v-.052c-.024 0-.026-.02-.052-.02.05-.1-.053-.23-.177-.23Zm-15.582.041c.013-.002.023-.002.041.01 0 .076-.07.074-.146.074.038-.019.064-.075.105-.084Zm16.125.032c-.052-.006-.082.05-.063.125h.094c.024-.025.031-.07.031-.094a.113.113 0 0 0-.062-.031Zm-16.48.198.323.031a.364.364 0 0 1-.323.094v-.125Zm-.376.104.105.052-.157.094.052-.146Zm18.442.136c-.018 0-.034-.002-.052.01-.026.075.095.075.146.125l.052-.125c-.037.019-.091-.011-.146-.01Zm-18.755.01c.024 0 .044.013.063.031l-.22.126c0-.075.083-.156.157-.157Zm23.243.324.02.052-.073.073.053-.125Zm-2.328.093c-.073.018-.129.1-.073.157h.146V2.42a.103.103 0 0 0-.073-.01Zm-22.877.063c.06.01.103.094.177.094h-.271l.02-.073h.011c.025-.019.043-.025.063-.021Zm4.676 0c-.037.005-.074.008-.105.02-.074.175-.003.375.146.45.15-.05.205-.22.23-.345-.038-.112-.16-.139-.271-.125Zm19.777.344-.021.125.366.126c-.025-.25-.22-.126-.345-.25Zm-28.46.073v.084h.051c.025-.025-.026-.059-.052-.084Zm2.19.115a.235.235 0 0 1 .105.01c-.05.1-.182.132-.282.157 0-.075.08-.155.178-.167Zm4.572.01v.105h.073c.025-.025.077-.023.053-.073-.025-.05-.076-.032-.126-.032Zm-.657.105c-.1.05-.071.169-.021.219.074-.05.25.003.25-.146-.024-.125-.154-.048-.23-.073Zm-4.206.052h.041l-.041.073V3.17Zm27.605.02v.126h.157v-.125h-.157Zm-28.284.147h.146c.025.05-.016.058-.041.083l-.105-.083Zm-.198.083c.05 0 .02.065.02.115-.024 0-.072.029-.072-.021l.052-.094Zm29.734.042c-.074 0-.173.082-.073.156l.073.021v-.177Zm-34.952.042c-.052.012-.036.15-.073.187.05-.025.206-.006.156-.156-.037-.031-.066-.036-.083-.031Zm36.643.01-.021.177c-.037.056-.105.042-.135 0l.031.146c.374-.025.632.305.981.355.125.025.266.048.365.073.25.224.783.396 1.107.396l-.303-.219c-.349-.074-.571-.309-.845-.333-.05-.05.02-.065.02-.115a2.057 2.057 0 0 0-.553 0c0-.399-.523-.206-.647-.48Zm-28.085.177c.05 0 .075.048.125.073v.021c-.074 0-.175.006-.125-.094Zm-9.78.146v.105h.053v-.105h-.052Zm9.404.157.198.041c-.05.025-.248.058-.198-.041Zm-9.623.073c-.06.028-.087.11-.031.167.025-.05.08-.117.104-.167-.025-.006-.053-.01-.073 0Zm5.083.073h.157l-.032.094-.125-.094Zm3.538.083c.03-.004.059-.008.084.01-.05.125-.176.082-.25.157-.02-.056.076-.153.166-.167Zm-9.017.042c-.086-.008-.194.032-.157.125.05.025.082.052.157.052.025-.05.098-.081.073-.156a.161.161 0 0 0-.073-.021Zm.615 0c-.05 0-.193.096-.093.146.05-.05.094-.071.094-.146Zm8.788 0c.025 0 .069-.004.094.02 0 .076-.068.101-.094.126v-.146Zm-.762.052a.296.296 0 0 1 .105.021c-.075.174-.17.08-.345.104.056-.056.139-.121.24-.125Zm-8.996.146-.105.094c.075.05.107.13.157.104.075-.075.023-.173-.052-.198Zm.522.021v.052h.073v-.052h-.073Zm-.919.094a.07.07 0 0 0-.052.031l.146.198.105-.094c-.025-.024.029-.08-.021-.104-.075.019-.127-.04-.178-.031Zm2.756.052c-.06 0-.115.027-.115.083 0 .05.048.053.073.053.025-.05.104-.076.104-.126a.213.213 0 0 0-.062-.01Zm2.087.083a.192.192 0 0 1 .094 0c-.05.15-.199.103-.324.178l-.073.073c.025-.05.049-.048.073-.073.056-.056.139-.15.23-.178Zm36.81.073-.073.126c.075.024.124.048.199.073-.025-.075-.051-.174-.126-.199Zm-41.757.073c-.025.15-.097.255.052.355.05 0 .08-.058.105-.083-.15-.05.093-.296-.157-.272Zm.397 0c-.1.026-.149-.026-.199.073l.105.073c.05 0 .093-.07.093-.146Zm41.663 0 .052.073.021-.02c0-.05-.048-.053-.073-.053Zm-42.76.23c-.05.025-.17.025-.145.125h.104c.025-.05.067-.075.042-.125Zm-.145.219c-.075.3-.42.149-.595.323-.075-.124-.155-.022-.23.052-.05.225-.447.152-.397.501-.274-.025-.397.419-.647.22-.25.049.004.277-.073.427-.2-.15-.2.123-.375.073-.025.15.12.171.146.271l.375-.22c-.1-.298.295-.13.345-.354.449-.15.707-.47 1.106-.72.025-.373.548-.294.773-.469-.175-.074-.279-.004-.428-.104Zm.553.031c-.04-.004-.065.036-.084.073h.084c.024 0 .066-.052.041-.052-.018-.012-.028-.02-.041-.02Zm-5.27.021c-.1 1.52-.068 3.117-.043 4.662h.094c.175-.398-.2-1.176.324-1.251.374-.424.903-.494 1.252-.918-.05-.15.117-.153.167-.177.125-.225.325-.17.574-.345 0-.174-.22-.305-.146-.48-.012.013-.017.026-.02.032 0 .15-.182.244-.282.219-.225.1-.444.322-.668.521-.225-.124-.298.306-.522.157-.06-.045-.044-.088-.01-.125-.148.143-.411.127-.564.323-.1-.798-.059-1.645-.084-2.493l-.073-.125Zm.72 2.295c.022-.026.051-.043.051-.073a.307.307 0 0 1-.052.073ZM54.865 5.559c-.083.015-.098.197-.136.271l.22-.041c.024.024.097.044.072.094-.174.074-.498-.078-.448.27.024.2.18.307.355.282a9.79 9.79 0 0 0 1.44.741c.15 0 .2.279.376.104.523.3 1.027.602 1.575.751l.053.125c.424.026.715.375 1.064.574.275-.025.581.12.73.344.375-.025.647.301.971.376.55.2 1.049.476 1.597.75.275-.149.35.3.7.251.124.125.373-.001.448.198.3-.05.473.367.773.167-.05-.1-.05-.192-.126-.292-.2-.025-.406-.231-.605-.156-.274-.175-.642-.395-.991-.47-.25-.199-.552-.103-.752-.427-.773-.275-1.496-.69-2.244-1.064-.599-.125-.994-.78-1.618-.856a15.151 15.151 0 0 0-2.243-1.314l-.105.167-.219-.219.094-.052c-.175-.175-.47-.179-.595-.428-.125.075-.221.006-.271-.094-.044-.043-.087-.057-.115-.052Zm28.67.397h.073l-.146.177.073-.177Zm-1.242.448c0 .05-.055.052-.105.052 0-.025.055-.052.105-.052Zm-1.127.48c.024 0 .079-.004.104.02 0 .05-.006.08-.031.105-.05 0-.148-.075-.073-.125ZM67.525 8.407c.05.1.298.048.323.198-.075-.2-.498.15-.323-.198Zm1.273.365c.075-.025.198.05.198.125v.052l-.198-.177Zm9.111.073c.019-.002.038.004.063.01.025.025-.028.048-.052.073h-.094c0-.037.027-.077.083-.083Zm-10.436.052.219.052-.22-.02v-.032Zm6.512.031-.031.167c.025 0 .073.03.073-.02s.083-.147-.042-.147Zm-5.114.574h.02v.02l-.02-.02Zm.167.094c.2.025.356.231.605.156l.126.125c-.225.05-.556-.132-.731-.281Zm-4.091 1.324.083.053v-.053h-.083Zm.595.282c.06.008.1.075.156.094l-.219-.031v-.042c.025-.013.043-.024.063-.021Zm7.128.48a.613.613 0 0 1 .167.01c.15.075.245.28.47.23.174.15-.099.315-.199.365-.598.423-.968 1.028-1.492 1.377-.275-.125-.63-.124-.804-.324.35-.299.774-.705 1.023-1.178.371-.088.48-.455.835-.48Zm-6.022.031c.05 0 .121.009.146.084v.041l-.146-.125Zm9.184.522c.028.004.042.033.042.052v.052c-.025.05-.148-.044-.073-.094.012-.006.022-.012.031-.01Zm24.078.803c-.05.012-.063.067-.063.104.1.025.101-.03.126-.104a.125.125 0 0 0-.063 0Zm.084.125c-.05.249-.22-.12-.345.104.1.125-.098.224.052.324.1.15.245 0 .345 0 .1-.1.048-.303-.052-.428Zm-20.655.177v.073h.052c.025 0 .032.004.032-.02 0-.05-.059-.053-.084-.053Zm-.636.355c.126-.017.234.173.365.02v.095l-.418-.094a.117.117 0 0 1 .053-.021Zm-8.392.24c.098-.012.212.034.355.177.15.025.222.071.397.146-.374.573-.975 1.029-1.399 1.627-.374.524-.896.869-1.096 1.492-.399.249-.475.745-.824.97.05.249-.299.297-.324.521-.2.374-.425.727-.699 1.001-.05.225-.174.368-.323.543-.225.349-.326.877-.7 1.126.05.225-.121.376-.271.5-.4.849-.75 1.723-1.273 2.546-.3 1.022-.87 1.936-1.17 2.983l-.48 1.429c-.274.1-.594.017-.918.042-.025-.324.228-.573.303-.897.075-.45.298-.818.323-1.242.374-.548.465-1.224.814-1.773-.15-.498.553-.542.428-.99.05-.325.376-.528.376-.877.125-.349.401-.673.501-1.022.125-.15.199-.326.324-.5.05-.325.421-.476.396-.824.225-.375.504-.718.679-1.117.449-.249.344-.852.793-1.126.474-.449.651-1.168 1.2-1.617.1-.374.418-.646.668-.97.474-.398.648-1.073 1.221-1.397.262-.15.406-.717.7-.751Zm9.112.104h.093v.073l-.093-.073Zm1.095.376c.075 0 .22-.01.22.114v.052c-.025-.1-.17-.092-.22-.166Zm-9.132.135c.025 0 .049.006.073.031l-.094.053-.052-.074c.025 0 .048-.01.073-.01Zm.49.01c.129-.006.237.037.262.199.2-.025.317.07.417.219.225-.125.3.183.449.208.624-.1.981.521 1.555.397.125.423.474-.147.574.302.524 0 .893.445 1.367.47.2.249.504-.03.679.218.1-.124.267.059.417.084.05.274.606.097.606.271.249.274.897.072.897.396.624.125 1.24.4 1.89.574l-.022.021c.125.125.496-.043.595.282.2-.1.379.243.553.093v.053c.225-.025.592-.02.741.23l.501.04c-.05.026-.02.08-.02.105.299 0 .702.026.876.25l.199.021c-.5.2-1.226.174-1.775.324-.05.1-.27.052-.344.052-.499.224-1.177.175-1.576.573-.4-.15-.671.249-.97.324-.275.2-.674.153-.898.427-.3.025-.354.426-.678.376-.1.075-.151.22-.251.146-1.197 1.147-2.638 2.395-3.037 4.015-.175.225-.272.546-.397.845l-.052-10.346c-.05-.1-.207-.071-.282-.021l-.167.177c-.025 2.318.048 4.784-.052 6.853.175.15-.1.27 0 .47 0 .547.004 1.05.052 1.574-.174.15.123.32-.052.47-.025.299.075.702 0 1 .025.15.1.352 0 .501-.075.449.127.892-.073 1.241-.125.275.324.448 0 .647.25.3-.13.625.094.824-.05.05-.021.128-.021.177.075.1-.025.247 0 .397-.025.124.077.196-.073.271-.549-.15-1.229.177-1.628-.271.1-.2.106-.374.031-.574-.174-.075.073-.178.073-.302-.1-.125-.325-.124-.25-.324.075-.05.275-.023.25-.198l-.146-.292c.025.025.067-.052.042-.052.025-.075-.075-.156-.125-.156.1-.1.23-.2.23-.324-.2-.075-.249-.2-.199-.375.075-.05.148-.065.198-.115-.024-.1-.15-.209-.25-.209.324-.1-.122-.474.177-.698.025-.175-.026-.368.073-.543l-.25-.323.146-.031c-.125-.275.125-.695 0-1.043.25-.15-.12-.303.104-.428l-.146-.146c.05-.05.148-.05.198-.125l-.198-.178.198-.166-.156-.282c.025-.125.225-.049.25-.198-.075-.175-.171.025-.271 0v-.167h.146c-.125-.175.257-.424-.042-.449.15-.05-.03-.282.094-.406l-.125-.146c.075.024.131-.003.156-.053-.074-.2-.177-.173-.177-.323.075-.15.146-.447.021-.647-.075-.05-.202-.252-.052-.302.025-.075-.094-.092-.094-.167.075-.075.2-.005.25-.104l-.156-.146c.075-.05.127-.123.052-.198-.3-.15.352-.306.052-.48.225-.15-.145-.326.105-.5 0-.15-.228-.045-.178-.22.075-.025.226.052.25-.073l-.229-.23c.1-.149.205-.322.23-.52l-.157-.126c.05.025.107.075.157 0 .174-.2-.254-.476.02-.626.175-.523-.1-.974 0-1.523-.299-.124.173-.215-.052-.365-.449.05-.325-.697-.824-.448-.05.15-.09.324-.24.448-.2.698.222 1.317-.052 1.94.15.324-.15.721.125.97-.1.424-.225.973 0 1.471-.15.798 0 1.701 0 2.524l-.178.271c.175.2-.005.477.094.751-.2.125-.016.27.084.344-.125-.024-.125.149-.125.199.299.249-.308.43.041.605.1.2.008.42-.041.594.124.15-.05.272 0 .396-.275.15 0 .274 0 .449l-.126.605.167.02c.05.125-.097.224.053.324l-.25.22c.398.149-.094.448.156.698-.225.299.217.679-.157.928.225.125.105.297.105.522l-.105.073c-.524.05-.995-.075-1.42 0l.074.104c-.125.05-.274.175-.449.125-.075-.075.108-.206-.042-.281-.1-.025-.13.125-.23.125l.147.083c-.2-.075-.394.218-.543-.031 0-.05.046-.05.02-.125l-.02-.021c-.2.274-.647.096-.97.146l.124-.177-.281.03v.147h-.199l.146-.177c-.1-.1-.171.079-.271-.021-.05.374-.644.17-.918.146-.2-.1-.304-.025-.428 0v.052a2.018 2.018 0 0 0-.522-.073l-.105-.125c0 .15-.125.146-.25.146-.125-.05.08-.171-.094-.146l-.031.125c0-.05.029-.1-.021-.125-.2.15-.571.077-.845.052 0-.125-.132-.002-.157-.052-.1.025-.065.123-.24.073v-.146l-.303.125v-.073c-.15-.125-.249.166-.448.042.224-.35.344-.67.344-1.043.15 0 .155-.172.23-.272.024-.199.102-.453.177-.678.324-.423.248-.921.647-1.345.125-.549.396-1.072.595-1.596.1-.274.421-.544.397-.918.25-.025.054-.25.104-.375.15.05.148-.103.198-.178l-.052-.177c-.025-.1.082.106.157.031.15-.074.217-.196.167-.396.15 0 .175-.199.25-.323-.1-.2.381-.326.157-.5.2-.026 0-.283.198-.283.15-.224.192-.372.292-.646.075-.2.407-.174.282-.449.25-.124.2-.221.449-.396l-.084-.125c.624-.25.478-1.045 1.002-1.419.075.05.15.077.25.052.025-.15-.153-.305.021-.48.424.2.28-.317.554-.417-.05-.1-.075-.202 0-.302h.052v.125c.075.075.175-.002.25-.052.025-.15-.229-.122-.104-.271l.177.177c.275-.1-.053-.424.272-.448-.175-.225.13-.282.23-.407.149.1.269-.099.344-.198.024-.1-.196-.176-.021-.25.075-.15.367.103.292-.147a.076.076 0 0 0-.031-.02c.17-.028.315-.132.438-.303-.025-.15-.159.027-.209-.073.175-.125.557.046.532-.303.113-.012.259-.066.387-.072Zm27.92 0-.022 3.714c.024 0 .07.028.094-.021.025-1.097.125-2.496 0-3.693h-.073Zm-17.91.376c.05.025.1-.008.125.042v.031l-.125-.073Zm1.398.042c.025.075-.148.054-.198.104l-.052-.02c.05-.076.15-.084.25-.084Zm-12.618.323c.019-.003.04-.002.052.01h-.104c.012 0 .033-.007.052-.01Zm27.136.083c-.1.499-.1 1.123 0 1.596-.1.324-.071.715-.02 1.064h.072c.05-.847.003-1.72.052-2.618l-.104-.042Zm-14.236.146c.038.006.08.04.125.053.023.005.048.012.073 0v.02l-.073-.02-.177-.032c.019-.018.033-.023.052-.02Zm.397.074c.1.05.2.025.25.125-.05 0-.2-.076-.25-.125Zm-19.131.156h.094c.05.025-.07.075-.094 0Zm20.174.125c.055-.007.067.142.105.198l-.178-.125c.031-.043.055-.07.073-.073Zm1.347.167v.125l.02-.02c0-.05.004-.08-.02-.105Zm-.7.177h.126v.105h-.126v-.105Zm-7.41.303.324.094c.05 0 .104.006.104.03l-.104-.03c-.1 0-.274.03-.324-.094Zm1.576.594c.624.175 1.193.374 1.816.574-.623-.15-1.242-.25-1.816-.574Zm1.942.626h.104l.02.052-.124-.052Zm.824.25.303.094c-.05.125-.278-.069-.303-.094Zm8.433.01c.067-.005.121.066.177.084l-.25-.052a.108.108 0 0 1 .073-.031Zm-22.554.116c-.025 0-.117.068-.042.093h.021c.025-.025.021-.069.021-.093Zm24.38.02c-.062.007-.059.203-.209.146-.05.075.103.157.178.157.05-.05.1-.155.125-.23-.043-.056-.073-.075-.094-.073Zm-9.654.073.418.105a.39.39 0 0 1 .23.052l-.23-.052c-.15-.025-.318-.03-.418-.105Zm10.26.146c-.025.003-.05.01-.063.01-.05.076.125.076.125 0-.012-.011-.037-.013-.062-.01Zm.887.303v.125c.024.025.094-.02.094-.02l-.094-.105Zm.522.073c-.06-.003-.113.017-.126.104l.021.021c.124.025.257.03.282-.094-.05 0-.118-.028-.177-.031Zm.553.25v.125l.02-.02c0-.025.004-.08-.02-.105Zm.167 0v.178c.024.074.075.004.125-.021-.074-.025-.016-.107-.042-.157h-.083Zm-.386.01c-.07-.002-.14.04-.084.115l.073.032c.024-.025.073-.05.073-.125a.118.118 0 0 0-.062-.021Zm26.279.22c-.074.075-.173.096-.323.146-.075.174.125.122.125.27-.175.076.104.276-.146.251.274.225-.201.522.073.647-.074.124-.148.305.052.355-.274.224.125.424 0 .698l-.052-.03c-.05.024-.177-.048-.177.051.05.05.096.073.146.073.05.274.031.725.031.95h-.021l-.052.396c.05.05.172 0 .146.125 0 .1.047.131.146.156.15-1.221.078-2.817.052-4.088Zm-25.131.052c-.04.013-.07.108-.032.146.05 0 .099-.05.073-.125-.012-.019-.028-.025-.041-.021Zm.824.219c-.074-.007-.17.09-.115.146l.105.031c.024-.05.123-.05.073-.125a.08.08 0 0 0-.063-.052Zm.365.052c-.074.025-.126.128-.052.177.25-.124.352.273.501.073-.074-.224-.299-.175-.449-.25Zm.95 0-.104.125c.024 0 .026.021.052.021.024-.05.102-.146.052-.146Zm-13.714.052c.103-.015.192.036.167.198.724-.15 1.515 0 2.338 0 .1.075.205.148.355.073.175.225.471.473.845.324l.073-.052c.075.349.504-.124.679.25.15-.15.195.104.344.104l.376-.031v.052h.25c-.024.05.027.08.052.104l.22-.03v.072c.549-.025 1.221.452 1.795.751 2.345 1.546 4.017 3.789 4.79 6.331l.324 1.127c-.4.174-.94-.158-.94.49-.1.35.172.675.022.949-.375.274-.6-.35-.95 0l-.053.104a2.265 2.265 0 0 0-1.22-.03c-.4-.05-.693-.14-1.117-.116-.1-.399-.606.072-.73-.302-.275.125-.62-.05-.92 0-.224-.224-.472.25-.646-.073a2.829 2.829 0 0 0-1.023-.031c-.823-.125-1.621-.049-2.37-.199-.1-.897-.1-2.039 0-2.837.025-.398-.149-.823 0-1.272 0-.274-.124-.621 0-.97-.1-.573.07-1.206-.104-1.68-.15-.024-.094.183-.094.282v6.832c-.299.224.2.466-.125.74l.125.282v9.721c-.25.174-.606.07-.856.22-1.945.099-3.959.474-5.855.698-.523.1-1.173.17-1.722.146-.2.075-.554.177-.803.177-.724.025-1.243.224-1.942.324-.249-.025-.643.05-.918.125-.224.05-.481.054-.73.104v-3.87l.073-.125c.174.2.157.48.407.605h.073c-.125.15-.098.326.052.376l.146-.324c0 .2.328.243.303.418-.05-.025-.132.002-.157.052.15.124.379.345.104.47-.025.074-.003.177.073.177h.105c-.2.074-.027.33.073.354-.05.025-.128.04-.178.115.5-.025-.202.658.397.459-.174-.175.252-.26.052-.46a.3.3 0 0 0 0-.395c.125-3.141.055-6.23.105-9.471l.167-.198c.15.324.297-.179.522.02 0-.1.106-.168.156-.093.05.249.496.019.72.094.05-.175.23-.07.355-.094.1.124.322.05.522 0 .324-.125.6.374.824 0 .2.274.523.096.773.146.2-.175.395.126.595-.073.898.05 1.696-.004 2.494.146.124-.175.347-.069.522-.094.274.125.556 0 .856.125.2-.2.445.15.594-.125.35.224.798.046 1.222.146-.225.224.147.495-.053.72.175.748-.051 1.275.073 2.023-.2.274.126.525-.073.824.1.274.128.675-.02.95.124.223-.004.593.02.917.1.324-.024.719 0 1.043-.15.623.05 1.254.073 1.878.05.199-.146.765.178.865l.125-.125c.024-.399-.048-.846.052-1.22-.25-.2.248-.37-.052-.47.125-.498-.1-.899.125-1.397-.299-.424.174-.776-.125-1.2.324-.174-.222-.37.052-.594 0-.1-.153-.246.021-.271-.1-.374.054-.651-.02-1.075.274-.274-.326-.546.072-.845-.074-.224 0-.23 0-.48-.374-.548.175-1.045 0-1.668-.074-.15.096-.395-.104-.47.275-.324.004-.77.104-1.095-.2-.249.173-.627-.052-.876.125-.224.028-.527-.02-.75.024-1.397.123-2.67.072-4.017 0-.498.004-1.314.053-1.887l-.157-.105c.075-.05.229-.175.105-.25l-.376.052c-.15.524.197 1.196-.052 1.794.024.125.131.203.031.303.175.623-.133 1.2.042 1.773-.175.398.15.819-.073 1.168.2.174-.102.347.073.521.024.35-.275.648 0 .897-.125.325.053.775-.146 1.075.1.374.076.723.052 1.022-.3-.349-.87-.055-1.17-.23-.174.275-.28-.093-.48.032-.822-.1-1.589-.182-2.337-.157-.2-.15-.383.133-.532-.041-.4.324-.595-.183-1.044.041l-.073-.125c-.175.1-.504.1-.678.125-.2.125-.37-.216-.595-.041-.225-.175-.496-.055-.72-.105-.025.025-.078.05-.053.125-.124-.374-.426.054-.626-.146-.673-.05-1.37.067-1.993-.083-.175-1.072.12-2.193.47-3.265.349-.822.748-1.763 1.471-2.336.175-.324.63-.527.929-.751.05-.424.523-.345.772-.595.15-.224.444-.253.668-.427.1-.2.38-.026.48-.25.3-.05.623-.128.898-.303.274-.025.669-.02.918-.22.2.2.306-.153.48-.103 1.896-.499 3.533-.12 5.354.104 2.27.3 4.167 1.715 5.688 3.41.574.823 1.231 1.627 1.556 2.525.224.199.021.692.396.667.075-.299-.225-.541-.25-.866-.275-.598-.553-1.278-1.002-1.752l-.126-.27c-1.496-1.72-3.288-3.388-5.583-3.787l-.126-.125c-.873-.1-1.619-.399-2.442-.449-.374-.024-.673-.152-1.022-.177-.325-.05-.672.2-.971 0-.25.1-.65.1-.95.125-.15 0-.3-.172-.376.052-.2.025-.322.077-.521.052l.448-.229c-.299-.224-.573.148-.897.073.024.224-.407.001-.282.25l.23.105c-.125.074-.252.069-.376.094v-.147c.124-.074-.019-.28-.094-.354l.073-.167c.124.174.374.05.449-.198.074.075.192.148.292.073-.024.05.026.048.052.073.2-.1-.023-.424.25-.449.175.075.504-.128.554.146-.024.1-.131.207-.032.282.3-.025.03-.33.105-.48.124.1.069.228.219.303.274.124.305-.178.355-.303.05.2.247.13.396.104.038-.1.158-.182.261-.198Zm14.507.25a.409.409 0 0 0-.146.147l.052.02c.025-.05.144-.117.094-.166Zm.25 0v.094h.053v-.093h-.052Zm11.252.199v.094h.052v-.094h-.052ZM99.4 20.14c-.037-.007-.09.048-.053.104h.053c.024-.025.046-.048.02-.073-.005-.019-.008-.03-.02-.031Zm1.576.03c-.101-.024-.129.118-.105.168.076-.05.105-.092.105-.167Zm-19.987.022v.104c-.2 0-.368.04-.543.115.175-.05.344-.17.543-.22Zm2.828.01c-.065-.006-.135.02-.135.094l.282.042v-.042c-.012-.05-.081-.088-.147-.094Zm-1.106.042c-.074 0-.173.044-.198.094h.104c.05 0 .119-.044.094-.094Zm17.492.052c-.068.016-.131.052-.156.115.1.05.255.05.355 0v-.073c-.051-.05-.13-.058-.199-.042Zm-19.955.167.02.25c-.224-.224-.22.156-.469.032.125-.15.25-.257.45-.282Zm.72 0h.146c-.05.025-.02.107-.02.156-.175.05-.076-.081-.126-.156Zm.668 0v.073h-.041c0-.05-.009-.073.041-.073Zm19.705.031c-.058-.003-.11.038-.073.094h.104c.026 0 .021-.048.021-.073a.1.1 0 0 0-.052-.02Zm.209.042v.125h.125v-.125h-.125Zm-20.822.02c.066-.009.126.001.188.063-.125.15-.297-.031-.397-.031.075 0 .144-.022.21-.031Zm10.886.136.052.021.052.052-.104-.073Zm.49.136c.056.003.12.023.157.01h.01c-.024.075.017.297.167.271.2-.124.254.084.428.084.05-.025.02-.107.02-.156.425.323.954.097 1.378.396.275-.125.394.28.668.031.375.175.722.55 1.096.376.474.174 1.102.244 1.576.344.1.274-.051.67.073.97-.1 1.346-.026 2.797-.052 4.193-.3-.324-.327-.896-.626-1.22.074-.25-.19-.33-.115-.553-.174-.424-.731-.695-.856-1.169-.174-.074-.175-.226-.25-.375-.275-.2-.37-.574-.72-.699-.125-.249-.402-.445-.627-.594.025-.175-.398-.252-.448-.501-.075-.224-.493.03-.418-.344-.549-.2-1.002-.657-1.576-.98.012-.076.06-.087.115-.084Zm-12.587.01a.321.321 0 0 1 .126 0c0 .225.274.274.449.324-.15.15-.474-.197-.45.177-.176.02-.257-.145-.406-.157a.25.25 0 0 0-.136.032v-.052c.056.015.1.023.136.02.21-.013.086-.302.281-.344Zm23.974.021c-.008-.003-.009.004-.021.01-.024.225-.174.066-.323.115-.026.125.091.107.167.157.124-.025.254-.055.229-.23-.018 0-.03-.041-.052-.052Zm-23.003.021c-.053.051-.134.1-.219.084l-.02-.053c.055-.037.166.003.24-.03Zm1.127.104c.044 0 .1.02.126.032 0 .124-.128.052-.178.052-.025-.063.009-.084.052-.084Zm-1.075.115a.303.303 0 0 1 .126.01c-.275.125-.4.38-.7.355v-.052c.328.109.316-.293.574-.313Zm23.953.042c0 .075.098.227.198.177.074 0 .097-.1.073-.125l-.052.02c-.1.05-.144-.047-.219-.072Zm-24.662.26c.009-.002.01-.001.01.011v.02l-.042-.02c.013 0 .022-.007.032-.01Zm26.133 0c-.049 0-.104.026-.104.063h.104c0-.025.066-.052.042-.052a.091.091 0 0 0-.042-.01Zm-.156.011c-.075.025-.226-.023-.251.052.025.05.101.021.126.021.05-.025.15-.023.125-.073Zm.626 0c-.076 0-.147.046-.271.02 0 .05.048.101.073.126l.198-.146Zm-44.596.052c-.175.1.052.196.052.271 0-.075.072-.27-.052-.27Zm16.437.021h.074c0 .05.004.08-.021.104l-.053-.104Zm1.149.052.323.104c-.05 0-.323.07-.323-.104Zm27.114.104c-.074.075 0 .174.073.199.075-.025.028-.1.053-.126-.05-.024-.076-.073-.126-.073Zm.627.042a.206.206 0 0 0-.136.084c.15.025.429.22.553.02-.093 0-.271-.125-.417-.104Zm-45.38.157-.146.093c.175.075-.058.155.042.23.15 0 .08-.299.104-.323Zm1.848.219c0 .024-.007.079-.032.104h-.073c0-.05.055-.104.105-.104Zm19.454.073c-.06-.018-.155.052-.23.052-.324-.175-.49.398-.814.448-.748.698-1.45 1.503-2.223 2.076 0 .075.1.17 0 .219l-.104-.094c-.25.25-.623.414-.772.689.124.174.249.253.448.104.774-.648 1.526-1.395 2.349-2.118.523-.349 1.024-.85 1.398-1.324-.013-.031-.032-.046-.052-.052Zm-1.628.386c-.124.006-.277.115-.293.24-.399-.025-.577.474-.876.698l-.198.052.073.126-.042.052c-.075.1-.078-.052-.178-.052-.623.548-1.102.941-1.7 1.564l-.074-.042c-.174.3-.57.375-.72.7.15.049.024.266.198.291 1.322-1.171 2.644-2.243 3.966-3.515-.018-.084-.082-.118-.156-.114Zm30.694.114a.076.076 0 0 0-.052.073h.115v-.041c-.012-.025-.035-.041-.063-.032Zm-28.94.449c-.175.075-.25.323-.45.323-.823.773-1.775 1.479-2.598 2.326-.25.25-.82.571-.919.97h.146c.799-.673 1.5-1.178 2.223-1.95l.021.03c.5-.522 1.147-.972 1.67-1.595l-.094-.104Zm20.852.125c0 .05-.003.125-.052.125l-.126-.094.178-.031Zm11.699.052v.073c.026 0 .077-.023.053-.073h-.053Zm-10.311.136c.056-.003.104.027.104.114l-.219-.052c0-.025.059-.06.115-.062Zm.511.114.126.021c.074 0-.176.179-.126-.02Zm1.138.22h.052l.032.03-.084-.03Zm2.077.25c.2.05.443.032.543.156-.125-.075-.518.093-.543-.156Zm.699.125.376.073v.052c-.05-.025-.274-.118-.324.031l-.052-.156Zm.762.083c.255-.013.426.139.71.073l-.146.094c-.2-.124-.454-.046-.679-.146.041-.01.079-.019.115-.02Zm12.858.021.052.073c.05 0 .042-.048.042-.073h-.094Zm1.148.021.042.104v-.104h-.042Zm.292.052c-.025.175.274.026.324.125-.024-.15-.224 0-.324-.125Zm2.526.25c-.024.05-.006.176.094.126 0-.025.031-.027.031-.052-.024-.025-.075-.098-.125-.073Zm2.995.053v.041h.042v-.041h-.042Zm-1.315.02c-.036-.004-.064.036-.083.074.05.024.099-.028.125-.053a.08.08 0 0 0-.042-.02Zm-18.995.021c-.083.03-.108.207-.146.282.075 1.72-.024 3.71 0 5.455-.124.274.07.449.345.449-.025.024-.021.079-.021.104.1.075.045.342.219.292-.1-.25.329-.245.105-.47.149-.249.126-.497.052-.771.074-.2-.075-.523 0-.772-.224-.224.175-.276 0-.5.299-.25-.081-.603.094-.877.074-.249-.296-.443-.021-.667-.05-.15.101-.451-.073-.501 0-.125 0-.253.125-.303.05-.15-.075-.125-.125-.25.374-.2-.256-.35.094-.573-.175-.25.073-.496-.125-.72-.125-.075-.393.153-.418-.146-.044-.031-.077-.041-.105-.032Zm5.469 0c-.1.1.07.082.094.157-.05.075-.123.052-.198.052v.094c.15.1.3.07.449.02l-.105-.197c.125-.025.251 0 .376 0s.25.15.125.25l.397.104c.15-.025.23-.148.355-.198.074-.025.073.023.073.073.124.025.251.252.376.177.024-.1-.023-.102-.073-.177l.125-.125.198.344c.175.025.299-.191.449-.042-.249.374-.673.54-.898.94-.723.498-1.47 1.351-2.244 1.95-.274.249-.748.669-1.022 1.043.024.075.068.027.094.052l.5-.449c.4-.2.605-.5.929-.824.349-.249.792-.521.992-.97.275.1.299-.248.449-.323.399-.224.721-.573.97-.897.35 0 .35-.523.699-.449.051-.473-.7-.2-.949-.375-.674-.075-1.512-.205-2.161-.23Zm15.791.084.032.063c-.01-.025-.007-.05-.032-.063Zm.564.063c-.016 0-.03.01-.042.01-.1.05-.008.17.042.146.05-.025.031-.075.031-.125 0-.025-.016-.032-.031-.032Zm-.449.01-.021.02c-.019.007-.033.007-.042 0l.042.105.052-.073c.026-.025-.007-.052-.031-.052Zm-20.383.104c-.025-.002-.056.013-.094.063v4.339c.15.548.097 1.248.021 1.846.05.025.107.1.157 0v-5.977c.018-.074-.008-.266-.084-.27Zm-31.634.22c.016-.007.038 0 .063 0 0 .024.004.051-.021.051h-.052c-.013-.024-.005-.046.01-.052Zm-17.377.177v.146h-.02l.02-.146Zm73.997 0c-.058.017-.086.058-.105.114l.042.105-.042.052-.156-.125c-.225.299.374.02.448.219l.074-.126.104.126c.05-.15.226-.201.376-.25-.225 0-.429-.298-.554.051l-.125-.166c-.025 0-.043-.006-.062 0Zm.741.114c.025 0 .044-.02.094-.02-.05 0-.069-.005-.094.02Zm.96.052c-.035.012-.063.055-.063.073h.073c.025.026.021.076.021.126.05 0 .1.029.125-.021.05-.175-.224-.028-.125-.178-.012-.006-.019-.004-.031 0Zm-.887.063c-.081.006-.146.036-.146.136.1-.025.29-.05.365-.126-.05 0-.138-.016-.219-.01Zm1.617.01v.053c.025-.025.084-.027.084-.053h-.084Zm-1.221.032.073.094v-.073c0-.025-.048-.021-.073-.021Zm-12.795.073c-.05 0-.073.023-.073.073h.052c.05 0 .021-.048.021-.073Zm-7.859.146c-.374.05-.696.579-.971.803-.698.449-1.194 1.2-1.868 1.773l-.177.02c-.175.25-.52.325-.595.575.05.074.123.147.198.073.549-.524 1.169-1.019 1.743-1.617h.104l1.169-1.127c.05-.224.522-.201.397-.5Zm-20.248 2.044c.125.2-.153.378.022.553.05.075.18.004.23-.021 0-.175-.077-.432-.251-.532Zm-35.724.449v.104h.104v-.104h-.104Zm7.743.771c-.045.013-.087.067-.03.105h.02c.025-.05.077-.055.052-.105-.012-.006-.026-.004-.041 0Zm44.388.053c-.074 0-.126.123-.052.198.05-.05.026-.149.052-.198Zm-42.655.073c.025.024.106.075.031.125h-.073l.042-.125Zm-7.201.156c.053-.004.125.017.219.073l.156-.052c1.771-.025 3.368.252 4.99.177.124.025.217.202.291.052.849.175 1.77-.105 2.568.094.374.125-.07.375-.02.574-.175.05-.4.004-.575-.021-.25.174-.447-.1-.647.125-.25-.224-.475.151-.7-.073-.149.2-.271-.15-.396 0-.648-.075-1.03.073-1.628-.052-.075.075-.175.177-.25.052l-.021-.031-.146.125c-1.322-.125-2.724 0-4.07 0-.2-.1-.126-.247-.126-.396.203-.142.123-.63.355-.647Zm-1.545.02h.898a2.01 2.01 0 0 1-.355 1.023c-.275 0-.494-.046-.794-.02-.024-.375.176-.653.251-1.002Zm-.783.397c.05.025.007.076.032.125l-.23.052c-.05-.174.173-.027.198-.177Zm15.802.073c.868 0 1.59.126 2.463.104-.275-.024-.273.326-.522.25l.25-.124c-.05-.175-.25-.048-.376-.073v.219c-.1-.15-.322-.342-.521-.167-.05.075-.209-.052-.209.073l.052.02c-.05.125-.175.049-.25.074-.05-.1-.193-.275-.292-.125-.125.398-.375-.174-.45.25-.05-.1-.257-.275-.406-.125-.1 0-.142-.12-.167-.22l.041-.145c.131-.007.263-.01.387-.01Zm5.082.23h.094l-.073.073-.02-.073Zm7.212.323.365.052c-.074.1-.15.07-.25.094.05-.1-.04-.121-.115-.146Zm1.639.052.396.073c-.1.075-.346.052-.396-.073Zm.824.073h.303c.024.05-.253.125-.303 0Zm.689.042c.053.003.098.01.136.01-.075.05-.203 0-.303 0a.595.595 0 0 1 .167-.01Zm.438.01c.599.075 1.447 0 2.046.198.374-.024.74-.02 1.064.105.2-.2.379.174.554 0 .1.025.276.02.375-.104.05.075.119.15.094.25-.499.1-.966-.121-1.44-.146-.15.224-.278-.155-.428.094-.349-.324-.698.146-1.023-.178-.449.125-.818-.17-1.242-.02v-.199Zm-19.913.178c.192.008.424.135.574.041.2.075.278-.143.428.032.2 0 .55-.057.5.292-.099.199-.103.424.022.573.075.424-.125.75 0 1.075-.05.224-.12.478-.021.678-.15.224.07.645-.105.844 0 .35.005.747.105 1.096-.175.174-.032.526-.032.75-.124.649-.043 1.445.032 2.118-.125.773-.03 1.32-.105 2.117-.05.823.155 1.294.105 1.992.1.1.119.178.094.303-.2.125-.569 0-.793.125-.474.175-1.078.122-1.576.271-.2-.573.054-1.016-.021-1.564.174-.3-.03-.631.344-.856-.075-.075-.196-.19-.146-.365.075 0 .196.123.271-.052l-.073-.407c-.075-.05-.117.131-.167.032v-.073c.125.124.145-.103.22-.178.199-.299-.248-.52.052-.844-.1-.225-.175-.502 0-.751-.15-.773.047-1.593-.053-2.316.15-.15-.047-.351.053-.5-.25-.424.322-.728-.053-1.127.05-.1.05-.192 0-.292-.074-.349.402-.723.053-1.022-.025-.225.197-.403-.053-.553.075-.15.101-.099.25-.198-.298-.224-.126-.623-.051-.897.224-.075-.021-.203-.021-.303.05-.037.103-.044.167-.041Zm-3.59.041c.424.025.624-.043 1.023.032.324.05.63-.104.928.02l.324-.052c.075.225.123.527.073.751.424.449-.097.997.177 1.471-.05.175-.174.524 0 .574-.15.299-.08.752-.104 1-.025.225-.048.515-.073.814.15.225-.197.506.052.73-.05 0-.075.049-.125.074.324.124-.024.274.125.448.05.474-.075.97-.125 1.419.15.1-.028.252.146.302-.2.125.056.447-.094.647.15.1-.106.277.094.302-.25.05-.003.343-.177.417.324.35-.116.705.083 1.054-.274.274.22.324.02.573-.124.374.352.743.053 1.117.224 0 .075.175.125.25-.3.124.042.48-.407.48-1.67.324-3.465.544-5.062 1.043-.748-.05-1.47.321-2.244.396-.723.25-1.593.202-2.191.626-.3-.15-.674.125-1.023.125-.075.05-.172.052-.271.052-.075-.2-.056-.451-.23-.626.174-.224-.046-.57-.02-.844.024.024.016-.007.041-.032.025-.1-.09-.096-.115-.146.125-.2-.029-.399.02-.573.275-.2-.246-.25.053-.449-.05-.05-.177-.078-.177-.177-.05-.15.25-.15 0-.25v-3.933c.25-.972.12-2.025.344-2.972.175-1.446.548-2.891.898-4.287.25-.075.579.079.803-.021-.324.823-.528 1.816-.678 2.639.1.15-.073.272-.073.396-.25.449-.07.997-.22 1.47.05.1-.022.325.053.45-.224.199.1.374 0 .573l.094.104c.349-.448.172-.974.271-1.523.3-.623.233-1.469.532-2.117.15-.25.02-.62.22-.845-.15-.324.345-.472.146-.771.124-.2.176-.526.5-.501.225.2.505.023.804.073.25.05.523-.22.773-.021.873-.15 1.894.02 2.692-.104v.052c.25-.075.444.072.668-.177.15-.076.324.249.45 0 .099.124.323.13.448.03.1-.149.251.067.376-.083Zm18.588.178c1.87-.025 3.616.196 5.437.146.424.124.952.056 1.45.156l2.067.052.094.094c-.074 1.346.032 2.67.032 3.89l.02 1.075c-.05.299-.024.64 0 .939-.074.15-.125.48.073.605-.024.05-.098.07-.073.146.075.124.176 0 .25 0 .025-.175-.073-.324.126-.449-.074-.498.052-.916-.073-1.44.05 0 .1-.078.125-.103l-.052-.178c.25.175-.073.648.25.772-.1.175.102.478-.198.553.35.224-.077.593.272.792.05.075-.071.1-.146.126-.05.224.223.482.073.657.1.075-.026.298.073.323h.125c-.075.025-.101.025-.125 0-.125.05.053.297-.021.396.15 0 .075.176.125.25-.224.15-.458-.005-.657.095-.35.025-.663.156-1.013.156-.2.125-.53-.13-.73.094-.15-.2-.3.097-.45-.052-.249.2-.566.026-.865.25-.599 0-1.126-.023-1.775.052l-.02-.052c-1.572.25-2.975.279-4.446.553V31.04l.052-.104Zm12.545 0h.125c0 .05-.003.104-.052.104h-.073v-.104Zm.574.02 1.127.084c-.449-.025-.724.023-1.148-.052l.021-.032Zm7.848.042c-.036-.007-.076.063-.094.063h.125v-.021c-.012-.025-.019-.04-.031-.042Zm.386.084c0 .025.021.052.021.052 0 .05-.049.052-.073.052l.052-.104Zm-3.35.177h.157c0 .075-.157.075-.157 0Zm.282 0c.299.025.491-.052.741.073-.125.224-.316-.127-.491.073l-.25-.146Zm-2.891.042c.028 0 .061.006.073.031 0 .05-.1 0-.125 0 0-.025.024-.031.052-.031Zm4.039.02c.263-.025.548.103.772.084-.075.2-.355-.016-.48.083-.124-.274-.368.067-.543-.083a.503.503 0 0 1 .251-.083Zm1.419.115a.35.35 0 0 1 .126.021c-.025.05-.124.031-.199.031 0-.037.03-.052.073-.052Zm-8.287.073c2.795.1 5.414.2 8.183.449.549.05 1.154.175 1.753.125.399.3-.201.569.073.918-.074 1.844-.057 3.598-.031 5.517.474-.124.33.425.355.7.074.199-.196.123-.272.197-1.097-.05-2.271.073-3.444.073l-.104-.073c-1.921.275-4.06.098-5.98.397l-.553-.073.02-8.23Zm11.721.125c-.091-.008-.188.032-.188.126.025.05.066.02.115.02.074.025.131-.075.156-.125a.232.232 0 0 0-.083-.02Zm6.867.073c.1.05.251-.024.251.126h-.271l.02-.125Zm-3.84.126.094.125c-.075 0-.099.129-.199.104l.105-.23Zm-.397.041a.242.242 0 0 1 .146.032v.073l-.302-.042a.25.25 0 0 1 .156-.063Zm1.868.084.094.146c.1-.274.351.28.501-.094l.073.146a.558.558 0 0 1 .324-.146c-.025.075.054.096.104.146.15-.2.477.027.626-.073.474.125 1.05 0 1.524.125.224-.025.521.005.72.105.3-.05.671.019.846.093-.075.025-.099.103-.073.178-.774.15-1.375-.18-2.098-.105a22.557 22.557 0 0 0-2.641-.25c-.024-.125-.124-.171 0-.271Zm-.271.115a.3.3 0 0 1 .125.01l-.031.177c-.075-.199-.274-.002-.449-.052.131-.037.238-.12.355-.135Zm-.804.062.199.021c-.05.05-.273.079-.199-.02Zm13.599 1.168-.125.501c.1.025.147.144.271.094.225-.1.151-.274.251-.449-.074-.2-.272-.046-.397-.146Zm-34.003.146c-.548.524-1.066.88-1.565 1.43l-.303.124c-.499.599-1.069.947-1.617 1.471-.424.598-1.124 1.168-1.723 1.617.05.124-.183.203-.083.302l.48-.25c1.422-1.396 3.411-3.044 4.957-4.59 0-.05-.096-.054-.146-.104Zm13.693.877-1.273 1.147h-.125c-.724.773-1.466 1.242-2.14 2.065-.1.075-.305.055-.355.23l.178.072c.274-.174.579-.542.929-.667.773-.922 1.612-1.451 2.411-2.274.05-.274.457-.17.532-.47 0-.049-.106-.053-.157-.104Zm-33.095.25h.021v.125h-.02v-.125Zm19.277.146v.052h.105v-.052h-.105Zm-.042.188c-.065.018-.125.099-.156.114l.052.105c.074-.05.22-.032.22-.157-.038-.065-.077-.073-.116-.062Zm-.334.135c-.698.673-1.493 1.397-2.317 2.17-.124.324-.528.203-.553.552-.399.15-.544.57-.918.72-.374.698-1.298.979-1.597 1.627.649-.25 1.228-.978 1.826-1.502.973-.847 1.916-1.739 2.84-2.586.398-.2.651-.482.876-.856-.075-.025-.107-.1-.157-.125Zm-25.017.23-.093.146.02.03.052-.083c.05 0 .097-.093.021-.093Zm6.409.02c.025 0 .08.007.104.032v.041l-.104-.073Zm-6.085.084c-.093.029-.246.203-.324.219-.548-.15-.72.477-1.168.75-.524.55-.995 1.023-1.618 1.472-.15.124-.204.423-.428.323 0 .125-.046.248-.146.198-.524.449-.929.776-1.378 1.325.05.174.027.24-.073.365.075.075.176.027.25.052 1.597-1.596 3.412-3.017 4.958-4.537.01-.15-.018-.184-.073-.167Zm27.344.042c.075.025.023.182.073.281l-.031.021c-.2-.05.008-.252-.042-.302Zm11.022.375c-.175 0-.229.28-.428.23-.549.672-1.217.995-1.816 1.668-.25.025-.353.268-.428.418-.374.174-.668.598-.992.897 0 .15.12.08.219.104l1.096-1.043c.125-.224.407-.154.407-.428.4-.1.493-.501.867-.626.249-.523.975-.647 1.075-1.22Zm-32.407.428.105.125-.126-.031.021-.094Zm-6.7 1.189c-.35.05-.55.352-.7.626-.523.224-.903.671-1.377 1.095-.224-.05-.174.281-.323.281-.425.15-.378.695-.877.72-.075.374-.52.45-.72.699.05-.025.048.027.073.052l-.167.073c-.075.075-.259.17-.209.344-.1.175-.245.105-.344.105.05.249-.322.397-.272.646h.167c1.696-1.57 3.372-3.018 4.968-4.464v-.146l-.22-.031Zm35.715.553v.104c.024-.025.076-.054.052-.104h-.052Zm-7.911.302v.125h.052v-.104s-.027-.02-.052-.02Zm-21.469.5c.025.026.198.02.073.095-.075.025-.098.147-.198.073l.125-.167Zm34.661.887c.049.002.1.015.156.052.075-.1.22-.016.345-.041.05.025.031.096.031.146-.074.1-.225.028-.251.177h.178c-.149.125-.448 0-.647 0-.275-.25-.481.12-.731.02-.149.425-.443-.127-.668.272-.249 0-.426-.018-.626.031l-.021-.125c-.274.275-.528-.176-.678.198-.175.025-.097-.146-.271-.146l-.105.167-.094-.073c.026-.05.066-.07.042-.146-.15-.15-.143.171-.292.146-.249-.15-.53.028-.804.052-.225.225-.368-.271-.543.053-.124-.1-.374-.154-.448.02l-.052-.052c-.125.25-.429-.248-.554.125-.174-.05-.372-.197-.521.053l-.053.073c-.1-.025-.048-.248-.198-.199-.1.2-.472 0-.647.199-.225-.1-.548.124-.772 0-.35-.125-.452.201-.752.052-.274.15-.575-.029-.824.146 0-.25-.145-.675.104-.824 2.519-.15 5.088-.276 7.358-.25.573-.125 1.295.01 1.868-.115.188.093.321-.017.47-.01Zm-10.218.376c.024.25.145.58-.104.73-.375-.075-.622.146-.97.146-.101.075-.2.175-.325.125.05-.224-.196-.13-.27-.23-.15.125-.38.184-.554.21-.2-.1-.4.141-.574.166l-.397-.02c0-.026.028-.08-.02-.105l-.052.125c-.025-.324-.279.128-.428-.146-.225.324-.703.076-1.002.25 0-.024-.021-.048-.021-.073-.3-.05-.346.6-.595.126-.474 0-.998.075-1.472.25-.1-.125-.275-.05-.375 0l-.021-.104-.209.198c-.1-.075-.146-.198-.271-.198 0 .046-.064.054-.073.093a.172.172 0 0 1 .031.032l.042.02v.053a.285.285 0 0 0-.042-.073l-.031-.021v-.01c-.14-.11-.355.124-.522-.042-.124.349-.424-.13-.574.094l.146.125c-.175-.175-.425.226-.7-.073-.249.15-.466.345-.74.146l-.23.083c-.024-.15-.203-.058-.302-.083 0 .274-.27-.072-.345.177l-.146-.094c-.2.648-.55-.373-.824.25 0-.074-.124-.179-.199-.104-.05-.299-.031-.594-.031-.918 1.846-.299 3.67-.376 5.615-.625.15.174.295-.078.47-.053 2.045 0 4.02-.402 6.115-.427Zm15.833.052.052.052c-.025.05-.075.02-.125.02l.073-.072Zm.574.031v.042l-.021.031.021-.073Zm6.199.084c.014.004.029.023.042.041.024.075-.072.042-.146.042.018-.056.061-.097.104-.083Zm-8.245.062c.026 0 .028-.004.052.021v.052l-.052-.073Zm-.365.052c.05.025.09.024.115.073-.026.025-.067.021-.115.021v-.094Zm.814 0c0 .025-.016.049-.042.073h-.052c0-.05.044-.073.094-.073Zm21.656.72.198.02c-.05.05-.223.08-.198-.02Zm-49.053.063c.194.005.297.233.188.386.025.174.098.503-.052.677-.125.025-.35-.078-.376.147-.299-.474-.372.375-.647-.074-.174.075-.324-.126-.449.074-.074-.2-.203 0-.302 0l-.021.02c0 .125.245.13.146.23-.15-.125-.418-.102-.543-.052l-.073.073c-.1-.35-.423-.047-.647-.146.024.274-.25.294-.449.219-.174-.075-.53.353-.73-.021-.075.05-.22.078-.22.177-.074 0-.123-.131-.198-.156-.224-.025-.2.323-.449.198l-.177-.198c-.15.1-.006.525-.355.375-.074-.174-.24-.152-.365-.177l-.084.052.126.125c-.3-.249-.275.148-.575.073l-.041.105c0-.175-.226-.277-.376-.178l.094.125c-.2-.025-.122.228-.271.303-.05-.075-.146-.303-.021-.428l.02-.02-.052-.074c-.174.1-.249.325-.448.25-.05.05-.05.147-.126.147-.124-.025-.197-.277-.396-.178-.05.125-.351.303-.501.428-.05-.125.102-.149.052-.323-.2.2-.543-.155-.668.219.075.15.172-.019.271.031v.094c-.274.05-.397-.096-.647-.146 0-.05-.023-.1-.073-.125-.025-.025-.058.027-.083.052 0 .05-.019.069.031.094h.052c-.025.05-.03.129-.104.104.075-.3-.203-.005-.303-.104-.075.299-.376.003-.5.302-.375.025-.545.225-.92.125-.124-.124-.302-.156-.427-.03-.125.348-.642.15-.866.375-.075-.15-.253-.1-.303 0-.2-.3-.302.247-.626.073.05-.025.006-.09.031-.115-.05-.05-.106-.084-.156-.084.124.424-.465-.017-.366.407-.15-.15-.276.046-.375.146-.15-.1.147-.171-.052-.271-.1.15-.477.35-.627.125-.124.1 0 .22-.198.22-.35-.225-.094-.643-.22-.992l.095-.302c.224.224.353-.154.553-.104 0-.05-.03-.122.02-.146.05.199.296.093.47.093.1-.249.374.085.45-.24.124.25.305.017.48.042l.375-.146c.075.1.074.427.323.303.2-.075-.003-.301.147-.376.299.175.501-.353.751-.104.524-.175 1.02-.144 1.545-.22.249-.273.554.07.803-.229.2.1.393-.15.543 0 .424-.249.85-.05 1.273-.25.175.2.32-.091.47.083.15-.348.454.097.678-.177.325-.05.793-.129 1.117-.104.374-.25.78-.148 1.18-.198.373-.15.773-.02 1.147-.22.15.15.348-.124.522 0l2.422-.354a.248.248 0 0 1 .083-.01Zm-11.125.375c-.028 0-.084.025-.084.063.05 0 .094.023.094-.052 0-.007 0-.01-.01-.01Zm68.632.209v.104h.073c.024 0 .052-.027.052-.052-.05-.025-.075-.077-.125-.052Zm1.868.323.031.125c.025-.025.021-.069.021-.094-.024-.025-.026-.03-.052-.03Zm.908.25c-.022.016-.036.048-.01.073h.083v-.052c-.013-.037-.051-.036-.073-.02Zm-62.412.073v.126c.05-.025-.008-.076.042-.126h-.042Zm62.903.126h.104v.052l-.104-.052Zm-64.25.052v.073h.074c0-.025.02-.023.02-.073h-.093Zm65.001 0c.1.075.203.129.303.104-.076.05-.209.02-.334.02l.031-.124Zm-27.261.052c-.024.25-.126.648-.052.897.024.374-.072.594.052.918.026.772-.229 1.65.021 2.274l.146-.073c.175-.898.026-1.949.052-2.92.026-.325-.051-.674.073-1.023l-.292-.073Zm-42.06.667.104.126c-.124.05-.054-.076-.104-.126Zm73.767.24c-.065 0-.119.042-.156.042l.146.073c.025-.05.108-.054.083-.104-.025-.013-.051-.01-.073-.01Zm-.532.042h.073l-.042.094-.031-.094Zm-81.584.031c.063-.006.117.02.166.094h.355c.025.1-.058.221.042.271-.174.25.01.644-.24.918-.1-.05-.305-.174-.355 0l-.052.073.125.157c-.224-.175-.418.326-.542-.073-.15.15-.279.098-.428.198-.025.025-.048.027-.073.052.025-.025.048-.052.073-.052.025-.025.02-.08.02-.105l-.094-.093c-.1.448-.77-.152-.845.396-.224.05-.43-.023-.605.052 0 .374-.376-.049-.376.25-.25.1-.547-.076-.647.199l-.125-.178c-.075.125-.3.076-.25.25-.2-.1-.423.003-.648.053l-.094.167c.025-.1-.126-.17-.25-.22-.15.175-.673-.002-.898.272-.125-.1-.324.02-.449.02l.147.178c-.05.125-.172.073-.272.073-.125-.05-.355-.424-.48-.125h-.146c0-.05.029-.121-.02-.146-.2.025-.355.146-.23.271-.15.124-.398.076-.522.25l.02-.25c.025 0 .084.008.084-.042-.1-.124-.351.048-.501.073-.15.1-.054.193.02.292-.274.125-.401.284-.75.209-.05-.075-.016-.205-.116-.23-.224-.124-.153.178-.302.178v-.25h-.146l-.032.218c-.075 0-.152-.018-.177.032v.052c-.125-.05-.29-.05-.365.125.075.15.171.046.271.021-.025.1.019.148.094.198-.1-.075-.666.174-.616-.25-.075-.075-.13-.171-.23-.146.05-.025.076-.055.126-.105-.275-.05-.078-.425-.303-.5.05-.025.104-.075.104-.125-.15-.125-.05-.324 0-.449v-.02c.075.124.245.076.345-.074.374-.074.753-.099 1.127-.323.324.174.62-.025.919-.125l-.105-.136c.106.067.269-.063.334-.041.025.05.004.106.052.156.15 0 .118-.23.293-.23.224.1.522.078.772.053.025-.075.1-.149 0-.199-.025-.024-.044-.03-.094-.03.05-.05.096-.022.146-.022-.025.05.048.076.073.126.2-.025.126-.277.376-.178 0 .05-.096.096-.02.146.248-.05.624.035.824-.24l-.073-.052c.025-.1.165-.048.24-.073.05.025.081.119.156.094.05-.075.026-.12.126-.219h.052c-.05.125-.125.171-.125.271.05.05.144.021.219.021.3-.174.826-.17 1.2-.344l-.23-.146.804-.125c-.025.074-.077.123-.052.198.175-.25.447.122.647-.178l-.125-.125c.25-.15.447.177.647.053.2.224.226-.451.375-.053.15-.024.397.047.397-.177.025.025.055.073.104.073.075-.075-.078-.29.147-.24.1.05-.023.096.052.146.1-.025.346.002.271-.198.225.243.468-.022.658-.042Zm5.082.063v.031h.105v-.031h-.105Zm77.159.094a.35.35 0 0 0-.281.135l.125.146c.15-.024.374.077.449-.073a.296.296 0 0 0-.293-.208Zm-83.64.031h.042l-.167.104.125-.104Zm84.246.052-.219.25.104.074.125-.073c.132-.088-.008-.192-.01-.25Zm-30.674.094v.084l.052-.053c0-.024-.026-.056-.052-.031Zm-49.084.104v.126h.02c-.024-.025.03-.126-.02-.126Zm80.04.073v.157h.052c0-.05.046-.076.02-.125 0-.05-.048-.032-.072-.032Zm.198.073.031.199c.075.024.101-.048.125-.073-.024-.075-.057-.126-.156-.126Zm-81.209.126v.125h.02c0-.025.03-.125-.02-.125Zm82.065.125v.125h.02c.05-.05.053-.094.053-.094s-.049-.031-.073-.031ZM65.95 44.4h.146l-.042.125-.104-.125Zm7.285.042c.024 0 .073-.023.073.052v.031l-.073-.083Zm13.14.104-.021 2.295c0 .174-.078.444.146.469l.052-2.086c-.124-.224.182-.653-.167-.678h-.01Zm70.02.198c-.075.05-.047.176-.021.25.225-.074.427.302.626.053.1-.673-.356.121-.605-.303Zm-86.75.146-.032.084h.052c0-.025.03-.084-.02-.084Zm-6.837.25v.105h.073v-.052c-.024-.025-.023-.053-.073-.053Zm5.782.084.032.115c.05-.025.02-.07.02-.094 0-.025-.027-.021-.052-.021Zm-3.61 1.137-.053.083-.052-.031.104-.052Zm8.954.031c-.1.274-.079.617.02.866-.223.797.156 1.553-.093 2.326-.1.448.048.723.073 1.147h.073c.05-.2.23-.332.104-.532.1-.523.017-1.145.042-1.669-.025-.598.058-1.42-.042-2.117l-.177-.02Zm-11.48.021c-.175.025-.374.203-.45.303.175.05.275.069.45.093v-.396Zm8.954.073c-.15.174-.048.479-.073.678.025.025.077.044.052.094h.073c-.075-.15.127-.37-.073-.47.2-.074.021-.252.021-.302Zm-15.561.323.052.052-.125.032.073-.084Zm4.54.167c0 .01-.003.01-.021.01.012 0 .018-.004.02-.01Zm.376.032c-.046.012-.073.066-.073.104h.052c.025-.025.073-.044.073-.094-.019-.006-.037-.015-.052-.01Zm-6.93.458c-.1.125.096.196.146.146.025-.074-.047-.146-.146-.146Zm-.804.22a.078.078 0 0 0-.052.03c0 .1.081.17.156.095 0-.075-.055-.131-.104-.126Zm6.21 0h.104c.025.074-.08.048-.104.073v-.074Zm12.19.083c-.065-.005-.137.077-.063.115h.094c.025 0 .032-.048.032-.073a.08.08 0 0 0-.063-.042Zm-19.318.063c.074.074.217.002.292.052-.075.05-.193.03-.292.03v-.082Zm.74.03c-.006.016-.01.026-.02.032l.02-.01v-.021Zm6.064.022c-.043.152-.235.075-.334.104.086-.062.226-.06.334-.104Zm-.876.062c.03.003.058.034.083.115-.075.05-.18.05-.23.125-.224-.224-.37.154-.594-.02.124-.1.247-.078.396-.178.131.187.252-.05.345-.042Zm-6.628.115c.1.025-.027.1-.052.125h-.02l.072-.125Zm5.24.104c.124-.025.119.269.219.094.025-.075.127-.077.177-.052.175.25-.18.15-.23.25l-.198-.27.032-.022Zm-5.793.021a.09.09 0 0 1 .052.02v.105l-.125-.052c-.037-.037.02-.078.073-.073Zm5.51.073c0 .1.03.221.105.271-.125.075-.371-.145-.396.105l.073.073c-.15.025-.302-.375-.501-.126l.104.146c-.15-.124-.326.125-.501 0 .324 0 .3-.445.7-.27.024-.05.097-.072.072-.147.1.175.245-.002.345-.052Zm15.04.084c-.058-.004-.116.037-.042.093h.042c.025-.024.052-.023.052-.073a.082.082 0 0 0-.052-.02Zm-21.374.114-.272.25-.02-.02c.024-.15.192-.18.292-.23Zm4.821.032c0 .022.037.018.063 0h-.063Zm-5.416.135a.1.1 0 0 1 .073.01c-.05.075-.12.12-.22.094.038 0 .081-.083.147-.104Zm21.875.157c-.025.1.102.225.052.375l.094-.302-.146-.073Zm-16.198.03c.125-.013.093.199.136.199-.175.125-.222.07-.397.02.05-.024.222.056.272-.093l-.073-.104a.193.193 0 0 1 .062-.021Zm-.438.043.052.052c0 .05-.107.031-.156.031l.104-.083Zm-.94.302a.16.16 0 0 1 .168.073c-.075.025-.178.102-.303.052.012-.075.073-.116.136-.125Zm.491.052c.075.025.176.05.25.125-.05.05-.3.05-.25-.125Zm17.085.021v.157c.025 0 .073.018.073-.032-.025-.05-.023-.1-.073-.125Zm-18.984.23c.1 0 .128.22.302.145-.174.1-.43.23-.605.105 0-.1.178-.2.303-.25Zm-1.472.344c.175.15.447-.143.522.156-.15.05-.522.093-.522-.156Zm-2.265.49c-.045.014-.087.083-.031.083.025-.025.123.002.073-.073a.039.039 0 0 0-.042-.01Zm.95 0c.03.005.054.044.073.063.025.05-.052.096-.052.145-.125-.074-.027-.148-.052-.198.012-.006.021-.012.031-.01Zm-1.127.063c-.051-.002-.096.056-.02.093l.072-.073c-.012-.018-.035-.02-.052-.02Zm-4.644.145c0 .075.008.105-.042.105h-.105c.05-.025.097-.08.147-.105Zm3.767.397c.05.075.199-.05.199.125.074.15-.117.155-.167.23h-.053l.021-.355Zm.428 0c.025 0 .075.002.125.052-.025.05-.1.031-.125.031V50.9Zm-.845.146c.019-.01.03-.006.041.031v.105c-.074.024-.069-.08-.093-.105.012 0 .033-.022.052-.031Zm-.178.209.021.093c-.025.025-.023.032-.073.032l.052-.125Zm-.855.218c.01-.001.018-.006.03 0 .1.05-.023.053-.072.053-.019-.02.008-.048.042-.053Zm-.22.021a.137.137 0 0 1 .053.01v.053h-.073c-.038-.019-.023-.058.02-.063Zm-.396.209c0 .05-.004.069-.052.094-.026.025-.048-.017-.074-.042.05 0 .05-.052.126-.052Zm-.376.094.02.031-.041.052.021-.083Zm19.058 7.635c-.15.1-.127.296-.053.396.15 0 .328.179.428-.02.1-.275-.25-.252-.375-.376Z" fill="#231F20"/></svg>