<svg width="150" height="150" fill="none" xmlns="http://www.w3.org/2000/svg"><g clip-path="url(#a)"><path d="M150 0H0v150h150V0Z" fill="#003A7D"/><mask id="b" style="mask-type:luminance" maskUnits="userSpaceOnUse" x="0" y="0" width="150" height="150"><path d="M150 0H0v150h150V0Z" fill="#fff"/></mask><g mask="url(#b)"><path d="M104.354 40.975c0-15.874-11.354-23.05-24.797-23.05H45.722v10.898h33.835c7.823 0 13.101 4.405 13.101 12.456 0 8.392-5.392 12.341-13.101 12.341H45.684v41.43h11.354V64.52h17.43l15.304 30.532h13.329l-15.76-31.52c10.482-2.62 17.013-10.215 17.013-22.556Z" fill="#fff"/></g><mask id="c" style="mask-type:luminance" maskUnits="userSpaceOnUse" x="0" y="0" width="150" height="150"><path d="M150 0H0v150h150V0Z" fill="#fff"/></mask><g mask="url(#c)"><path d="m25.86 120.38-2.468-4.975H20.62v4.975h-2.772v-13.823h6.417c2.62 0 4.747 1.443 4.747 4.367 0 2.089-.873 3.38-2.658 4.063l2.658 5.355H25.86v.038Zm-1.633-11.127H20.62v3.57h3.607c1.291 0 1.975-.608 1.975-1.785 0-1.291-.76-1.785-1.975-1.785Z" fill="#fff"/></g><mask id="d" style="mask-type:luminance" maskUnits="userSpaceOnUse" x="0" y="0" width="150" height="150"><path d="M150 0H0v150h150V0Z" fill="#fff"/></mask><g mask="url(#d)"><path d="M32.924 120.38v-13.823h9.607v2.696h-6.835v2.393h3.987v2.696h-3.987v3.342h7.14v2.696h-9.912Z" fill="#fff"/></g><mask id="e" style="mask-type:luminance" maskUnits="userSpaceOnUse" x="0" y="0" width="150" height="150"><path d="M150 0H0v150h150V0Z" fill="#fff"/></mask><g mask="url(#e)"><path d="M53.392 114.911v5.469H50.62v-5.393l-5.24-8.392h3.19l1.937 3.266a101.99 101.99 0 0 1 1.519 2.696c.265-.532.987-1.823 1.48-2.696l1.937-3.266h3.152l-5.203 8.316Z" fill="#fff"/></g><mask id="f" style="mask-type:luminance" maskUnits="userSpaceOnUse" x="0" y="0" width="150" height="150"><path d="M150 0H0v150h150V0Z" fill="#fff"/></mask><g mask="url(#f)"><path d="m70.14 120.38-5.09-7.557a17.387 17.387 0 0 1-.948-1.557c0 .532.037 2.24.037 3.038v6.076h-2.734v-13.823h2.659l4.898 7.291c.344.502.66 1.022.95 1.557 0-.532-.038-2.24-.038-3.038v-5.848h2.734v13.823h-2.469v.038Z" fill="#fff"/></g><mask id="g" style="mask-type:luminance" maskUnits="userSpaceOnUse" x="0" y="0" width="150" height="150"><path d="M150 0H0v150h150V0Z" fill="#fff"/></mask><g mask="url(#g)"><path d="m85.937 120.38-1.101-3.076h-5.051l-1.101 3.076h-2.962L81 106.557h2.696l5.24 13.823h-3Zm-2.924-8.241c-.266-.797-.57-1.633-.684-2.164-.152.531-.417 1.329-.683 2.164l-.874 2.507h3.152l-.911-2.507Z" fill="#fff"/></g><mask id="h" style="mask-type:luminance" maskUnits="userSpaceOnUse" x="0" y="0" width="150" height="150"><path d="M150 0H0v150h150V0Z" fill="#fff"/></mask><g mask="url(#h)"><path d="M92.544 120.38v-13.823h9.608v2.696h-6.836v2.393h3.95v2.696h-3.95v3.342h7.139v2.696h-9.911Z" fill="#fff"/></g><mask id="i" style="mask-type:luminance" maskUnits="userSpaceOnUse" x="0" y="0" width="150" height="150"><path d="M150 0H0v150h150V0Z" fill="#fff"/></mask><g mask="url(#i)"><path d="m114.798 120.38-2.469-4.975h-2.772v4.975h-2.772v-13.823h6.456c2.62 0 4.747 1.443 4.747 4.367 0 2.089-.874 3.38-2.659 4.063l2.659 5.355h-3.19v.038Zm-1.671-11.127h-3.608v3.57h3.608c1.291 0 1.975-.608 1.975-1.785 0-1.291-.722-1.785-1.975-1.785Z" fill="#fff"/></g><mask id="j" style="mask-type:luminance" maskUnits="userSpaceOnUse" x="0" y="0" width="150" height="150"><path d="M150 0H0v150h150V0Z" fill="#fff"/></mask><g mask="url(#j)"><path d="M126.531 120.57c-2.316 0-4.329-.95-5.354-2.507l2.012-1.785a4.404 4.404 0 0 0 3.532 1.595c1.633 0 2.392-.455 2.392-1.519 0-.873-.455-1.291-3.075-1.86-2.545-.608-4.33-1.405-4.33-4.14 0-2.506 2.203-4.063 4.937-4.063a6.638 6.638 0 0 1 5.051 2.165l-1.975 1.936a4.166 4.166 0 0 0-1.423-1.046 4.165 4.165 0 0 0-1.729-.359c-1.481 0-1.975.646-1.975 1.253 0 .874.608 1.14 2.773 1.671 2.164.532 4.633 1.254 4.633 4.254-.038 2.658-1.671 4.405-5.469 4.405Z" fill="#fff"/></g><mask id="k" style="mask-type:luminance" maskUnits="userSpaceOnUse" x="0" y="0" width="150" height="150"><path d="M150 0H0v150h150V0Z" fill="#fff"/></mask><g mask="url(#k)"><path d="M78.19 131.962v-.532a2.082 2.082 0 0 1-1.405.608c-.836 0-1.785-.456-1.785-1.747 0-1.139.873-1.671 2.05-1.671.39-.012.776.052 1.14.19v-.38c0-.569-.342-.873-.987-.873a2.701 2.701 0 0 0-1.368.342l-.38-.76a3.28 3.28 0 0 1 1.785-.455c1.14 0 1.937.569 1.937 1.746V132h-.987v-.038Zm0-2.202a2.38 2.38 0 0 0-1.177-.228c-.646 0-1.064.303-1.064.759a.872.872 0 0 0 .988.874 1.695 1.695 0 0 0 1.253-.646v-.759Z" fill="#fff"/></g><mask id="l" style="mask-type:luminance" maskUnits="userSpaceOnUse" x="0" y="0" width="150" height="150"><path d="M150 0H0v150h150V0Z" fill="#fff"/></mask><g mask="url(#l)"><path d="M82.064 131.962v-6.646l1.025-.531v7.177h-1.025Z" fill="#fff"/></g><mask id="m" style="mask-type:luminance" maskUnits="userSpaceOnUse" x="0" y="0" width="150" height="150"><path d="M150 0H0v150h150V0Z" fill="#fff"/></mask><g mask="url(#m)"><path d="M89.126 131.962v-.494a1.565 1.565 0 0 1-1.29.608c-1.216 0-1.861-.797-1.861-2.316v-2.963H87v2.925c0 1.063.38 1.405 1.063 1.405.684 0 1.063-.494 1.063-1.33v-3.037h1.026v5.164h-1.026v.038Z" fill="#fff"/></g><mask id="n" style="mask-type:luminance" maskUnits="userSpaceOnUse" x="0" y="0" width="150" height="150"><path d="M150 0H0v150h150V0Z" fill="#fff"/></mask><g mask="url(#n)"><path d="M99.076 131.962v-2.924c0-1.063-.342-1.405-.987-1.405-.646 0-.988.494-.988 1.329V132h-1.063v-2.924c0-1.063-.342-1.405-.987-1.405-.646 0-.988.493-.988 1.329v3.038h-1.025v-5.241h1.025v.494a1.638 1.638 0 0 1 2.105-.382c.224.132.414.315.554.534a1.854 1.854 0 0 1 1.595-.76c1.215 0 1.784.798 1.784 2.317v2.962h-1.025Z" fill="#fff"/></g><mask id="o" style="mask-type:luminance" maskUnits="userSpaceOnUse" x="0" y="0" width="150" height="150"><path d="M150 0H0v150h150V0Z" fill="#fff"/></mask><g mask="url(#o)"><path d="M103.481 126.114a.645.645 0 1 1-.001-1.291.645.645 0 0 1 .001 1.291Zm-.532.683h1.025v5.165h-1.025v-5.165Z" fill="#fff"/></g><mask id="p" style="mask-type:luminance" maskUnits="userSpaceOnUse" x="0" y="0" width="150" height="150"><path d="M150 0H0v150h150V0Z" fill="#fff"/></mask><g mask="url(#p)"><path d="M110.05 131.962v-2.924c0-1.063-.379-1.405-1.063-1.405-.683 0-1.063.494-1.063 1.329V132h-1.026v-5.203h1.026v.494a1.566 1.566 0 0 1 1.291-.607c1.215 0 1.861.797 1.861 2.316v2.962h-1.026Z" fill="#fff"/></g><mask id="q" style="mask-type:luminance" maskUnits="userSpaceOnUse" x="0" y="0" width="150" height="150"><path d="M150 0H0v150h150V0Z" fill="#fff"/></mask><g mask="url(#q)"><path d="M114.493 126.114a.645.645 0 1 1 0-1.29.645.645 0 0 1 0 1.29Zm-.531.683h1.025v5.165h-1.025v-5.165Z" fill="#fff"/></g><mask id="r" style="mask-type:luminance" maskUnits="userSpaceOnUse" x="0" y="0" width="150" height="150"><path d="M150 0H0v150h150V0Z" fill="#fff"/></mask><g mask="url(#r)"><path d="M121.025 131.962v-.494a1.565 1.565 0 0 1-1.291.608c-1.215 0-1.861-.797-1.861-2.316v-2.963h1.025v2.925c0 1.063.38 1.405 1.064 1.405.683 0 1.063-.494 1.063-1.33v-3.037h1.025v5.164h-1.025v.038Z" fill="#fff"/></g><mask id="s" style="mask-type:luminance" maskUnits="userSpaceOnUse" x="0" y="0" width="150" height="150"><path d="M150 0H0v150h150V0Z" fill="#fff"/></mask><g mask="url(#s)"><path d="M130.937 131.962v-2.924c0-1.063-.342-1.405-.988-1.405-.645 0-.987.494-.987 1.329V132h-1.025v-2.924c0-1.063-.342-1.405-.988-1.405-.645 0-.987.494-.987 1.329v3.038h-1.025v-5.241h1.025v.494a1.639 1.639 0 0 1 2.658.152 1.816 1.816 0 0 1 1.595-.759c1.215 0 1.785.797 1.785 2.316v2.962h-1.063Z" fill="#fff"/></g></g><defs><clipPath id="a"><path fill="#fff" d="M0 0h150v150H0z"/></clipPath></defs></svg>