<svg width="30" height="30" viewBox="0 0 30 30" fill="none" xmlns="http://www.w3.org/2000/svg">
<path d="M11.25 15.0001L13.75 17.5001L19.375 11.8751M11.7509 2.69413L7.31319 4.66644C6.02344 5.23965 5.37858 5.52625 4.90571 5.9793C4.48774 6.37975 4.16814 6.87154 3.97195 7.41613C3.75 8.03223 3.75 8.73793 3.75 10.1493V16.9686C3.75 18.534 3.75 19.3166 3.96575 20.0271C4.15676 20.656 4.4699 21.2411 4.88728 21.749C5.35871 22.3226 6.00995 22.7567 7.3124 23.625L11.6718 26.5312C12.8746 27.3332 13.476 27.7341 14.1261 27.8898C14.7006 28.0276 15.2994 28.0276 15.8739 27.8898C16.524 27.7341 17.1254 27.3332 18.3282 26.5312L22.6876 23.625C23.99 22.7567 24.6413 22.3226 25.1128 21.749C25.5301 21.2411 25.8433 20.656 26.0343 20.0271C26.25 19.3166 26.25 18.534 26.25 16.9686V10.1493C26.25 8.73793 26.25 8.03223 26.028 7.41613C25.8319 6.87154 25.5122 6.37975 25.0942 5.9793C24.6214 5.52625 23.9765 5.23965 22.6869 4.66644L18.2491 2.69413C17.0526 2.16236 16.4544 1.89649 15.8325 1.79148C15.2814 1.69841 14.7186 1.69841 14.1675 1.79148C13.5456 1.89649 12.9474 2.16236 11.7509 2.69413Z" stroke="#323750" stroke-width="2" stroke-linecap="round" stroke-linejoin="round"/>
</svg>
