<svg width="30" height="30" viewBox="0 0 30 30" fill="none" xmlns="http://www.w3.org/2000/svg">
<path d="M18.75 12.5C21.5114 12.5 23.75 10.2614 23.75 7.5C23.75 4.73857 21.5114 2.5 18.75 2.5M21.25 27.5H24.75C26.9591 27.5 28.75 25.7091 28.75 23.5C28.75 20.1862 26.0638 17.5 22.75 17.5H21.25M15 7.5C15 10.2614 12.7614 12.5 10 12.5C7.23857 12.5 5 10.2614 5 7.5C5 4.73857 7.23857 2.5 10 2.5C12.7614 2.5 15 4.73857 15 7.5ZM5.25 27.5H14.75C16.9591 27.5 18.75 25.7091 18.75 23.5C18.75 20.1862 16.0637 17.5 12.75 17.5H7.25C3.93629 17.5 1.25 20.1862 1.25 23.5C1.25 25.7091 3.04086 27.5 5.25 27.5Z" stroke="#323750" stroke-width="2" stroke-linecap="round" stroke-linejoin="round"/>
</svg>
