<svg width="30" height="30" viewBox="0 0 30 30" fill="none" xmlns="http://www.w3.org/2000/svg">
<path d="M12.5 23.75H17.5M12.5 23.75C12.5 25.8211 10.8211 27.5 8.75 27.5C6.67894 27.5 5 25.8211 5 23.75M12.5 23.75C12.5 21.679 10.8211 20 8.75 20C6.67894 20 5 21.679 5 23.75M17.5 23.75C17.5 25.8211 19.1789 27.5 21.25 27.5C23.3211 27.5 25 25.8211 25 23.75M17.5 23.75C17.5 21.679 19.1789 20 21.25 20C23.3211 20 25 21.679 25 23.75M5 23.75C3.83515 23.75 3.25273 23.75 2.79329 23.5597C2.18073 23.306 1.69404 22.8192 1.4403 22.2067C1.25 21.7472 1.25 21.1649 1.25 20V15.9659C1.25 15.1411 1.25 14.7287 1.31556 14.3279C1.37377 13.972 1.47033 13.6234 1.60353 13.2882C1.75355 12.9107 1.96571 12.5571 2.39006 11.8499L2.66958 11.384C3.51938 9.9677 3.94428 9.25954 4.52928 8.74514C5.04698 8.28992 5.6532 7.94669 6.30989 7.73697C7.05196 7.5 7.87781 7.5 9.52953 7.5H13.75M25 23.75C27.0711 23.75 28.75 22.0711 28.75 20V8.5C28.75 6.3998 28.75 5.3497 28.3413 4.54754C27.9818 3.84192 27.4081 3.26825 26.7025 2.90872C25.9003 2.5 24.8503 2.5 22.75 2.5H19.75C17.6498 2.5 16.5998 2.5 15.7975 2.90872C15.0919 3.26825 14.5183 3.84192 14.1588 4.54754C13.75 5.3497 13.75 6.3998 13.75 8.5V9.75C13.75 11.1501 13.75 11.8502 13.4775 12.385C13.2379 12.8554 12.8554 13.2379 12.385 13.4775C11.8502 13.75 11.1501 13.75 9.75 13.75H1.875" stroke="#323750" stroke-width="2" stroke-linecap="round" stroke-linejoin="round"/>
</svg>
