<svg width="88" height="32" fill="none" xmlns="http://www.w3.org/2000/svg"><path fill="#F4F7F8" d="M.5 1h87v30H.5z"/><path stroke="#E8EDF1" d="M.5 1h87v30H.5z"/><g clip-path="url(#a)"><mask id="b" style="mask-type:alpha" maskUnits="userSpaceOnUse" x="8" y="7" width="18" height="18"><path d="M17 25a9 9 0 1 0 0-18 9 9 0 0 0 0 18Z" fill="#000"/></mask><g mask="url(#b)" fill-rule="evenodd" clip-rule="evenodd" fill="#242343"><path d="M20.007 10.166c.655 1.527 1.043 3.59 1.043 5.834 0 2.244-.388 4.307-1.043 5.834-.327.763-.733 1.423-1.22 1.902-.488.483-1.093.814-1.787.814V23.2c.238 0 .52-.11.84-.424.321-.318.642-.811.926-1.474.567-1.322.934-3.196.934-5.302 0-2.106-.367-3.98-.934-5.303-.284-.662-.605-1.155-.926-1.473-.32-.314-.602-.424-.84-.424V7.45c.694 0 1.3.331 1.788.813.486.48.892 1.14 1.219 1.903Z"/><path d="M15.234 10.697C14.667 12.02 14.3 13.894 14.3 16s.367 3.98.934 5.302c.284.663.605 1.156.927 1.474.319.314.601.424.84.424v1.35c-.695 0-1.3-.331-1.789-.814-.485-.479-.892-1.14-1.219-1.902-.654-1.527-1.043-3.59-1.043-5.834 0-2.244.389-4.307 1.043-5.834.327-.763.734-1.423 1.22-1.903.488-.482 1.093-.813 1.787-.813V8.8c-.238 0-.52.11-.84.424-.321.318-.642.81-.926 1.473Z"/><path d="M26 14.425H8v-1.35h18v1.35ZM26 18.925H8v-1.35h18v1.35Z"/></g><path fill-rule="evenodd" clip-rule="evenodd" d="M17 8.35a7.65 7.65 0 1 0 0 15.3 7.65 7.65 0 0 0 0-15.3ZM8 16a9 9 0 1 1 18 0 9 9 0 0 1-18 0Z" fill="#242343"/></g><path d="M31.994 20.5v-9.8h7.224v1.288h-5.754v2.94h3.78v1.246h-3.78v3.038h5.81V20.5h-7.28Zm8.791 0v-9.8h1.428l5.474 7.28V10.7h1.386v9.8h-1.288l-5.6-7.504V20.5h-1.4Zm14.999.154c-.719 0-1.39-.13-2.016-.392a5.197 5.197 0 0 1-1.624-1.078 5.125 5.125 0 0 1-1.092-1.61 5.002 5.002 0 0 1-.392-1.974c0-.7.126-1.353.378-1.96a4.92 4.92 0 0 1 1.092-1.61 5.078 5.078 0 0 1 1.624-1.092 5.074 5.074 0 0 1 2.002-.392c.775 0 1.507.15 2.198.448.69.299 1.274.714 1.75 1.246l-1.008.98a3.498 3.498 0 0 0-1.316-.966 3.88 3.88 0 0 0-1.624-.35c-.513 0-.99.093-1.428.28-.43.187-.807.448-1.134.784a3.561 3.561 0 0 0-.77 1.162 3.96 3.96 0 0 0-.266 1.47c0 .523.089 1.013.266 1.47.187.448.443.84.77 1.176a3.609 3.609 0 0 0 2.59 1.064c.579 0 1.101-.121 1.568-.364a3.164 3.164 0 0 0 1.162-.994c.299-.43.48-.91.546-1.442h-3.262v-1.288H60.6v.504c0 .7-.121 1.349-.364 1.946a4.796 4.796 0 0 1-1.022 1.568c-.43.448-.938.798-1.526 1.05a4.94 4.94 0 0 1-1.904.364ZM75 19l-4.33-5h8.66L75 19Z" fill="#242343"/><defs><clipPath id="a"><path fill="#fff" transform="translate(8 7)" d="M0 0h18v18H0z"/></clipPath></defs></svg>