<svg width="48" height="48" fill="none" xmlns="http://www.w3.org/2000/svg"><circle cx="24" cy="24" r="24" fill="#3390EC"/><path d="M12.663 23.24c.045-.025.09-.047.133-.069.757-.375 1.524-.727 2.29-1.078.04 0 .11-.052.149-.068l.178-.081.34-.157.682-.312 1.363-.625 2.727-1.25c.909-.415 1.818-.833 2.727-1.249l2.727-1.249 2.727-1.249c.202-.093.421-.232.637-.272.183-.035.36-.102.543-.14.347-.07.73-.098 1.063.056.115.054.22.129.309.223.422.447.363 1.181.273 1.81-.621 4.382-1.243 8.766-1.866 13.148-.085.601-.2 1.261-.644 1.641-.375.322-.909.358-1.372.222-.463-.138-.872-.426-1.273-.71l-4.987-3.535c-.395-.28-.835-.646-.83-1.154.002-.306.172-.578.347-.821 1.444-2.018 3.528-3.404 5.079-5.329.218-.271.39-.762.09-.918-.178-.093-.384.033-.547.154-2.05 1.524-4.098 3.05-6.147 4.574-.669.497-1.37 1.009-2.176 1.13-.72.11-1.446-.105-2.144-.325a100.81 100.81 0 0 1-1.75-.567c-.31-.103-.629-.214-.868-.447-.239-.234-.376-.626-.232-.936.09-.195.266-.319.45-.419l.002.001Z" fill="#fff"/></svg>