<svg width="48" height="48" fill="none" xmlns="http://www.w3.org/2000/svg"><circle cx="24" cy="24" r="24" fill="#25D366"/><path d="M31.67 16.266a10.807 10.807 0 0 0-7.66-3.174c-5.99 0-10.843 4.836-10.843 10.806 0 1.89.53 3.779 1.44 5.365l-1.516 5.592 5.763-1.51a11.088 11.088 0 0 0 5.157 1.284c5.99 0 10.844-4.837 10.844-10.806-.076-2.797-1.138-5.517-3.185-7.557Zm-2.427 11.486c-.228.605-1.29 1.21-1.82 1.285a4.253 4.253 0 0 1-1.668-.076c-.38-.151-.91-.302-1.517-.604-2.73-1.134-4.474-3.854-4.626-4.081-.151-.151-1.137-1.436-1.137-2.796 0-1.36.682-1.965.91-2.267.227-.303.53-.303.758-.303h.531c.152 0 .38-.075.607.454.227.529.758 1.89.834 1.965a.48.48 0 0 1 0 .453c-.076.151-.152.302-.304.453-.151.152-.303.378-.379.454-.151.151-.303.302-.151.529.151.302.682 1.134 1.516 1.89 1.062.906 1.896 1.208 2.2 1.36.303.15.454.075.606-.076.152-.151.682-.756.834-1.058.152-.302.38-.227.607-.151.227.075 1.592.755 1.82.907.303.15.455.226.53.302.076.227.076.756-.151 1.36Z" fill="#fff"/></svg>